<?xml version="1.0" encoding="utf-8"?>
<!-- Generator: Adobe Illustrator 17.0.0, SVG Export Plug-In . SVG Version: 6.00 Build 0)  -->
<!DOCTYPE svg PUBLIC "-//W3C//DTD SVG 1.1//EN" "http://www.w3.org/Graphics/SVG/1.1/DTD/svg11.dtd">
<svg version="1.1" id="Capa_1" xmlns="http://www.w3.org/2000/svg" xmlns:xlink="http://www.w3.org/1999/xlink" x="0px" y="0px"
	 width="207px" height="158px" viewBox="0 0 207 158" enable-background="new 0 0 207 158" xml:space="preserve">
<path fill="#CA5410" d="M6.212,124.995c0.584,0.866,1.252,2.4,2.583,2.445c0.371,0.005,1.049-0.53,1.598-0.53
	c0.515,0.005,0.757,0.416,1.104,0.312c1.559-0.386,2.247-2.672,0.787-4.122c-0.653-0.104-1.183-0.416-1.697-0.708
	C8.108,122.689,6.519,122.204,6.212,124.995 M3.441,120.897c-1.277,2.054,0.589,5.132,2.558,3.004
	c0.426-0.787,0.153-2.143-0.005-3.42c-0.208-0.223-0.485-0.312-0.792-0.312C4.569,120.17,3.837,120.541,3.441,120.897
	 M10.636,109.204c-0.109,0.163-0.505,0.119-0.371,0.515c1.811,1.524,3.504,3.261,5.142,5.043c0.465-0.02,0.95,0.005,1.415,0.04
	c1.475,0.089,2.761,0.188,2.944-1.41c0.213-1.777-1.287-1.92-1.895-2.687c-0.594-0.752-0.643-1.93-1.237-2.618
	c-0.431-0.559-1.534-0.812-2.049-1.44c-0.356-0.426-0.376-1.019-0.678-1.302c-0.223-0.208-0.762-0.119-0.99-0.317
	c-0.322-0.312-0.396-1.247-0.831-1.297C9.627,103.75,9.191,107.763,10.636,109.204 M195.63,102.092
	c-1.881,0.628-0.97,3.335,0.396,3.39c1.113,0.04,1.623-0.846,1.603-1.742c-0.005-0.876-0.515-1.752-1.43-1.752
	C196.025,101.988,195.837,102.023,195.63,102.092 M8.657,90.542c-0.163,2.846,2.301,2.954,3.692,4.246
	c0.975,0.896,1.277,1.97,2.098,1.92c1.321-0.643,2.702-1.158,4.211-1.163c-0.223,0.421-0.099,1.069-0.168,1.598
	c0.98,0.821,0.431,2.425,0.97,4.335c0.47,0.797,1.866,0.094,2.331,0.93c-0.188,2.509,2.761,2.727,4.286,1.935
	c0.005,0.683,0.371,0.802,0.594,1.138c0.817-0.96,1.212-2.217,1.653-3.459c-0.411-0.109-0.916-0.04-1.168-0.406
	c-1.519-2.474-3.86-3.707-5.919-5.355c0.277-0.435-0.129-0.881-0.213-1.366c-0.737-0.787-1.485,0.005-2.326,0.005
	c-1.658,0.015-2.197-1.331-3.048-2.816c-1.43-0.158-2.321-1.193-2.895-2.687c-0.52-0.267-1.237-0.45-1.92-0.45
	C9.746,88.953,8.726,89.384,8.657,90.542 M193.987,80.867c-1.856,0.628-1.059,3.548,0.678,3.375c1.628-0.158,1.821-3.494-0.03-3.494
	C194.442,80.753,194.224,80.788,193.987,80.867 M14.828,73.786c0,0.673,0.817,2.865,1.564,3.895c0.94,1.336,2.603,2.019,3.786,3.301
	c1.267,1.336,2.385,2.944,3.707,4.246c1.41,1.425,3.048,2.524,4.142,3.692c2.182,2.331,2.618,6.978,6.71,4.098
	c1.791-1.277,2.974-4.182,1.975-7.428c-0.619-0.559-1.064-1.445-1.791-1.826c-1.549-0.198-3.128-0.386-4.964-0.084
	c-1.727-2.113-4.672-2.262-6.458-4.32c-1.089-1.282-1.683-2.989-2.776-4.587c-1.475,0.104-2.168-2.455-3.222-2.935
	c-0.247-0.124-0.525-0.178-0.812-0.178C15.729,71.658,14.749,72.36,14.828,73.786 M160.192,65.021
	c-0.703,0.925-1.034,3.088-0.559,4.771c0.129,0.48,0.757,1.198,1.495,2.158c1.178,1.564,1.519,2.969,3.37,3.068
	c1.247,0.698,1.425,2.707,2.435,3.86c0.386,0.421,1.247,0.648,1.767,1.232c0.97,1.089,1.188,3.232,2.291,3.692
	c1.47,0.564,1.747,0.757,2.727,1.539c1.381,1.118,2.816,2.059,3.222,3.989c0.158,0.742-0.144,2.108,0.411,3.227
	c0.619,1.311,2.049,0.767,2.702,1.544c0.713,0.876,0.361,2.742,1.079,3.548c0.747,0.282,1.198,0.866,2.177,0.901
	c1.381,1.539,1.48,3.246,2.296,4.939c0.658,1.336,2.044,2.267,3.241,3.523c0.767,0.812,1.267,1.91,1.885,2.623
	c0.99,1.089,2.326,1.742,3.113,2.92c1.346,1.945,2.361,4.414,2.855,7.22c1.193,1.034,2.435,2.039,4.048,2.618
	c0.47-0.525,1.208-0.757,1.762-1.232c0.821-5.656-2.182-6.953-3.647-9.996c-0.332-0.337-0.841-0.495-1.356-0.619
	c-0.297-0.673-0.767-1.153-1.079-1.831c-1.386-1.193-2.643-2.172-3.113-3.989c-0.252-1.054-0.099-2.138-0.252-3.236
	c-0.144-0.723-1.024-1.514-1.519-2.321c-0.47-0.787-0.861-1.777-1.208-2.296c-1.01-1.584-2.267-1.717-4.063-2.46
	c-0.896-0.985-0.97-2.148-1.885-3.078c-0.544-0.539-1.529-0.579-2.163-1.227c-1.841-1.881-1.772-6.844-4.865-7.537
	c-0.351-0.069-0.668-0.035-0.965,0.005c-0.431,0.059-0.826,0.124-1.208-0.158c-1.831-1.351,0.183-5.676-1.465-7.235
	c-0.703-0.401-1.381-0.812-1.925-1.386c-1.529-1.668-2.707-5.34-4.3-6.76c-0.569-0.505-1.435-0.564-1.915-1.084
	c-0.747-0.812-0.97-2.653-2.163-2.776c-0.035,0-0.074-0.005-0.114-0.005C162.26,63.161,160.617,64.442,160.192,65.021
	 M33.905,59.746c-0.693,0.139-0.673,0.99-1.331,1.46c0.638,0.985,1.242,1.984,1.425,3.652c1.034,0.945,2.509,1.277,3.197,2.756
	c2.672,0.718,4.137,3.865,5.938,6.023c0.426,0.525,0.916,0.619,1.247,1.207c0.426,0.777,0.49,1.841,0.886,2.653
	c1.084,1.153,2.712,0.614,4.508,0.054c1.237-1.91,2.865-4.657,1.302-8.126c-2.519-0.129-4.538-2.247-7.344-0.846
	c-1.678-1.435-3.598-2.623-4.182-5.246c-0.346-0.45-1.95-0.703-2.455-1.143c-0.223-0.163-0.134-0.698-0.381-0.866
	c-0.307-0.198-0.807-0.054-1.143-0.282c-0.846-0.594-0.841-1.321-1.465-1.321C34.044,59.716,33.98,59.721,33.905,59.746
	 M28.744,57.781c-1.316,2.069,0.574,5.132,2.558,2.999c0.426-0.777,0.158-2.128,0-3.405c-0.208-0.228-0.485-0.317-0.792-0.317
	C29.877,57.059,29.145,57.435,28.744,57.781 M187.088,56.876c-3.266,1.084,1.539,5.869,2.034,1.989
	c0.163-1.316-0.47-2.108-1.4-2.108C187.524,56.762,187.311,56.797,187.088,56.876 M164.2,48.443
	c-0.02,1.673,1.509,1.564,2.182,2.455c0.317,1.806,1.46,2.618,2.455,3.543c1.999,1.935,3.692,4.513,5.112,6.918
	c1.272,1.4,5.854,2.791,4.884-0.93c-0.272-0.97-1.509-0.876-2.321-1.539c-0.807-0.668-0.896-1.633-1.598-2.148
	c0.064-1.613-0.94-2.019-1.242-3.227c-0.272-0.233-0.708-0.302-0.945-0.614c-0.693-2.46-2.816-3.251-4.597-4.459
	c-0.47-1.742-1.618-2.761-2.836-3.707c-0.332-0.119-0.638-0.163-0.911-0.163C162.038,44.573,161.83,48.394,164.2,48.443
	 M36.439,40.263c-0.173,1.495,0.277,2.247,0.678,3.058c2.346,0.505,2.385,3.647,4.597,4.32c0.139,0.48,0.218,1.059,0.534,1.386
	c0.346,0.317,0.975,0.322,1.361,0.609c0,0.668-0.054,1.386,0.119,1.856c0.886,0.98,1.574,0.426,2.44,0.757
	c1.712,0.673,1.866,3.162,3.657,3.39c1.292,1.183,1.683,3.429,2.563,5.077c2.163,0.371,3.053-0.737,4.345-1.4
	c0.965-1.569,0.332-4.291-0.955-5.053c-0.208-0.02-0.322,0.069-0.431,0.153c-0.129,0.104-0.252,0.198-0.495,0.139
	c-1.702-1.207-3.38-2.41-4.088-4.761c-1.707-0.762-4.647-0.144-5.548-1.846c0.163-0.98-0.396-2.509-0.396-3.845
	c-2.707-0.173-3.914-4.231-6.765-4.236C37.572,39.867,37.038,39.991,36.439,40.263 M174.503,35.67
	c-3.321,1.138,1.519,5.904,2.004,1.989c0.163-1.207-0.297-2.123-1.297-2.123C174.998,35.537,174.766,35.581,174.503,35.67
	 M48.722,35.463c1-0.198,1.287,1.277,2.024,1.841c1.024,0.792,2.831,1.366,3.786,0.688c-0.059,0.193-0.104,0.416-0.134,0.653
	c0.223,0.262,0.886,0.144,1.049,0.46c-0.084,0.381-0.129,0.742,0.02,0.945c1.133,0.911,1.514,1.895,2.514,3.147
	c0.638,0.807,1.519,1.49,1.668,2.267c0.144,1.123-0.539,2.138,0.005,3.425c0.708-0.089,1.415,0.03,2.103,0.144
	c0.678,0.109,1.331,0.228,1.95,0.144c1.198-0.173,3.766-3.227,4.004-4.078c0.287-0.861-0.134-1.9,0.193-2.915
	c-0.802-1.351-3.449-1.089-4.216-2.489c-0.252-0.04-0.539-0.074-0.802-0.124c-1.054-1.351-2.598-2.296-3.514-3.756
	c-1.613-0.074-3.33,0.153-4.266,1.143c0.341-1.791-1.163-2.692-1.118-3.954c-0.747-0.064-1.262-1.663-2.425-1.856
	c-0.188-0.03-0.371-0.049-0.549-0.049C48.756,31.108,47.029,33.552,48.722,35.463 M39.502,25.313c0.361,2.049,1.94,2.722,2.722,4.3
	c1.683,0.119,2.435-0.826,2.836-2.158c-1.232-0.876-2.316-2.756-3.919-2.756C40.645,24.699,40.111,24.877,39.502,25.313
	 M127.713,31.34c0.604,0.495,1.846,0.153,2.435,0.925c0.683,0.866,0.332,2.479,0.683,3.687c0.47,1.663,1.89,2.771,2.969,4.004
	c1.425,1.633,2.138,2.425,4.211,2.756c0.856,2.049,2.173,2.944,3.504,4.315c2.108,2.158,2.747,5.582,4.602,7.072
	c0.94,0.752,2.192,1,3.246,1.692c0.767,2.336,2.519,3.444,3.919,5.231c0.836,1.089,1.539,2.43,2.43,2.776
	c1.356,0.515,3.241,0.119,4.87-0.153c0.302-0.777,0.723-1.495,0.678-2.479c-0.134-2.954-2.667-2.633-4.459-4.147
	c-0.896-0.737-1.193-2.826-1.767-3.528c-0.559-0.683-1.559-0.742-2.158-1.391c-1.465-1.569-1.97-4.058-3.395-5.988
	c-1.287-1.791-3.573-2.776-5.285-3.702c-1.881-2.667-3.786-5.32-5.671-7.992c-0.599-0.124-1.306-0.144-1.747-0.455
	c-1.217-4.429-2.999-8.195-6.76-9.695C127.976,25.095,126.501,28.198,127.713,31.34 M160.024,22.452
	c-0.104,1.183,0.747,2.489,2.024,2.771c0.826,0.663,1.346,2.499,2.425,3.999c0.723,0.985,1.955,1.885,2.722,3.073
	c0.549,0.866,1.104,2.514,1.643,2.915c2.831,2.227,4.479-2.756,1.737-3.375c0.262-5.765-2.732-7.468-5.137-10.452
	c-0.624,0.069-1.361-0.089-2.103-0.247c-0.619-0.129-1.232-0.262-1.757-0.262C160.726,20.869,160.098,21.215,160.024,22.452
	 M56.308,18.107c-0.198,0.723,0.099,1.445,1.351,1.391c0.658,0.643,0.846,1.811,2.163,1.688c0.173,1.613,1.193,1.742,2.054,2.618
	c0.465,0.51,0.723,1.351,1.188,1.846c0.46,0.46,1.059,0.53,1.514,0.916c0.51,0.49,0.802,1.331,1.208,1.692
	c0.341,0.297,1.01,0.356,1.504,0.777c0.599,0.53,0.807,1.4,1.346,1.673c0.732,0.416,1.628,0.109,2.301,0.628
	c0.183,0.391,0.327,0.609,0.134,1.069c2.083,0.549,5.023,0.04,6.611-0.916c0.025-3.073-1.628-5.498-4.182-4.32
	c-2.153-0.916-4.246-1.935-5.934-3.37c-0.327-2.578-2.875-2.598-5.162-2.93c-0.673,0.421-1.386,0.594-1.9-0.153
	c0.302-0.371,0.49-0.891,0.559-1.534c-0.252-0.807-1.153-0.866-2.163-0.767c0.045-0.53-0.054-0.856-0.144-1.227
	c-0.292-0.346-0.604-0.49-0.92-0.49C57.145,16.707,56.496,17.41,56.308,18.107 M136.067,15.371c1.287,3.217,3.731,5.112,5.691,7.547
	c-0.079,0.643,0.099,1.019,0.129,1.529c1.371,1.534,3.108,0.515,4.34,2.014c0.668,0.792,0.668,2.247,1.346,3.073
	c0.658,0.752,1.613,0.945,2.168,1.846c0.401,0.633,0.431,1.495,0.812,2.138c0.356,0.584,1.099,1.039,1.603,1.692
	c0.574,0.703,0.896,1.648,1.361,2.158c0.762,0.797,1.48,1.138,2.049,1.984c0.911,1.42,1.782,2.806,3.241,3.405
	c0.485,0.04,0.866-0.035,1.217-0.153c0,1.094,0.01,1.569,0.396,1.984c1.381,1.579,2.544-0.059,2.712-1.707
	c0.144-1.445-0.49-2.91-2.44-2.123c-0.054-2.568-2.37-3.147-3.504-4.934c-1.316-2.014-2.004-4.231-3.533-6.003
	c-0.49-0.584-1.237-0.916-1.762-1.514c-1.331-1.579-2.177-3.632-4.325-4.167c-0.351,0.836-2.118,1.336-2.969,0.633
	c0.178-0.44,0.346-0.876,0.272-1.559c-0.708-1.034-0.322-2.692-0.416-4.617c-0.371-1.049-1.791-0.911-2.44-1.688
	c0.188-2.9-2.262-3.672-4.305-3.533c-0.332-1.321-0.901-1.811-1.47-1.811C134.76,11.56,133.305,14.851,136.067,15.371
	 M76.628,10.912c-1.331,0.47-1.331,1.504-0.846,2.351c-0.223,0.346-0.322,0.836-0.272,1.514c0.435,0.539,1.074,0.688,1.895,0.455
	c0.901,1.628,1.97,3.078,3.37,4.142c0,1.806,0.48,3.039,0.817,4.479c2.375,1.183,5.82,0.564,6.899-1.841
	c-0.431-1.495-0.223-3.667-1.222-4.464H86.05c-2.286-1.584-4.459-3.261-7.557-3.939c0.084-0.193,0.134-0.421,0.144-0.683
	c0.163-1.227-0.297-2.143-1.297-2.143C77.127,10.783,76.89,10.823,76.628,10.912 M73.436,9.096
	c-3.316,1.143,1.539,5.914,2.029,2.004c0.158-1.217-0.317-2.138-1.316-2.138C73.931,8.962,73.698,9.002,73.436,9.096 M150.547,6.453
	c-1.168,0.084-1.861,1.41-1.356,2.771c0.272,0.663,1.306,0.891,1.757,1.539c0.599,0.826,0.673,2.281,1.361,3.227
	c0.332,0.455,0.995,0.539,1.485,1.084c1.133,1.227,1.306,2.944,2.588,3.232c1.767,4.35,5.3-2.405,2.573-3.702
	c0.158-0.153,0.381-0.247,0.52-0.455c-1.9-2.049-3.751-4.147-5.424-6.468c-0.584,0.124-1.212-0.233-1.831-0.594
	c-0.544-0.317-1.084-0.633-1.598-0.633C150.601,6.448,150.571,6.453,150.547,6.453 M188.85,143.003
	c-1.495-1.603-0.074-3.123,1.079-4.622c0.782-1.024,1.292-2.489,2.173-2.613c2.925-0.436,2.677,5.775,0.396,6.918
	c-0.624,0.322-1.168,0.416-1.846,0.416C190.151,143.102,189.577,143.053,188.85,143.003 M164.245,141.464
	c-0.238-1.668,2.89-3.553,3.246-4.914c2.182-0.267,3.152-2.247,4.439-3.845c0.589-0.703,1.297-1.232,1.786-1.856
	c0.515-0.708,0.831-1.638,1.331-2.306c1.158-1.455,2.702-2.163,3.251-4.008c1.841-0.366,2.737-2.692,4.87-2.445
	c1.113,0.124,2.455,2.286,3.088,3.078c0.723,0.861,2.43,2.727,2.45,3.687c0.005,0.856-0.817,1.336-1.485,2.148
	c-0.628,0.752-0.891,1.598-1.356,2.163c-1.079,1.217-2.237,1.796-3.38,2.603c-2.024,1.47-3.088,3.533-4.993,4.776
	c-1.292,0.371-2.657,0.178-4.355,0.302c-2.361,0.153-4.266,1.717-5.651,1.999c-0.233,0.049-0.48,0.074-0.723,0.074
	C165.591,142.924,164.349,142.385,164.245,141.464 M141.515,141.311c-0.178-1.49,0.371-3.019,1.074-4.004
	c0.668-0.881,2.271-1.287,3.251-2.455c0.99-1.178,1.217-3.123,3.113-3.236c1.222-2.331,3.385-3.622,4.459-6.146
	c1.692-1.059,2.826-3.103,4.053-4.929c0.49-0.698,1.089-1.138,1.603-1.841c0.762-0.945,1.059-2.172,2.059-2.92
	c0.485-0.366,1.178-0.51,1.618-0.93c0.703-0.643,1.005-1.831,1.752-2.46c0.549-0.44,1.396-0.584,2.024-1.084
	c1.975-1.504,3.024-5.478,6.235-2.93c0.45,0.371,0.653,1.158,1.212,1.861c0.51,0.609,1.4,1.069,1.9,1.683
	c0.46,0.628,0.668,1.316,1.222,2.014c0.812,1.074,1.692,1.737,1.623,2.771c-0.114,1.613-1.455,1.302-2.697,1.999
	c-0.886,0.46-1.297,1.876-2.301,3.073c-0.703,0.821-1.584,1.302-2.059,1.846c-0.48,0.594-0.896,1.445-1.48,2.148
	c-0.549,0.683-1.272,1.193-1.752,1.856c-0.549,0.732-0.777,1.722-1.361,2.301c-0.628,0.653-1.574,0.846-2.168,1.386
	c-0.495,0.47-0.703,1.356-1.208,1.999c-0.628,0.841-2.009,1.618-2.974,2.771c-0.955,1.143-1.648,2.598-2.43,3.375
	c-0.945,0.945-3.048,2.331-3.934,2.479c-0.782,0.109-1.589-0.134-2.44-0.381c-0.767-0.213-1.569-0.44-2.43-0.401
	c-1.821,0.064-3.726,0.663-5.523,0.663C143.119,141.821,142.297,141.692,141.515,141.311 M117.855,141.623
	c-0.153-1.252,1.193-2.004,2.024-2.771c1.48-1.371,1.955-2.613,3.642-3.385c2.677-3.86,6.131-6.785,8.67-10.778
	c1.613-1.019,2.945-2.37,3.781-4.3c1.777-0.139,2.375-2.306,3.375-3.533c0.485-0.584,1.306-1.054,1.915-1.688
	c0.564-0.633,1.029-1.514,1.603-2.014c0.876-0.737,2.078-1.014,2.974-1.846c0.752-0.648,1.049-1.811,1.762-2.603
	c0.539-0.594,1.386-0.95,1.885-1.544c0.485-0.574,0.757-1.46,1.232-2.014c0.925-1.019,2.262-1.499,3.098-2.598
	c0.624-0.802,0.925-1.772,1.495-2.469c0.574-0.683,1.371-1.034,1.895-1.692c1.133-1.425,1.252-3.825,4.33-3.058
	c0.94,0.619,1.4,1.786,1.881,2.915c0.871,0.807,2.182,1.089,2.435,2.306c0.302,1.405-0.678,3.969-1.48,4.929
	c-0.53,0.619-1.45,0.777-2.034,1.371c-0.747,0.777-0.935,1.979-1.485,2.464c-0.594,0.515-1.697,0.841-2.158,1.217
	c-1.029,0.866-1.836,2.356-2.855,3.548c-0.965,1.158-1.603,2.598-2.558,3.702c-0.549,0.638-1.4,0.787-2.024,1.371
	c-0.495,0.48-0.777,1.48-1.371,2.148c-0.594,0.703-1.45,1.084-1.9,1.688c-0.426,0.633-0.569,1.603-1.064,2.172
	c-0.45,0.51-1.237,0.609-1.757,1.059c-0.777,0.703-1.222,2.074-2.009,3.088c-0.762,0.935-1.856,1.514-2.464,2.301
	c-1.118,1.495-1.45,3.528-3.35,4.157c-0.589,1.584-2.044,2.247-3.41,3.385c-0.559,0.475-0.975,1.287-1.46,1.529
	c-2.509,1.331-7.349,0.826-10.427,1.559c-0.628,0.144-1.767,0.559-2.702,0.559C118.583,142.8,117.964,142.528,117.855,141.623
	 M93.122,141.464c0.134-0.98,0.935-1.227,2.271-2.46c0.841-0.757,1.193-1.861,1.777-2.301c0.668-0.559,1.593-0.703,2.291-1.232
	c1.786-1.386,3.84-4.508,5.533-6.616c0.564-0.653,1.262-1.143,1.643-1.688c0.495-0.732,0.658-1.648,1.217-2.316
	c0.495-0.594,1.232-0.866,1.767-1.376c0.584-0.569,0.92-1.46,1.475-2.163c0.495-0.619,1.242-1.089,1.762-1.688
	c0.569-0.673,0.94-1.618,1.49-2.306c0.678-0.881,1.648-1.598,2.563-2.46c0.846-0.792,1.495-1.97,2.291-2.613
	c0.49-0.406,1.168-0.475,1.623-0.93c0.614-0.594,0.831-1.593,1.351-2.296c0.426-0.579,1.217-1.024,1.762-1.702
	c0.549-0.698,0.92-1.603,1.509-2.163c1.099-1.074,2.509-1.692,3.504-2.756c0.539-0.579,0.935-1.529,1.485-2.158
	c0.564-0.653,1.297-1.084,1.762-1.697c0.396-0.51,0.525-1.331,0.935-1.846c0.589-0.688,1.504-1.014,2.044-1.688
	c0.619-0.772,0.896-1.955,1.623-2.598c0.381-0.371,1.109-0.638,1.628-1.089c1.504-1.287,2.197-3.499,3.509-4.162
	c0.401-0.198,1.074-0.035,1.623-0.287c0.708-0.351,1.158-1.41,1.895-2.004c1.183-0.985,3.647-2.831,5.543-1.846
	c1.153,0.594,1.524,2.192,2.425,3.232c1.113,0.619,2.791,0.599,3.395,1.841c-0.614,3.227-3.677,4.706-5.27,7.092
	c-0.52,0.732-0.683,1.633-1.222,2.281c-0.648,0.807-1.623,1.242-2.321,2.014c-0.881,1.074-1.975,2.252-2.826,3.375
	c-0.505,0.643-0.713,1.445-1.208,2.024c-0.95,1.024-2.301,1.539-3.271,2.598c-1.029,2.702-3.622,3.657-4.721,6.3
	c-1.791,0.233-2.182,2.405-3.251,3.543c-0.619,0.663-1.544,0.891-2.153,1.539c-1.514,1.618-2.44,3.989-4.602,4.776
	c-0.426,1.702-2.098,2.281-3.246,3.543c-0.569,0.614-0.881,1.668-1.48,2.301c-0.732,0.752-1.831,1.084-2.707,2.004
	c-1.084,1.123-1.623,2.638-2.707,3.232c-0.49,0.262-1.074,0.213-1.623,0.455c-1.43,0.628-2.761,2.464-4.32,3.385
	c-0.628,0.351-1.252,0.401-1.757,0.767c-1.356,0.96-2.237,2.657-3.528,3.543c-1.722-0.346-3.667,0.549-5.835,0.619
	c-0.628,0.02-1.46,0.084-2.291,0.084C94.671,143.548,92.869,143.246,93.122,141.464 M69.838,141.311
	c0.168-1.217,1.158-1.351,2.158-2.46c1.193-1.311,1.702-3.123,3.657-3.385c0.638-1.569,1.821-2.435,2.841-3.692
	c0.53-0.653,0.708-1.598,1.212-2.306c0.534-0.723,1.509-1.242,2.029-2.004c0.539-0.718,0.752-1.702,1.232-2.296
	c0.708-0.901,1.94-1.267,2.672-2.172c0.515-0.559,0.831-1.564,1.381-2.296c0.584-0.831,1.534-1.4,2.019-2.158
	c0.539-0.826,0.727-2.049,1.356-2.761c0.361-0.416,0.95-0.51,1.351-0.93c0.638-0.668,0.896-1.722,1.509-2.46
	c0.48-0.648,1.331-0.99,1.866-1.688c0.52-0.633,0.727-1.579,1.232-2.158c0.559-0.653,1.4-0.916,1.9-1.544
	c0.49-0.614,0.569-1.504,1.079-2.128c0.52-0.732,1.495-1.014,2.009-1.702c0.401-0.525,0.574-1.316,0.965-1.846
	c0.584-0.861,1.574-1.336,2.168-2.172c0.332-0.49,0.559-1.267,0.94-1.831c0.351-0.564,0.866-0.99,1.217-1.534
	c0.48-0.802,0.643-1.866,1.217-2.618c0.643-0.866,1.777-1.158,2.568-1.999c0.683-0.732,1.074-1.742,1.762-2.46
	c0.737-0.772,1.821-1.123,2.568-1.841c0.817-0.807,1.074-1.999,1.885-2.776c1.668-0.356,2.138-1.707,3.246-3.078
	c0.757-0.935,1.786-1.598,2.43-2.455c0.782-1.059,1.168-2.445,2.029-3.39c0.356-0.381,0.891-0.46,1.356-0.916
	c0.767-0.792,1.252-2.128,2.019-2.776c0.594-0.49,1.341-0.703,1.9-1.232c1.777-1.613,2.727-4.246,4.187-5.221
	c2.267-1.495,4.32,3.474,5.543,5.379c0.861,1.346,2.321,2.92,3.133,3.692c0.648,0.628,2.098,0.96,2.291,1.841
	c0.426,1.965-1.415,2.217-2.568,2.935c-1.178,0.718-2.351,2.212-3.533,3.375c-1.242,1.267-1.88,3.088-2.974,4.004
	c-0.495,0.421-1.242,0.48-1.762,0.911c-0.539,0.475-0.817,1.232-1.321,1.707c-0.792,0.688-1.648,0.97-2.326,1.529
	c-0.975,0.836-1.46,1.935-2.435,3.078c-0.584,0.732-1.48,1.128-2.153,1.856c-0.465,0.475-0.881,1.247-1.356,1.831
	c-0.47,0.584-1.064,0.985-1.49,1.544c-0.435,0.579-0.614,1.509-1.089,2.148c-0.693,0.93-1.861,1.49-2.682,2.445
	c-1.539,1.796-2.9,4.147-4.612,5.859c-0.846,0.856-1.871,1.425-2.692,2.306c-0.51,0.539-0.866,1.341-1.356,1.846
	c-0.594,0.584-1.381,0.802-1.895,1.376c-0.574,0.628-0.787,1.663-1.351,2.321c-0.495,0.574-1.247,0.807-1.757,1.376
	c-0.47,0.51-0.911,1.247-1.351,1.846c-0.925,1.247-2.009,2.197-2.846,3.385c-0.713,1.019-1.064,2.247-1.885,3.078
	c-0.44,0.44-1.059,0.673-1.495,1.074c-0.574,0.505-1.029,1.302-1.638,1.856c-0.594,0.544-1.356,0.822-1.866,1.371
	c-0.569,0.574-0.802,1.544-1.356,2.163c-0.624,0.653-1.564,0.945-2.168,1.534c-0.896,0.826-1.549,2.197-2.435,3.227
	c-0.49,0.574-1.193,0.965-1.638,1.529c-0.802,1.054-1.198,2.509-2.163,3.39c-1.01-0.109-1.866,0.599-2.964,0.787
	c-1.183,0.173-2.44,0.02-3.692-0.119c-0.97-0.119-1.92-0.233-2.816-0.198c-0.94,0.03-2.37,0.53-3.514,0.53
	C70.432,143.845,69.576,143.33,69.838,141.311 M47.658,143.632c-1.712-1.618-0.737-3.058,0.812-4.632
	c1.341-1.346,2.405-3.182,3.924-4.147c0.44-1.935,1.994-2.667,3.108-4.004c0.46-0.549,0.732-1.391,1.237-1.999
	c0.53-0.653,1.44-1.074,1.881-1.688c0.47-0.668,0.569-1.673,1.079-2.316c0.49-0.594,1.544-0.866,2.182-1.534
	c0.584-0.643,0.782-1.791,1.341-2.46c0.861-1.034,2.064-1.673,2.954-2.771c2.494-2.999,4.766-6.537,7.438-9.536
	c0.549-0.599,1.386-0.916,1.9-1.544c1.549-1.806,2.346-4.251,3.781-6.305c0.584-0.777,1.514-1.242,2.168-1.989
	c0.51-0.584,0.723-1.41,1.237-2.014c0.485-0.584,1.267-0.925,1.757-1.514c0.762-0.965,1.371-2.103,2.153-3.093
	c0.807-1.014,1.272-2.271,2.044-3.217c0.836-1.049,2.108-1.564,2.954-2.618c0.965-1.158,1.801-2.806,2.836-4.157
	c1.024-1.297,2.009-2.692,2.841-3.999c1.4-2.207,2.727-4.098,4.35-6.151c0.505-0.668,1.232-1.084,1.603-1.702
	c0.46-0.737,0.619-1.757,1.089-2.455c0.426-0.653,1.292-1.049,1.752-1.692c0.52-0.683,0.727-1.579,1.212-2.143
	c0.455-0.539,1.435-0.93,2.034-1.549c0.49-0.475,0.812-1.47,1.356-2.148c0.534-0.673,1.41-1.054,1.895-1.688
	c0.495-0.633,0.604-1.529,1.079-2.163c0.48-0.648,1.287-1.014,1.89-1.683c2.158-2.41,3.603-5.335,5.557-6.478
	c1.386-0.802,1.48,0.628,2.286,2.014c0.267,0.44,0.891,0.901,1.371,1.529c0.549,0.812,0.866,1.821,1.208,2.158
	c0.713,0.742,1.885,0.99,2.291,1.534c0.317,0.416,0.569,1.435,0.97,2.004c0.807,1.232,2.168,1.811,2.168,2.771
	c-0.035,1.495-1.737,1.173-3.266,2.148c-0.643,0.401-0.802,1.277-1.351,1.999c-0.782,1.049-2.341,1.697-2.974,2.464
	c-0.762,0.925-1.247,2.321-2.044,3.375c-0.723,1.024-1.381,2.158-2.153,3.078c-0.52,0.633-1.351,0.93-1.9,1.549
	c-0.683,0.772-0.975,1.92-1.757,2.598c-0.515,0.47-1.287,0.633-1.752,1.089c-0.574,0.564-0.817,1.49-1.346,2.148
	c-0.594,0.708-1.618,1.227-2.316,1.999c-0.658,0.777-1.084,1.777-1.737,2.474c-0.831,0.826-1.945,1.277-2.583,2.138
	c-0.411,0.579-0.515,1.391-0.94,2.004c-0.495,0.688-1.376,1.118-1.885,1.846c-0.371,0.46-0.485,1.217-0.817,1.688
	c-0.47,0.643-1.297,0.925-1.757,1.544c-0.673,0.876-0.782,2.242-1.49,3.058c-0.46,0.539-1.316,0.708-1.767,1.247
	c-0.584,0.653-0.673,1.821-1.212,2.464c-0.534,0.633-1.509,0.911-2.019,1.524c-0.549,0.604-0.886,1.509-1.356,2.177
	c-2.103,2.707-4.325,5.374-6.493,8.136c-0.713,0.901-1.584,1.579-2.296,2.455c-0.51,0.643-0.807,1.648-1.356,2.321
	c-0.411,0.49-1.089,0.723-1.495,1.212c-1.064,1.287-1.47,3.519-3.385,3.999c-0.371,1.737-1.95,2.568-2.841,4.018
	c-0.49,0.807-0.569,1.895-1.193,2.618c-0.559,0.609-1.534,0.807-2.034,1.529c-0.539,0.787-0.614,1.881-1.212,2.618
	c-1.113,0.826-2.291,1.153-3.266,1.989c-2.638,2.316-4.132,6.76-7.572,7.547c-1.46,0.332-2.935,0.213-4.503,0.104
	c-1.019-0.074-2.078-0.144-3.197-0.104c-1.029,0.035-2.049,0.505-3.222,0.505C48.504,143.82,48.093,143.77,47.658,143.632
	 M29.278,142.241c-0.267-1.118,0.881-2.811,1.48-3.994c0.619-1.212,1.593-2.435,2.044-3.246c0.381-0.723,0.604-1.885,0.945-2.46
	c0.401-0.752,1.207-1.227,1.762-1.989c0.831-1.198,1.559-2.806,2.425-4.157c0.46-0.688,0.767-1.499,1.217-2.158
	c0.44-0.648,1.059-1.074,1.465-1.688c1.044-1.475,1.509-3.519,3.266-4.157c0.332-1.821,1.871-2.558,2.826-3.85
	c0.901-1.183,1.321-2.969,2.979-3.385c0.45-0.911,0.935-1.791,1.356-2.776c1.529-0.628,1.831-2.039,2.841-3.509
	c0.49-0.742,1.346-1.183,1.762-1.866c0.411-0.653,0.51-1.524,0.916-2.148c0.549-0.787,1.569-1.242,2.059-1.989
	c0.628-0.95,0.594-2.509,1.351-3.395c0.515-0.628,1.435-0.802,1.91-1.227c0.841-0.826,1.861-1.989,2.425-3.073
	c0.332-0.708,0.317-1.821,0.817-2.603c0.48-0.787,1.504-0.945,2.168-1.539c1.262-1.217,2.262-4.197,3.647-6.161
	c0.802-1.173,1.955-2.212,2.974-3.548c0.99-1.321,2.286-2.039,3.241-3.227c0.624-0.772,0.97-1.777,1.48-2.46
	c0.559-0.752,1.4-1.183,1.9-1.846c0.995-1.346,1.47-3.068,3.113-3.845c0.208-2.143,2.222-2.445,3.236-3.845
	c0.341-0.48,0.431-1.321,0.807-1.999c0.49-0.866,1.396-1.41,1.767-2.158c0.386-0.723,0.351-1.633,0.831-2.306
	c0.406-0.628,1.242-0.916,1.732-1.544c0.485-0.614,0.614-1.569,1.104-2.306c0.45-0.708,1.277-1.104,1.722-1.841
	c0.44-0.683,0.589-1.559,0.975-2.163c0.544-0.807,1.44-1.123,1.881-1.826c0.49-0.737,0.559-1.826,1.064-2.464
	c0.569-0.648,1.871-0.945,2.583-1.692c0.411-0.416,0.574-1.069,0.965-1.529c0.544-0.688,1.247-1.118,1.757-1.856
	c0.97-1.445,1.777-2.841,2.974-4.162c0.896-0.97,2.638,0.45,3.504,1.4c0.584,0.628,0.821,1.598,1.356,2.138
	c0.614,0.619,1.895,0.916,2.45,1.405c0.737,0.663,2.722,3.306,2.563,4.756c-0.173,1.302-1.341,1.475-2.296,2.306
	c-0.604,0.53-0.866,1.569-1.485,2.306c-0.544,0.653-1.465,1-1.91,1.534c-0.49,0.614-0.703,1.524-1.198,2.148
	c-0.589,0.718-1.45,1.143-2.049,1.846c-0.559,0.683-1.104,1.598-1.613,2.306c-1.143,1.559-1.965,3.479-3.123,4.761
	c-0.604,0.708-1.514,1.049-2.173,1.702c-0.861,0.901-1.519,2.054-2.415,3.078c-0.861,0.995-1.326,2.281-2.168,3.227
	c-0.44,0.51-1.178,0.742-1.638,1.232c-0.455,0.525-0.698,1.495-1.212,2.158c-0.51,0.683-1.297,1.034-1.747,1.697
	c-0.49,0.683-0.638,1.598-1.079,2.306c-0.431,0.643-1.183,1.054-1.638,1.697c-0.465,0.648-0.574,1.613-1.059,2.296
	c-0.52,0.742-1.574,1.302-2.177,2.158c-0.416,0.579-0.544,1.356-0.965,1.846c-0.559,0.708-1.519,1.034-2.143,1.692
	c-0.49,0.505-0.856,1.143-1.361,1.688c-1.118,1.198-1.861,2.445-2.969,3.86c-0.539,0.648-1.232,1.138-1.752,1.826
	c-0.698,0.925-1.059,2.207-1.643,3.236c-0.559,0.985-1.292,1.846-2.004,2.771c-1.544,1.945-2.361,4.167-3.667,5.993
	c-0.51,0.718-1.252,1.069-1.757,1.688c-0.747,0.925-1.064,2.158-1.89,2.93c-0.465,0.46-1.183,0.599-1.613,1.069
	c-0.53,0.579-0.807,1.618-1.381,2.321c-0.51,0.648-1.306,1.034-1.871,1.683c-0.401,0.45-0.678,1.193-1.099,1.702
	c-0.703,0.831-1.593,1.346-2.029,1.984c-0.431,0.688-0.559,1.564-1.054,2.158c-0.465,0.515-1.118,0.619-1.643,1.089
	c-0.757,0.668-1.455,2.049-2.168,3.227c-0.678,1.118-1.019,2.653-1.732,3.702c-0.866,1.178-2.326,1.618-3.133,2.603
	c-0.767,0.95-1.079,2.163-1.89,2.93c-0.426,0.391-1.143,0.455-1.613,0.911c-0.549,0.53-0.911,1.514-1.509,2.163
	c-0.574,0.648-1.4,1.049-1.747,1.529c-0.757,1.074-0.94,2.598-1.895,3.385c-0.881,0.44-3.682,0.97-6.127,0.97
	C31.278,143.661,29.511,143.3,29.278,142.241 M106.632,7.344c-0.401,1.217-0.173,2.707-0.549,3.845
	c-0.46,1.47-2.806,3.984-3.91,5.077c-0.51,0.505-1.302,0.812-1.628,1.376c-0.826,1.445-0.485,2.692-1.782,2.92
	c-0.594,0.109-0.747-0.049-0.99-0.208c-0.208-0.124-0.485-0.272-1.158-0.238c-0.757,1.005-0.213,2.41-0.416,3.528
	c-0.233,1.549-1.569,3.321-2.702,3.385c-0.371,0.035-0.747-0.188-1.133-0.401c-0.45-0.247-0.92-0.495-1.43-0.371
	c-2.286,0.559-1.346,4.983-0.807,7.379c-1.643,1.153-3.108,2.544-4.488,4.018c-5.003,1.198-8.061,4.642-9.571,9.833
	c-1.747,1.143-3.123,1.648-4.33,2.915c-2.712,2.88-3.043,9.977-6.503,11.699c-0.737,0.366-1.846,0.178-2.558,0.614
	c-0.628,0.371-1.178,1.564-1.881,2.776c-0.614,0.985-1.524,1.866-2.049,2.756c-0.94,1.613-1.109,3.677-1.762,5.236
	c-0.346,0.821-0.886,1.212-1.074,1.846c-0.817,2.578,0.534,5.429-0.965,7.077c-3.573-0.337-5.29,1.455-7.567,2.618
	c-1.821,1.955-2.865,4.87-4.86,6.3c-1.425,1.005-2.855,1.153-3.647,2.46c-0.569,0.901-0.48,2.46-1.232,3.682
	c-0.416,0.723-1.292,0.891-1.89,1.544c-0.965,1.074-1.019,2.375-1.618,3.692c-0.277,0.475,0.569,1,0.277,2.019
	c-0.292,0.247-0.658,0.173-1.019,0.084c-0.208-0.04-0.411-0.099-0.604-0.084c-2.895,5.444-5.869,10.486-9.61,16.138
	c-1.589,2.39-3.162,5.097-4.879,7.997c-1.485,2.534-3.815,5.731-4.053,9.076c-0.114,1.846,0.158,4.157,0.678,5.236
	c0.386,0.772,1.371,1.024,1.752,1.831c0.297,0.599,0.213,1.475,0.406,2.014c0.396,1.054,1.198,2.4,2.054,3.078
	c0.653,0.539,1.683,0.683,2.558,1.227c0.762,0.46,1.262,1.46,2.029,1.688c1.054,0.312,2.469,0.302,3.756,0.297
	c0.332,0,0.658,0,0.975,0c0.698,0.02,1.4-0.074,2.108-0.163c0.866-0.104,1.747-0.213,2.618-0.134
	c0.549,0.054,1.054,0.371,1.643,0.47c3.197,0.426,8.101-0.173,9.863,1.831c2.306-0.109,4.82-0.054,7.349,0.005
	c5.102,0.119,10.219,0.233,13.614-1.074c0.747,1.633,1.816,0.772,2.974,0.614c1.866-0.262,4.533,0,7.151,0
	c2.395,0,5.028-0.277,7.299,0c0.628,0.084,1.287,0.406,1.89,0.455c0.891,0.094,1.767,0.04,2.628-0.005
	c0.95-0.059,1.885-0.124,2.791,0.005c1.341,0.208,2.727,0.757,4.192,0.925c2.697,0.297,5.953,0,9.071,0c3.197,0,6.616,0.391,9.061,0
	c0.871-0.139,1.767-0.807,2.563-0.925c3.157-0.47,6.76,0,10.16,0h20.28c3.484,0,7.161,0.505,10.269,0
	c0.836-0.124,2.247-1.242,3.246-0.916c0.505,0.158,0.435,0.718,0.802,1.074c1,1.019,5.562,1.198,7.186,0.628
	c1.059-0.391,1.658-1.856,2.855-2.172c2.004-0.544,4.479,0,6.597,0h6.641c0.624-0.297,0.792-1.143,1.351-1.529
	c0.683,0.252,1.415,0.193,2.182,0.139c0.604-0.049,1.222-0.099,1.871,0.015c0.891,0.158,1.658,0.792,2.415,0.93
	c2.811,0.416,6.671,0.49,8.403-0.47c1.668-0.93,2.222-2.875,3.385-4.305c-0.272-2.742,0.356-4.281,0-6.31
	c-0.297-1.668-1.762-2.722-2.029-4.142c-0.198-1.173,0.277-2.633,0-4.023c-0.238-1.054-2.029-2.999-2.732-3.37
	c-1.193-0.653-2.949-0.505-4.048-1.386c-0.47-0.406-0.752-0.826-0.802-2.004c-1.94-0.287-2.247-2.163-3.241-3.528
	c-0.574-0.787-1.252-1.41-1.623-2.158c-0.292-0.574-0.332-1.41-0.683-2.004c-0.624-1.109-1.994-1.613-2.702-2.618
	c-0.356-0.49-0.465-1.207-0.812-1.688c-0.876-1.153-2.083-1.727-3.113-2.455c-0.668-1.44-1.999-2.172-2.974-3.385
	c-0.426-0.53-0.619-1.316-1.064-1.841c-0.673-0.772-1.692-1.143-2.321-2.004c-0.485-0.703-0.584-1.648-1.054-2.301
	c-1.47-2.019-3.34-3.543-5.162-5.092c-0.723-1.311-1.237-2.796-2.168-3.825c-0.628-0.737-1.618-1.089-2.143-1.861
	c-0.302-0.455-0.341-1.074-0.673-1.539c-0.495-0.653-1.465-1.109-2.168-1.846c-0.599-0.619-0.99-1.549-1.49-2.004
	c-0.574-0.505-1.41-0.599-1.895-1.217c-0.599-0.767-0.643-1.989-1.212-2.761c-0.614-0.821-1.653-1.074-2.296-1.846
	c-0.584-0.703-0.807-1.732-1.381-2.321c-0.708-0.777-1.816-0.876-2.549-1.692c-0.638-0.698-0.777-1.742-1.376-2.46
	c-0.643-0.812-1.89-1.014-2.539-1.841c-0.46-0.544-0.544-1.445-0.945-2.004c-0.594-0.807-1.544-1.178-2.049-1.999
	c-0.416-0.673-0.51-1.544-0.925-2.143c-0.51-0.703-1.569-1.054-2.173-1.846c-1.143-1.47-1.48-3.192-3.385-3.543
	c-0.777-2.004-2.306-3.202-3.528-4.761c-0.51-0.683-0.802-1.633-1.351-2.321c-0.534-0.668-1.44-1.104-2.024-1.841
	c-0.549-0.737-0.807-1.737-1.341-2.46c-0.435-0.574-1.113-1.059-1.623-1.692c-0.435-0.564-0.782-1.425-1.222-1.846
	c-0.534-0.515-1.361-0.633-1.89-1.232c-0.727-0.787-0.802-2.242-1.49-3.073c-1.064-1.287-3.083-1.207-4.187-2.455
	c-0.925-2.059-1.509-4.182-2.979-5.993c-0.426-0.544-1.153-0.826-1.623-1.405c-0.658-0.777-1.049-2.078-1.747-3.058
	c-0.401-0.539-1.188-1.024-1.643-1.688c-0.624-0.925-0.802-1.663-1.48-2.014c-3.048-1.584-4.87,5.003-6.349,6.923
	c-0.539,0.723-1.495,1.198-2.034,2.004c-0.431,0.619-0.525,1.4-0.94,1.984c-0.614,0.891-1.549,1.282-2.044,2.014
	c-0.361,0.579-0.411,1.42-0.807,1.999c-0.525,0.792-1.46,1.183-2.049,1.989c-0.341,0.53-0.401,1.282-0.787,1.861
	c-1.41,2.059-3.459,3.845-4.756,5.993c-0.262,0.49-0.381,1.183-0.648,1.683c-0.416,0.673-1.143,1.183-1.628,1.846
	c-0.539,0.737-0.807,1.722-1.222,2.306c-0.614,0.821-1.613,1.183-2.153,2.004c-0.539,0.792-0.757,2.207-1.232,2.756
	c-0.668,0.792-1.885,0.916-2.568,1.549c-0.92,0.846-1.658,2.271-2.558,3.385c-0.94,1.128-1.593,2.633-2.44,3.692
	c-0.584,0.703-1.386,1.074-1.89,1.846c-0.376,0.549-0.46,1.252-0.817,1.846c-0.549,0.96-1.524,1.598-2.019,2.455
	c-0.356,0.609-0.346,1.425-0.693,2.004c-0.322,0.525-1.044,1.074-1.485,1.692c-0.53,0.673-0.92,1.504-1.351,1.999
	c-0.594,0.668-1.692,1.054-2.168,1.856c-0.871,1.47-1.044,3.637-2.821,3.83c-0.628,1.999-1.673,3.034-2.855,4.315
	c-0.549,0.609-1.089,1.42-1.603,1.846c-0.589,0.421-1.356,0.515-1.895,1.089c-0.911,0.901-1.925,2.578-2.583,3.825
	c-0.361,0.698-0.426,1.613-0.826,2.306c-0.371,0.708-1.232,1.104-1.737,1.856c-0.544,0.777-0.683,1.93-1.222,2.776
	c-0.435,0.683-1.45,1.282-1.9,2.143c-0.465,0.935-0.539,2.247-1.084,2.771c-0.46,0.46-1.643,0.515-2.286,1.069
	c-0.569,0.495-1.034,1.727-1.772,2.623c-0.678,0.826-1.292,1.593-1.881,2.455c-1.198,1.737-2.9,3.301-3.801,4.919
	c-0.574,1.059-0.673,2.425-1.217,3.385c-0.465,0.856-1.396,1.297-2.004,2.163c-1.089,1.386-1.95,3.929-3.934,3.533
	c-0.881-0.173-1.965-2.192-2.049-3.227c-0.144-2.143,1.658-4.973,0.678-6.463c1.198-1.514,3.187-2.138,3.657-4.474
	c1.97-0.153,2.074-1.668,3.123-3.217c0.465-0.698,1.242-1.232,1.618-1.856c0.767-1.366,0.802-2.796,1.613-3.528
	c1.247-1.138,2.756-1.059,2.855-3.073c0.049-1.425-1.267-2.534-0.426-3.86c1.871,0.356,3.212,0.633,4.617-0.614
	c1.019-0.901,1.618-2.321,2.836-3.84c1.084-1.405,2.509-2.385,3.083-3.702c0.549-1.123,0.416-2.464,1.109-3.227
	c0.53-0.599,1.331-0.549,1.885-0.93c1.188-0.807,1.465-1.979,2.306-2.915c0.084-5.285,4.568-5.567,6.488-8.769
	c0.242-1.41,0.44-2.667,1.638-3.227c0.505-0.242,1.133,0,1.618-0.312c0.708-0.44,0.812-1.593,1.628-2.613
	c0.332-0.435,1.084-0.703,1.346-1.232c0.564-1.207,0.431-2.846,0.802-4.305c-0.455-0.896-1.044-2.365-0.668-3.692
	c2.722-0.698,4.87-1.153,6.483-3.385c0.188-0.247,0.223-0.802,0.406-1.069c0.539-0.861,1.495-1.613,2.168-2.474
	c0.767-0.97,1.747-1.846,2.163-2.618c0.44-0.826,0.51-1.876,0.95-2.756c0.752-1.579,2.43-2.915,3.776-3.86
	c1.054-0.718,2.321-1.069,3.251-1.999c1.9-1.93,2.267-5.562,3.123-8.304c3.246-0.015,4.731-2.093,6.082-4.291
	c3.469-0.173,3.464-3.994,5.543-6.616c1.044-1.351,2.841-2.281,3.776-3.395c0.713-0.831,1.534-2.296,2.45-3.528
	c0.708-1,1.534-3.147,2.43-3.533c3.113-1.386,3.058,2.44,4.345,3.84c0.574,0.683,1.564,0.797,2.153,1.391
	c0.782,0.767,0.782,1.826,1.752,2.143c0.515,0.302,1.475,0.074,1.895,0.47c0.935,0.911,0.732,3.771,1.737,4.914
	c0.584,0.628,2.321,1.193,3.133,0.47c0.713-0.668,0.975-5.617,0.53-6.918c-0.401-1.163-1.613-1.158-2.563-1.846
	c-1.099-0.826-1.158-2.172-2.029-3.543c-0.341-0.574-1.153-1.376-1.752-2.148c-0.638-0.797-1.252-1.692-1.895-2.004
	c-0.752-0.351-1.757-0.158-2.45-0.762c-0.322-0.312-0.807-1.277-1.193-1.846c-1.089-1.574-2.766-4.345-4.726-4.464
	c-0.01,0-0.02,0-0.03,0C109.21,3.187,107.122,5.84,106.632,7.344"/>
</svg>
