<?xml version="1.0" encoding="utf-8"?>
<!-- Generator: Adobe Illustrator 17.0.0, SVG Export Plug-In . SVG Version: 6.00 Build 0)  -->
<!DOCTYPE svg PUBLIC "-//W3C//DTD SVG 1.1//EN" "http://www.w3.org/Graphics/SVG/1.1/DTD/svg11.dtd">
<svg version="1.1" id="Capa_1" xmlns="http://www.w3.org/2000/svg" xmlns:xlink="http://www.w3.org/1999/xlink" x="0px" y="0px"
	 width="144px" height="144px" viewBox="0 -22 144 144" enable-background="new 0 -22 144 144" xml:space="preserve">
<g id="isotipo">
	<g>
		<g>
			<g>
				<defs>
					<path id="SVGID_1_" d="M5.242,79.241c0.403,0.597,0.863,1.655,1.781,1.686c0.256,0.003,0.723-0.365,1.102-0.365
						c0.355,0.003,0.522,0.287,0.761,0.215c1.075-0.266,1.549-1.843,0.543-2.842c-0.45-0.072-0.816-0.287-1.17-0.488
						C6.549,77.651,5.454,77.316,5.242,79.241 M3.331,76.415c-0.88,1.416,0.406,3.539,1.764,2.071
						c0.293-0.543,0.106-1.478-0.003-2.358c-0.143-0.154-0.334-0.215-0.546-0.215C4.109,75.914,3.604,76.17,3.331,76.415
						 M8.293,68.352c-0.075,0.113-0.348,0.082-0.256,0.355c1.249,1.051,2.416,2.249,3.545,3.477
						c0.321-0.014,0.655,0.003,0.976,0.027c1.017,0.061,1.904,0.13,2.03-0.973c0.147-1.225-0.887-1.324-1.307-1.853
						c-0.409-0.519-0.444-1.331-0.853-1.805c-0.297-0.386-1.058-0.56-1.413-0.993c-0.246-0.293-0.259-0.703-0.467-0.897
						c-0.154-0.143-0.525-0.082-0.682-0.218c-0.222-0.215-0.273-0.86-0.573-0.894C7.597,64.592,7.296,67.359,8.293,68.352
						 M135.852,63.448c-1.297,0.433-0.669,2.3,0.273,2.337c0.768,0.027,1.119-0.584,1.106-1.201
						c-0.003-0.604-0.355-1.208-0.986-1.208C136.125,63.377,135.996,63.401,135.852,63.448 M6.928,55.484
						c-0.113,1.962,1.587,2.037,2.546,2.928c0.672,0.618,0.88,1.358,1.447,1.324c0.911-0.444,1.863-0.798,2.904-0.802
						c-0.154,0.29-0.068,0.737-0.116,1.102c0.676,0.566,0.297,1.672,0.669,2.989c0.324,0.549,1.286,0.065,1.607,0.642
						c-0.13,1.73,1.904,1.88,2.955,1.334c0.003,0.471,0.256,0.553,0.409,0.785c0.563-0.662,0.836-1.529,1.14-2.385
						c-0.283-0.075-0.631-0.027-0.805-0.28c-1.048-1.706-2.662-2.556-4.081-3.692c0.191-0.3-0.089-0.607-0.147-0.942
						c-0.508-0.543-1.024,0.003-1.604,0.003c-1.143,0.01-1.515-0.918-2.102-1.942c-0.986-0.109-1.6-0.822-1.996-1.853
						c-0.358-0.184-0.853-0.311-1.324-0.311C7.678,54.389,6.975,54.686,6.928,55.484 M134.719,48.813
						c-1.28,0.433-0.73,2.447,0.467,2.327c1.123-0.109,1.256-2.409-0.02-2.409C135.033,48.735,134.883,48.758,134.719,48.813
						 M11.183,43.93c0,0.464,0.563,1.976,1.078,2.686c0.648,0.921,1.795,1.392,2.61,2.276c0.874,0.921,1.645,2.03,2.556,2.928
						c0.973,0.983,2.102,1.74,2.856,2.546c1.505,1.607,1.805,4.811,4.627,2.825c1.235-0.88,2.051-2.883,1.362-5.122
						c-0.427-0.386-0.734-0.996-1.235-1.259c-1.068-0.136-2.157-0.266-3.423-0.058c-1.191-1.457-3.221-1.559-4.453-2.979
						c-0.751-0.884-1.16-2.061-1.914-3.163c-1.017,0.072-1.495-1.693-2.221-2.024c-0.171-0.085-0.362-0.123-0.56-0.123
						C11.804,42.463,11.128,42.947,11.183,43.93 M111.417,37.887c-0.485,0.638-0.713,2.129-0.386,3.289
						c0.089,0.331,0.522,0.826,1.031,1.488c0.812,1.078,1.048,2.047,2.324,2.116c0.86,0.481,0.983,1.867,1.679,2.662
						c0.266,0.29,0.86,0.447,1.218,0.85c0.669,0.751,0.819,2.228,1.58,2.546c1.013,0.389,1.205,0.522,1.88,1.061
						c0.952,0.771,1.942,1.42,2.221,2.75c0.109,0.512-0.099,1.454,0.283,2.225c0.427,0.904,1.413,0.529,1.863,1.065
						c0.491,0.604,0.249,1.89,0.744,2.447c0.515,0.194,0.826,0.597,1.501,0.621c0.952,1.061,1.02,2.238,1.583,3.406
						c0.454,0.921,1.409,1.563,2.235,2.43c0.529,0.56,0.874,1.317,1.3,1.809c0.682,0.751,1.604,1.201,2.146,2.013
						c0.928,1.341,1.628,3.044,1.969,4.979c0.822,0.713,1.679,1.406,2.791,1.805c0.324-0.362,0.833-0.522,1.215-0.85
						c0.566-3.9-1.505-4.794-2.515-6.893c-0.229-0.232-0.58-0.341-0.935-0.427c-0.205-0.464-0.529-0.795-0.744-1.263
						c-0.955-0.822-1.822-1.498-2.146-2.75c-0.174-0.727-0.068-1.474-0.174-2.232c-0.099-0.498-0.706-1.044-1.048-1.6
						c-0.324-0.543-0.594-1.225-0.833-1.583c-0.696-1.092-1.563-1.184-2.802-1.696c-0.618-0.679-0.669-1.481-1.3-2.122
						c-0.375-0.372-1.054-0.399-1.491-0.846c-1.269-1.297-1.222-4.719-3.354-5.197c-0.242-0.048-0.461-0.024-0.665,0.003
						c-0.297,0.041-0.57,0.085-0.833-0.109c-1.263-0.932,0.126-3.914-1.01-4.989c-0.485-0.276-0.952-0.56-1.327-0.955
						c-1.054-1.15-1.867-3.682-2.965-4.661c-0.392-0.348-0.99-0.389-1.321-0.747c-0.515-0.56-0.669-1.829-1.491-1.914
						c-0.024,0-0.051-0.003-0.078-0.003C112.843,36.604,111.71,37.488,111.417,37.887 M24.337,34.249
						c-0.478,0.096-0.464,0.682-0.918,1.007c0.44,0.679,0.856,1.368,0.983,2.518c0.713,0.652,1.73,0.88,2.204,1.901
						c1.843,0.495,2.853,2.665,4.095,4.153c0.293,0.362,0.631,0.427,0.86,0.833c0.293,0.536,0.338,1.269,0.611,1.829
						c0.747,0.795,1.87,0.423,3.109,0.038c0.853-1.317,1.976-3.211,0.897-5.603c-1.737-0.089-3.129-1.549-5.064-0.584
						c-1.157-0.99-2.481-1.809-2.883-3.617c-0.239-0.311-1.344-0.485-1.693-0.788c-0.154-0.113-0.092-0.481-0.263-0.597
						c-0.212-0.136-0.556-0.038-0.788-0.194c-0.584-0.409-0.58-0.911-1.01-0.911C24.433,34.229,24.389,34.232,24.337,34.249
						 M20.778,32.895c-0.908,1.426,0.396,3.539,1.764,2.068c0.293-0.536,0.109-1.467,0-2.348c-0.143-0.157-0.334-0.218-0.546-0.218
						C21.56,32.396,21.055,32.656,20.778,32.895 M129.963,32.27c-2.252,0.747,1.061,4.047,1.402,1.372
						c0.113-0.908-0.324-1.454-0.966-1.454C130.263,32.192,130.116,32.215,129.963,32.27 M114.181,26.455
						c-0.014,1.153,1.041,1.078,1.505,1.693c0.218,1.246,1.007,1.805,1.693,2.443c1.379,1.334,2.546,3.112,3.525,4.77
						c0.877,0.966,4.037,1.925,3.368-0.642c-0.188-0.669-1.041-0.604-1.6-1.061c-0.556-0.461-0.618-1.126-1.102-1.481
						c0.044-1.112-0.648-1.392-0.856-2.225c-0.188-0.16-0.488-0.208-0.652-0.423c-0.478-1.696-1.942-2.242-3.17-3.075
						c-0.324-1.201-1.116-1.904-1.955-2.556c-0.229-0.082-0.44-0.113-0.628-0.113C112.689,23.787,112.546,26.421,114.181,26.455
						 M26.085,20.815c-0.119,1.031,0.191,1.549,0.467,2.109c1.617,0.348,1.645,2.515,3.17,2.979c0.096,0.331,0.15,0.73,0.369,0.955
						c0.239,0.218,0.672,0.222,0.938,0.42c0,0.461-0.038,0.955,0.082,1.28c0.611,0.676,1.085,0.293,1.682,0.522
						c1.181,0.464,1.286,2.18,2.522,2.337c0.891,0.816,1.16,2.365,1.768,3.501c1.491,0.256,2.105-0.508,2.996-0.966
						c0.665-1.082,0.229-2.958-0.659-3.484c-0.143-0.014-0.222,0.048-0.297,0.106c-0.089,0.072-0.174,0.136-0.341,0.096
						c-1.174-0.833-2.331-1.662-2.819-3.283c-1.177-0.525-3.204-0.099-3.825-1.273c0.113-0.676-0.273-1.73-0.273-2.651
						c-1.867-0.119-2.699-2.918-4.665-2.921C26.866,20.542,26.497,20.627,26.085,20.815 M121.285,17.648
						c-2.29,0.785,1.048,4.071,1.382,1.372c0.113-0.833-0.205-1.464-0.894-1.464C121.626,17.556,121.466,17.587,121.285,17.648
						 M34.554,17.505c0.689-0.136,0.887,0.88,1.396,1.269c0.706,0.546,1.952,0.942,2.61,0.474c-0.041,0.133-0.072,0.287-0.092,0.45
						c0.154,0.181,0.611,0.099,0.723,0.317c-0.058,0.263-0.089,0.512,0.014,0.652c0.781,0.628,1.044,1.307,1.733,2.17
						c0.44,0.556,1.048,1.027,1.15,1.563c0.099,0.775-0.372,1.474,0.003,2.361c0.488-0.061,0.976,0.02,1.45,0.099
						c0.467,0.075,0.918,0.157,1.344,0.099c0.826-0.119,2.597-2.225,2.761-2.812c0.198-0.594-0.092-1.31,0.133-2.01
						c-0.553-0.932-2.378-0.751-2.907-1.716c-0.174-0.027-0.372-0.051-0.553-0.085c-0.727-0.932-1.791-1.583-2.423-2.59
						c-1.112-0.051-2.296,0.106-2.941,0.788c0.235-1.235-0.802-1.856-0.771-2.726c-0.515-0.044-0.87-1.147-1.672-1.28
						c-0.13-0.02-0.256-0.034-0.379-0.034C34.578,14.502,33.387,16.188,34.554,17.505 M28.197,10.506
						c0.249,1.413,1.338,1.877,1.877,2.965c1.16,0.082,1.679-0.57,1.955-1.488c-0.85-0.604-1.597-1.901-2.703-1.901
						C28.985,10.083,28.616,10.206,28.197,10.506 M89.021,14.662c0.416,0.341,1.273,0.106,1.679,0.638
						c0.471,0.597,0.229,1.71,0.471,2.542c0.324,1.147,1.304,1.911,2.047,2.761c0.983,1.126,1.474,1.672,2.904,1.901
						c0.59,1.413,1.498,2.03,2.416,2.976c1.454,1.488,1.894,3.849,3.173,4.876c0.648,0.519,1.512,0.689,2.238,1.167
						c0.529,1.611,1.737,2.375,2.703,3.607c0.577,0.751,1.061,1.675,1.675,1.914c0.935,0.355,2.235,0.082,3.358-0.106
						c0.208-0.536,0.498-1.031,0.467-1.71c-0.092-2.037-1.839-1.815-3.075-2.86c-0.618-0.508-0.822-1.948-1.218-2.433
						c-0.386-0.471-1.075-0.512-1.488-0.959c-1.01-1.082-1.358-2.798-2.341-4.129c-0.887-1.235-2.464-1.914-3.644-2.552
						c-1.297-1.839-2.61-3.668-3.911-5.511c-0.413-0.085-0.901-0.099-1.205-0.314c-0.839-3.054-2.068-5.651-4.661-6.685
						C89.202,10.356,88.185,12.496,89.021,14.662 M111.301,8.534c-0.072,0.816,0.515,1.716,1.396,1.911
						c0.57,0.457,0.928,1.723,1.672,2.757c0.498,0.679,1.348,1.3,1.877,2.119c0.379,0.597,0.761,1.733,1.133,2.01
						c1.952,1.536,3.088-1.901,1.198-2.327c0.181-3.975-1.884-5.149-3.542-7.207c-0.43,0.048-0.938-0.061-1.45-0.171
						c-0.427-0.089-0.85-0.181-1.211-0.181C111.785,7.442,111.352,7.681,111.301,8.534 M39.785,5.538
						c-0.136,0.498,0.068,0.996,0.932,0.959C41.17,6.94,41.3,7.746,42.208,7.66c0.119,1.112,0.822,1.201,1.416,1.805
						c0.321,0.351,0.498,0.932,0.819,1.273c0.317,0.317,0.73,0.365,1.044,0.631c0.351,0.338,0.553,0.918,0.833,1.167
						c0.235,0.205,0.696,0.246,1.037,0.536c0.413,0.365,0.556,0.966,0.928,1.153c0.505,0.287,1.123,0.075,1.587,0.433
						c0.126,0.27,0.225,0.42,0.092,0.737c1.437,0.379,3.464,0.027,4.559-0.631c0.017-2.119-1.123-3.791-2.883-2.979
						c-1.484-0.631-2.928-1.334-4.091-2.324c-0.225-1.778-1.983-1.791-3.559-2.02c-0.464,0.29-0.955,0.409-1.31-0.106
						c0.208-0.256,0.338-0.614,0.386-1.058c-0.174-0.556-0.795-0.597-1.491-0.529c0.031-0.365-0.038-0.59-0.099-0.846
						c-0.201-0.239-0.416-0.338-0.635-0.338C40.362,4.572,39.915,5.057,39.785,5.538 M94.781,3.651
						c0.887,2.218,2.573,3.525,3.924,5.204c-0.055,0.444,0.068,0.703,0.089,1.054c0.945,1.058,2.143,0.355,2.993,1.389
						c0.461,0.546,0.461,1.549,0.928,2.119c0.454,0.519,1.112,0.652,1.495,1.273c0.276,0.437,0.297,1.031,0.56,1.474
						c0.246,0.403,0.758,0.717,1.106,1.167c0.396,0.485,0.618,1.136,0.938,1.488c0.525,0.549,1.02,0.785,1.413,1.368
						c0.628,0.979,1.228,1.935,2.235,2.348c0.334,0.027,0.597-0.024,0.839-0.106c0,0.754,0.007,1.082,0.273,1.368
						c0.952,1.089,1.754-0.041,1.87-1.177c0.099-0.996-0.338-2.006-1.682-1.464c-0.038-1.771-1.634-2.17-2.416-3.402
						c-0.908-1.389-1.382-2.918-2.436-4.139c-0.338-0.403-0.853-0.631-1.215-1.044c-0.918-1.089-1.501-2.505-2.982-2.873
						c-0.242,0.577-1.46,0.921-2.047,0.437c0.123-0.304,0.239-0.604,0.188-1.075c-0.488-0.713-0.222-1.856-0.287-3.184
						c-0.256-0.723-1.235-0.628-1.682-1.164c0.13-2-1.559-2.532-2.969-2.436c-0.229-0.911-0.621-1.249-1.013-1.249
						C93.881,1.023,92.877,3.293,94.781,3.651 M53.796,0.576c-0.918,0.324-0.918,1.037-0.583,1.621
						c-0.154,0.239-0.222,0.577-0.188,1.044c0.3,0.372,0.74,0.474,1.307,0.314c0.621,1.123,1.358,2.122,2.324,2.856
						c0,1.245,0.331,2.095,0.563,3.088c1.638,0.816,4.013,0.389,4.757-1.269c-0.297-1.031-0.154-2.529-0.843-3.078h-0.839
						c-1.576-1.092-3.075-2.249-5.211-2.716c0.058-0.133,0.092-0.29,0.099-0.471c0.113-0.846-0.205-1.478-0.894-1.478
						C54.141,0.488,53.977,0.515,53.796,0.576 M51.595-0.676c-2.286,0.788,1.061,4.078,1.399,1.382
						c0.109-0.839-0.218-1.474-0.908-1.474C51.936-0.768,51.776-0.741,51.595-0.676 M104.766-2.498
						c-0.805,0.058-1.283,0.973-0.935,1.911c0.188,0.457,0.901,0.614,1.211,1.061c0.413,0.57,0.464,1.573,0.938,2.225
						c0.229,0.314,0.686,0.372,1.024,0.747c0.781,0.846,0.901,2.03,1.785,2.228c1.218,2.999,3.655-1.658,1.774-2.552
						c0.109-0.106,0.263-0.171,0.358-0.314c-1.31-1.413-2.587-2.86-3.74-4.46c-0.403,0.085-0.836-0.16-1.263-0.409
						c-0.375-0.218-0.747-0.437-1.102-0.437C104.803-2.502,104.783-2.498,104.766-2.498 M131.177,91.658
						c-1.031-1.106-0.051-2.153,0.744-3.187c0.539-0.706,0.891-1.716,1.498-1.802c2.017-0.3,1.846,3.982,0.273,4.77
						c-0.43,0.222-0.805,0.287-1.273,0.287C132.075,91.726,131.679,91.692,131.177,91.658 M114.211,90.597
						c-0.164-1.15,1.993-2.45,2.238-3.388c1.505-0.184,2.174-1.549,3.061-2.651c0.406-0.485,0.894-0.85,1.232-1.28
						c0.355-0.488,0.573-1.129,0.918-1.59c0.798-1.003,1.863-1.491,2.242-2.764c1.269-0.253,1.887-1.856,3.358-1.686
						c0.768,0.085,1.693,1.576,2.129,2.122c0.498,0.594,1.675,1.88,1.689,2.542c0.003,0.59-0.563,0.921-1.024,1.481
						c-0.433,0.519-0.614,1.102-0.935,1.491c-0.744,0.839-1.542,1.239-2.331,1.795c-1.396,1.013-2.129,2.436-3.443,3.293
						c-0.891,0.256-1.832,0.123-3.003,0.208c-1.628,0.106-2.941,1.184-3.897,1.379c-0.16,0.034-0.331,0.051-0.498,0.051
						C115.139,91.604,114.283,91.232,114.211,90.597 M98.538,90.491c-0.123-1.027,0.256-2.082,0.74-2.761
						c0.461-0.607,1.566-0.887,2.242-1.693c0.682-0.812,0.839-2.153,2.146-2.232c0.843-1.607,2.334-2.498,3.075-4.238
						c1.167-0.73,1.948-2.14,2.795-3.399c0.338-0.481,0.751-0.785,1.106-1.269c0.525-0.652,0.73-1.498,1.42-2.013
						c0.334-0.253,0.812-0.351,1.116-0.642c0.485-0.444,0.693-1.263,1.208-1.696c0.379-0.304,0.962-0.403,1.396-0.747
						c1.362-1.037,2.085-3.777,4.3-2.02c0.311,0.256,0.45,0.798,0.836,1.283c0.351,0.42,0.966,0.737,1.31,1.16
						c0.317,0.433,0.461,0.908,0.843,1.389c0.56,0.74,1.167,1.198,1.119,1.911c-0.078,1.112-1.003,0.897-1.86,1.379
						c-0.611,0.317-0.894,1.293-1.587,2.119c-0.485,0.566-1.092,0.897-1.42,1.273c-0.331,0.409-0.618,0.996-1.02,1.481
						c-0.379,0.471-0.877,0.822-1.208,1.28c-0.379,0.505-0.536,1.187-0.938,1.587c-0.433,0.45-1.085,0.584-1.495,0.955
						c-0.341,0.324-0.485,0.935-0.833,1.379c-0.433,0.58-1.385,1.116-2.051,1.911c-0.659,0.788-1.136,1.791-1.675,2.327
						c-0.652,0.652-2.102,1.607-2.713,1.71c-0.539,0.075-1.095-0.092-1.682-0.263c-0.529-0.147-1.082-0.304-1.675-0.276
						c-1.256,0.044-2.569,0.457-3.808,0.457C99.644,90.843,99.078,90.754,98.538,90.491 M82.224,90.706
						c-0.106-0.863,0.822-1.382,1.396-1.911c1.02-0.945,1.348-1.802,2.511-2.334c1.846-2.662,4.228-4.678,5.978-7.432
						c1.112-0.703,2.03-1.635,2.607-2.965c1.225-0.096,1.638-1.59,2.327-2.436c0.334-0.403,0.901-0.727,1.321-1.164
						c0.389-0.437,0.71-1.044,1.106-1.389c0.604-0.508,1.433-0.7,2.051-1.273c0.519-0.447,0.723-1.249,1.215-1.795
						c0.372-0.409,0.955-0.655,1.3-1.065c0.334-0.396,0.522-1.007,0.85-1.389c0.638-0.703,1.559-1.034,2.136-1.791
						c0.43-0.553,0.638-1.222,1.031-1.703c0.396-0.471,0.945-0.713,1.307-1.167c0.781-0.983,0.863-2.638,2.986-2.109
						c0.648,0.427,0.966,1.232,1.297,2.01c0.601,0.556,1.505,0.751,1.679,1.59c0.208,0.969-0.467,2.737-1.02,3.399
						c-0.365,0.427-1,0.536-1.402,0.945c-0.515,0.536-0.645,1.365-1.024,1.699c-0.409,0.355-1.17,0.58-1.488,0.839
						c-0.71,0.597-1.266,1.624-1.969,2.447c-0.665,0.798-1.106,1.791-1.764,2.552c-0.379,0.44-0.966,0.543-1.396,0.945
						c-0.341,0.331-0.536,1.02-0.945,1.481c-0.409,0.485-1,0.747-1.31,1.164c-0.293,0.437-0.392,1.106-0.734,1.498
						c-0.311,0.351-0.853,0.42-1.211,0.73c-0.536,0.485-0.843,1.43-1.385,2.129c-0.525,0.645-1.28,1.044-1.699,1.587
						c-0.771,1.031-1,2.433-2.31,2.866c-0.406,1.092-1.409,1.549-2.351,2.334c-0.386,0.328-0.672,0.887-1.007,1.054
						c-1.73,0.918-5.067,0.57-7.19,1.075c-0.433,0.099-1.218,0.386-1.863,0.386C82.726,91.518,82.299,91.331,82.224,90.706
						 M65.169,90.597c0.092-0.676,0.645-0.846,1.566-1.696c0.58-0.522,0.822-1.283,1.225-1.587c0.461-0.386,1.099-0.485,1.58-0.85
						c1.232-0.955,2.648-3.109,3.815-4.562c0.389-0.45,0.87-0.788,1.133-1.164c0.341-0.505,0.454-1.136,0.839-1.597
						c0.341-0.409,0.85-0.597,1.218-0.949c0.403-0.392,0.635-1.007,1.017-1.491c0.341-0.427,0.856-0.751,1.215-1.164
						c0.392-0.464,0.648-1.116,1.027-1.59c0.467-0.607,1.136-1.102,1.768-1.696c0.583-0.546,1.031-1.358,1.58-1.802
						c0.338-0.28,0.805-0.328,1.119-0.642c0.423-0.409,0.573-1.099,0.932-1.583c0.293-0.399,0.839-0.706,1.215-1.174
						c0.379-0.481,0.635-1.106,1.041-1.491c0.758-0.74,1.73-1.167,2.416-1.901c0.372-0.399,0.645-1.054,1.024-1.488
						c0.389-0.45,0.894-0.747,1.215-1.17c0.273-0.351,0.362-0.918,0.645-1.273c0.406-0.474,1.037-0.7,1.409-1.164
						c0.427-0.532,0.618-1.348,1.119-1.791c0.263-0.256,0.764-0.44,1.123-0.751c1.037-0.887,1.515-2.413,2.419-2.87
						c0.276-0.136,0.74-0.024,1.119-0.198c0.488-0.242,0.798-0.973,1.307-1.382c0.816-0.679,2.515-1.952,3.822-1.273
						c0.795,0.409,1.051,1.512,1.672,2.228c0.768,0.427,1.925,0.413,2.341,1.269c-0.423,2.225-2.535,3.245-3.634,4.89
						c-0.358,0.505-0.471,1.126-0.843,1.573c-0.447,0.556-1.119,0.856-1.6,1.389c-0.607,0.74-1.362,1.553-1.948,2.327
						c-0.348,0.444-0.491,0.996-0.833,1.396c-0.655,0.706-1.587,1.061-2.256,1.791c-0.71,1.863-2.498,2.522-3.255,4.344
						c-1.235,0.16-1.505,1.658-2.242,2.443c-0.427,0.457-1.065,0.614-1.484,1.061c-1.044,1.116-1.682,2.75-3.173,3.293
						c-0.293,1.174-1.447,1.573-2.238,2.443c-0.392,0.423-0.607,1.15-1.02,1.587c-0.505,0.519-1.263,0.747-1.867,1.382
						c-0.747,0.775-1.119,1.819-1.867,2.228c-0.338,0.181-0.74,0.147-1.119,0.314c-0.986,0.433-1.904,1.699-2.979,2.334
						c-0.433,0.242-0.863,0.276-1.211,0.529c-0.935,0.662-1.542,1.832-2.433,2.443c-1.187-0.239-2.529,0.379-4.023,0.427
						c-0.433,0.014-1.007,0.058-1.58,0.058C66.237,92.034,64.995,91.825,65.169,90.597 M49.114,90.491
						c0.116-0.839,0.798-0.932,1.488-1.696c0.822-0.904,1.174-2.153,2.522-2.334c0.44-1.082,1.256-1.679,1.959-2.546
						c0.365-0.45,0.488-1.102,0.836-1.59c0.369-0.498,1.041-0.856,1.399-1.382c0.372-0.495,0.519-1.174,0.85-1.583
						c0.488-0.621,1.338-0.874,1.843-1.498c0.355-0.386,0.573-1.078,0.952-1.583c0.403-0.573,1.058-0.966,1.392-1.488
						c0.372-0.57,0.502-1.413,0.935-1.904c0.249-0.287,0.655-0.351,0.932-0.642c0.44-0.461,0.618-1.187,1.041-1.696
						c0.331-0.447,0.918-0.682,1.286-1.164c0.358-0.437,0.502-1.089,0.85-1.488c0.386-0.45,0.966-0.631,1.31-1.065
						c0.338-0.423,0.392-1.037,0.744-1.467c0.358-0.505,1.031-0.7,1.385-1.174c0.276-0.362,0.396-0.908,0.665-1.273
						c0.403-0.594,1.085-0.921,1.495-1.498c0.229-0.338,0.386-0.874,0.648-1.263c0.242-0.389,0.597-0.682,0.839-1.058
						c0.331-0.553,0.444-1.286,0.839-1.805c0.444-0.597,1.225-0.798,1.771-1.379c0.471-0.505,0.74-1.201,1.215-1.696
						c0.508-0.532,1.256-0.775,1.771-1.269c0.563-0.556,0.74-1.379,1.3-1.914c1.15-0.246,1.474-1.177,2.238-2.122
						c0.522-0.645,1.232-1.102,1.675-1.693c0.539-0.73,0.805-1.686,1.399-2.337c0.246-0.263,0.614-0.317,0.935-0.631
						c0.529-0.546,0.863-1.467,1.392-1.914c0.409-0.338,0.925-0.485,1.31-0.85c1.225-1.112,1.88-2.928,2.887-3.6
						c1.563-1.031,2.979,2.395,3.822,3.709c0.594,0.928,1.6,2.013,2.16,2.546c0.447,0.433,1.447,0.662,1.58,1.269
						c0.293,1.355-0.976,1.529-1.771,2.024c-0.812,0.495-1.621,1.525-2.436,2.327c-0.856,0.874-1.297,2.129-2.051,2.761
						c-0.341,0.29-0.856,0.331-1.215,0.628c-0.372,0.328-0.563,0.85-0.911,1.177C91.85,54.805,91.26,55,90.792,55.385
						c-0.672,0.577-1.007,1.334-1.679,2.122c-0.403,0.505-1.02,0.778-1.484,1.28c-0.321,0.328-0.607,0.86-0.935,1.263
						c-0.324,0.403-0.734,0.679-1.027,1.065c-0.3,0.399-0.423,1.041-0.751,1.481c-0.478,0.642-1.283,1.027-1.849,1.686
						c-1.061,1.239-2,2.86-3.18,4.04c-0.583,0.59-1.29,0.983-1.856,1.59c-0.351,0.372-0.597,0.925-0.935,1.273
						c-0.409,0.403-0.952,0.553-1.307,0.949c-0.396,0.433-0.543,1.147-0.932,1.6c-0.341,0.396-0.86,0.556-1.211,0.949
						c-0.324,0.351-0.628,0.86-0.932,1.273c-0.638,0.86-1.385,1.515-1.962,2.334c-0.491,0.703-0.734,1.549-1.3,2.122
						c-0.304,0.304-0.73,0.464-1.031,0.74c-0.396,0.348-0.71,0.897-1.129,1.28c-0.409,0.375-0.935,0.566-1.286,0.945
						c-0.392,0.396-0.553,1.065-0.935,1.491c-0.43,0.45-1.078,0.652-1.495,1.058c-0.618,0.57-1.068,1.515-1.679,2.225
						c-0.338,0.396-0.822,0.665-1.129,1.054c-0.553,0.727-0.826,1.73-1.491,2.337c-0.696-0.075-1.286,0.413-2.044,0.543
						c-0.816,0.119-1.682,0.014-2.546-0.082c-0.669-0.082-1.324-0.16-1.942-0.136c-0.648,0.02-1.634,0.365-2.423,0.365
						C49.524,92.238,48.933,91.883,49.114,90.491 M33.82,92.092c-1.181-1.116-0.508-2.109,0.56-3.194
						c0.925-0.928,1.658-2.194,2.706-2.86c0.304-1.334,1.375-1.839,2.143-2.761c0.317-0.379,0.505-0.959,0.853-1.379
						c0.365-0.45,0.993-0.74,1.297-1.164c0.324-0.461,0.392-1.153,0.744-1.597c0.338-0.409,1.065-0.597,1.505-1.058
						c0.403-0.444,0.539-1.235,0.925-1.696c0.594-0.713,1.423-1.153,2.037-1.911c1.72-2.068,3.286-4.508,5.129-6.576
						c0.379-0.413,0.955-0.631,1.31-1.065c1.068-1.245,1.617-2.931,2.607-4.347c0.403-0.536,1.044-0.856,1.495-1.372
						c0.351-0.403,0.498-0.973,0.853-1.389c0.334-0.403,0.874-0.638,1.211-1.044c0.525-0.665,0.945-1.45,1.484-2.133
						c0.556-0.7,0.877-1.566,1.409-2.218c0.577-0.723,1.454-1.078,2.037-1.805c0.665-0.798,1.242-1.935,1.955-2.866
						c0.706-0.894,1.385-1.856,1.959-2.757c0.966-1.522,1.88-2.825,2.999-4.242c0.348-0.461,0.85-0.747,1.106-1.174
						c0.317-0.508,0.427-1.211,0.751-1.693c0.293-0.45,0.891-0.723,1.208-1.167c0.358-0.471,0.502-1.089,0.836-1.478
						c0.314-0.372,0.99-0.642,1.402-1.068c0.338-0.328,0.56-1.013,0.935-1.481c0.369-0.464,0.973-0.727,1.307-1.164
						c0.341-0.437,0.416-1.054,0.744-1.491c0.331-0.447,0.887-0.7,1.304-1.16c1.488-1.662,2.484-3.678,3.832-4.467
						c0.955-0.553,1.02,0.433,1.576,1.389c0.184,0.304,0.614,0.621,0.945,1.054c0.379,0.56,0.597,1.256,0.833,1.488
						c0.491,0.512,1.3,0.682,1.58,1.058c0.218,0.287,0.392,0.99,0.669,1.382c0.556,0.85,1.495,1.249,1.495,1.911
						c-0.024,1.031-1.198,0.809-2.252,1.481c-0.444,0.276-0.553,0.88-0.932,1.379c-0.539,0.723-1.614,1.17-2.051,1.699
						c-0.525,0.638-0.86,1.6-1.409,2.327c-0.498,0.706-0.952,1.488-1.484,2.122c-0.358,0.437-0.932,0.642-1.31,1.068
						c-0.471,0.532-0.672,1.324-1.211,1.791c-0.355,0.324-0.887,0.437-1.208,0.751c-0.396,0.389-0.563,1.027-0.928,1.481
						c-0.409,0.488-1.116,0.846-1.597,1.379c-0.454,0.536-0.747,1.225-1.198,1.706c-0.573,0.57-1.341,0.88-1.781,1.474
						c-0.283,0.399-0.355,0.959-0.648,1.382c-0.341,0.474-0.949,0.771-1.3,1.273c-0.256,0.317-0.334,0.839-0.563,1.164
						c-0.324,0.444-0.894,0.638-1.211,1.065c-0.464,0.604-0.539,1.546-1.027,2.109c-0.317,0.372-0.908,0.488-1.218,0.86
						c-0.403,0.45-0.464,1.256-0.836,1.699c-0.369,0.437-1.041,0.628-1.392,1.051c-0.379,0.416-0.611,1.041-0.935,1.501
						c-1.45,1.867-2.982,3.706-4.477,5.61c-0.491,0.621-1.092,1.089-1.583,1.693c-0.351,0.444-0.556,1.136-0.935,1.6
						c-0.283,0.338-0.751,0.498-1.031,0.836c-0.734,0.887-1.013,2.426-2.334,2.757c-0.256,1.198-1.344,1.771-1.959,2.771
						c-0.338,0.556-0.392,1.307-0.822,1.805c-0.386,0.42-1.058,0.556-1.402,1.054c-0.372,0.543-0.423,1.297-0.836,1.805
						c-0.768,0.57-1.58,0.795-2.252,1.372c-1.819,1.597-2.849,4.661-5.221,5.204c-1.007,0.229-2.024,0.147-3.105,0.072
						c-0.703-0.051-1.433-0.099-2.204-0.072c-0.71,0.024-1.413,0.348-2.221,0.348C34.404,92.221,34.121,92.187,33.82,92.092
						 M21.147,91.133c-0.184-0.771,0.607-1.938,1.02-2.754c0.427-0.836,1.099-1.679,1.409-2.238c0.263-0.498,0.416-1.3,0.652-1.696
						c0.276-0.519,0.833-0.846,1.215-1.372c0.573-0.826,1.075-1.935,1.672-2.866c0.317-0.474,0.529-1.034,0.839-1.488
						c0.304-0.447,0.73-0.74,1.01-1.164c0.72-1.017,1.041-2.426,2.252-2.866c0.229-1.256,1.29-1.764,1.948-2.655
						c0.621-0.816,0.911-2.047,2.054-2.334c0.311-0.628,0.645-1.235,0.935-1.914c1.054-0.433,1.263-1.406,1.959-2.419
						c0.338-0.512,0.928-0.816,1.215-1.286c0.283-0.45,0.351-1.051,0.631-1.481c0.379-0.543,1.082-0.856,1.42-1.372
						c0.433-0.655,0.409-1.73,0.932-2.341c0.355-0.433,0.99-0.553,1.317-0.846c0.58-0.57,1.283-1.372,1.672-2.119
						c0.229-0.488,0.218-1.256,0.563-1.795c0.331-0.543,1.037-0.652,1.495-1.061c0.87-0.839,1.559-2.894,2.515-4.248
						c0.553-0.809,1.348-1.525,2.051-2.447c0.682-0.911,1.576-1.406,2.235-2.225c0.43-0.532,0.669-1.225,1.02-1.696
						c0.386-0.519,0.966-0.816,1.31-1.273c0.686-0.928,1.013-2.116,2.146-2.651c0.143-1.478,1.532-1.686,2.232-2.651
						c0.235-0.331,0.297-0.911,0.556-1.379c0.338-0.597,0.962-0.973,1.218-1.488c0.266-0.498,0.242-1.126,0.573-1.59
						c0.28-0.433,0.856-0.631,1.194-1.065c0.334-0.423,0.423-1.082,0.761-1.59c0.311-0.488,0.88-0.761,1.187-1.269
						c0.304-0.471,0.406-1.075,0.672-1.491c0.375-0.556,0.993-0.775,1.297-1.259c0.338-0.508,0.386-1.259,0.734-1.699
						c0.392-0.447,1.29-0.652,1.781-1.167c0.283-0.287,0.396-0.737,0.665-1.054c0.375-0.474,0.86-0.771,1.211-1.28
						c0.669-0.996,1.225-1.959,2.051-2.87c0.618-0.669,1.819,0.311,2.416,0.966c0.403,0.433,0.566,1.102,0.935,1.474
						c0.423,0.427,1.307,0.631,1.689,0.969c0.508,0.457,1.877,2.279,1.768,3.279c-0.119,0.897-0.925,1.017-1.583,1.59
						c-0.416,0.365-0.597,1.082-1.024,1.59c-0.375,0.45-1.01,0.689-1.317,1.058c-0.338,0.423-0.485,1.051-0.826,1.481
						c-0.406,0.495-1,0.788-1.413,1.273c-0.386,0.471-0.761,1.102-1.112,1.59c-0.788,1.075-1.355,2.399-2.153,3.283
						c-0.416,0.488-1.044,0.723-1.498,1.174c-0.594,0.621-1.048,1.416-1.665,2.122c-0.594,0.686-0.914,1.573-1.495,2.225
						c-0.304,0.351-0.812,0.512-1.129,0.85c-0.314,0.362-0.481,1.031-0.836,1.488c-0.351,0.471-0.894,0.713-1.205,1.17
						c-0.338,0.471-0.44,1.102-0.744,1.59c-0.297,0.444-0.816,0.727-1.129,1.17c-0.321,0.447-0.396,1.112-0.73,1.583
						c-0.358,0.512-1.085,0.897-1.501,1.488c-0.287,0.399-0.375,0.935-0.665,1.273c-0.386,0.488-1.048,0.713-1.478,1.167
						c-0.338,0.348-0.59,0.788-0.938,1.164c-0.771,0.826-1.283,1.686-2.047,2.662c-0.372,0.447-0.85,0.785-1.208,1.259
						c-0.481,0.638-0.73,1.522-1.133,2.232c-0.386,0.679-0.891,1.273-1.382,1.911c-1.065,1.341-1.628,2.873-2.529,4.132
						c-0.351,0.495-0.863,0.737-1.211,1.164c-0.515,0.638-0.734,1.488-1.304,2.02c-0.321,0.317-0.816,0.413-1.112,0.737
						c-0.365,0.399-0.556,1.116-0.952,1.6c-0.351,0.447-0.901,0.713-1.29,1.16c-0.276,0.311-0.467,0.822-0.758,1.174
						c-0.485,0.573-1.099,0.928-1.399,1.368c-0.297,0.474-0.386,1.078-0.727,1.488c-0.321,0.355-0.771,0.427-1.133,0.751
						c-0.522,0.461-1.003,1.413-1.495,2.225c-0.467,0.771-0.703,1.829-1.194,2.552c-0.597,0.812-1.604,1.116-2.16,1.795
						c-0.529,0.655-0.744,1.491-1.304,2.02c-0.293,0.27-0.788,0.314-1.112,0.628c-0.379,0.365-0.628,1.044-1.041,1.491
						c-0.396,0.447-0.966,0.723-1.205,1.054c-0.522,0.74-0.648,1.791-1.307,2.334c-0.607,0.304-2.539,0.669-4.224,0.669
						C22.525,92.112,21.307,91.863,21.147,91.133 M74.485-1.884c-0.276,0.839-0.119,1.867-0.379,2.651
						c-0.317,1.013-1.935,2.747-2.696,3.501c-0.351,0.348-0.897,0.56-1.123,0.949c-0.57,0.996-0.334,1.856-1.228,2.013
						c-0.409,0.075-0.515-0.034-0.682-0.143c-0.143-0.085-0.334-0.188-0.798-0.164c-0.522,0.693-0.147,1.662-0.287,2.433
						c-0.16,1.068-1.082,2.29-1.863,2.334c-0.256,0.024-0.515-0.13-0.781-0.276c-0.311-0.171-0.635-0.341-0.986-0.256
						c-1.576,0.386-0.928,3.436-0.556,5.088c-1.133,0.795-2.143,1.754-3.095,2.771c-3.45,0.826-5.559,3.201-6.599,6.78
						c-1.205,0.788-2.153,1.136-2.986,2.01c-1.87,1.986-2.099,6.879-4.484,8.067c-0.508,0.253-1.273,0.123-1.764,0.423
						c-0.433,0.256-0.812,1.078-1.297,1.914c-0.423,0.679-1.051,1.286-1.413,1.901c-0.648,1.112-0.764,2.535-1.215,3.61
						c-0.239,0.566-0.611,0.836-0.74,1.273c-0.563,1.778,0.369,3.743-0.665,4.88c-2.464-0.232-3.648,1.003-5.217,1.805
						c-1.256,1.348-1.976,3.358-3.351,4.344c-0.983,0.693-1.969,0.795-2.515,1.696c-0.392,0.621-0.331,1.696-0.85,2.539
						c-0.287,0.498-0.891,0.614-1.304,1.065c-0.665,0.74-0.703,1.638-1.116,2.546c-0.191,0.328,0.392,0.689,0.191,1.392
						c-0.201,0.171-0.454,0.119-0.703,0.058c-0.143-0.027-0.283-0.068-0.416-0.058c-1.996,3.754-4.047,7.231-6.627,11.128
						c-1.095,1.648-2.18,3.515-3.365,5.514c-1.024,1.747-2.631,3.951-2.795,6.258c-0.078,1.273,0.109,2.866,0.467,3.61
						c0.266,0.532,0.945,0.706,1.208,1.263c0.205,0.413,0.147,1.017,0.28,1.389c0.273,0.727,0.826,1.655,1.416,2.122
						c0.45,0.372,1.16,0.471,1.764,0.846c0.525,0.317,0.87,1.007,1.399,1.164c0.727,0.215,1.703,0.208,2.59,0.205
						c0.229,0,0.454,0,0.672,0c0.481,0.014,0.966-0.051,1.454-0.113c0.597-0.072,1.205-0.147,1.805-0.092
						c0.379,0.038,0.727,0.256,1.133,0.324c2.204,0.293,5.586-0.119,6.801,1.263c1.59-0.075,3.324-0.038,5.067,0.003
						c3.518,0.082,7.046,0.16,9.387-0.74c0.515,1.126,1.252,0.532,2.051,0.423c1.286-0.181,3.126,0,4.931,0
						c1.652,0,3.467-0.191,5.033,0c0.433,0.058,0.887,0.28,1.304,0.314c0.614,0.065,1.218,0.027,1.812-0.003
						c0.655-0.041,1.3-0.085,1.925,0.003c0.925,0.143,1.88,0.522,2.89,0.638c1.86,0.205,4.105,0,6.255,0c2.204,0,4.562,0.27,6.248,0
						c0.601-0.096,1.218-0.556,1.768-0.638c2.177-0.324,4.661,0,7.006,0h13.984c2.402,0,4.938,0.348,7.081,0
						c0.577-0.085,1.549-0.856,2.238-0.631c0.348,0.109,0.3,0.495,0.553,0.74c0.689,0.703,3.835,0.826,4.955,0.433
						c0.73-0.27,1.143-1.28,1.969-1.498c1.382-0.375,3.088,0,4.549,0h4.579c0.43-0.205,0.546-0.788,0.932-1.054
						c0.471,0.174,0.976,0.133,1.505,0.096c0.416-0.034,0.843-0.068,1.29,0.01c0.614,0.109,1.143,0.546,1.665,0.642
						c1.938,0.287,4.6,0.338,5.794-0.324c1.15-0.642,1.532-1.983,2.334-2.969c-0.188-1.89,0.246-2.952,0-4.351
						c-0.205-1.15-1.215-1.877-1.399-2.856c-0.137-0.809,0.191-1.815,0-2.774c-0.164-0.727-1.399-2.068-1.884-2.324
						c-0.822-0.45-2.034-0.348-2.791-0.955c-0.324-0.28-0.519-0.57-0.553-1.382c-1.338-0.198-1.549-1.491-2.235-2.433
						c-0.396-0.543-0.863-0.973-1.119-1.488c-0.201-0.396-0.229-0.973-0.471-1.382c-0.43-0.764-1.375-1.112-1.863-1.805
						c-0.246-0.338-0.321-0.833-0.56-1.164c-0.604-0.795-1.437-1.191-2.146-1.693c-0.461-0.993-1.379-1.498-2.051-2.334
						c-0.293-0.365-0.427-0.908-0.734-1.269c-0.464-0.532-1.167-0.788-1.6-1.382c-0.334-0.485-0.403-1.136-0.727-1.587
						c-1.013-1.392-2.303-2.443-3.559-3.511c-0.498-0.904-0.853-1.928-1.495-2.638c-0.433-0.508-1.116-0.751-1.478-1.283
						c-0.208-0.314-0.235-0.74-0.464-1.061c-0.341-0.45-1.01-0.764-1.495-1.273c-0.413-0.427-0.682-1.068-1.027-1.382
						c-0.396-0.348-0.973-0.413-1.307-0.839c-0.413-0.529-0.444-1.372-0.836-1.904c-0.423-0.566-1.14-0.74-1.583-1.273
						c-0.403-0.485-0.556-1.194-0.952-1.6c-0.488-0.536-1.252-0.604-1.757-1.167c-0.44-0.481-0.536-1.201-0.949-1.696
						c-0.444-0.56-1.304-0.7-1.751-1.269c-0.317-0.375-0.375-0.996-0.652-1.382c-0.409-0.556-1.065-0.812-1.413-1.379
						c-0.287-0.464-0.351-1.065-0.638-1.478c-0.351-0.485-1.082-0.727-1.498-1.273c-0.788-1.013-1.02-2.201-2.334-2.443
						c-0.536-1.382-1.59-2.208-2.433-3.283c-0.351-0.471-0.553-1.126-0.932-1.6c-0.369-0.461-0.993-0.761-1.396-1.269
						c-0.379-0.508-0.556-1.198-0.925-1.696c-0.3-0.396-0.768-0.73-1.119-1.167c-0.3-0.389-0.539-0.983-0.843-1.273
						c-0.369-0.355-0.938-0.437-1.304-0.85c-0.502-0.543-0.553-1.546-1.027-2.119c-0.734-0.887-2.126-0.833-2.887-1.693
						c-0.638-1.42-1.041-2.883-2.054-4.132c-0.293-0.375-0.795-0.57-1.119-0.969c-0.454-0.536-0.723-1.433-1.205-2.109
						c-0.276-0.372-0.819-0.706-1.133-1.164c-0.43-0.638-0.553-1.147-1.02-1.389c-2.102-1.092-3.358,3.45-4.378,4.774
						c-0.372,0.498-1.031,0.826-1.402,1.382c-0.297,0.427-0.362,0.966-0.648,1.368c-0.423,0.614-1.068,0.884-1.409,1.389
						c-0.249,0.399-0.283,0.979-0.556,1.379c-0.362,0.546-1.007,0.816-1.413,1.372c-0.235,0.365-0.276,0.884-0.543,1.283
						c-0.973,1.42-2.385,2.651-3.279,4.132c-0.181,0.338-0.263,0.816-0.447,1.16c-0.287,0.464-0.788,0.816-1.123,1.273
						c-0.372,0.508-0.556,1.187-0.843,1.59c-0.423,0.566-1.112,0.816-1.484,1.382c-0.372,0.546-0.522,1.522-0.85,1.901
						c-0.461,0.546-1.3,0.631-1.771,1.068c-0.635,0.584-1.143,1.566-1.764,2.334c-0.648,0.778-1.099,1.815-1.682,2.546
						c-0.403,0.485-0.955,0.74-1.304,1.273c-0.259,0.379-0.317,0.863-0.563,1.273c-0.379,0.662-1.051,1.102-1.392,1.693
						c-0.246,0.42-0.239,0.983-0.478,1.382c-0.222,0.362-0.72,0.74-1.024,1.167c-0.365,0.464-0.635,1.037-0.932,1.379
						c-0.409,0.461-1.167,0.727-1.495,1.28c-0.601,1.013-0.72,2.508-1.945,2.641c-0.433,1.379-1.153,2.092-1.969,2.976
						c-0.379,0.42-0.751,0.979-1.106,1.273c-0.406,0.29-0.935,0.355-1.307,0.751c-0.628,0.621-1.327,1.778-1.781,2.638
						c-0.249,0.481-0.293,1.112-0.57,1.59c-0.256,0.488-0.85,0.761-1.198,1.28c-0.375,0.536-0.471,1.331-0.843,1.914
						c-0.3,0.471-1,0.884-1.31,1.478c-0.321,0.645-0.372,1.549-0.747,1.911c-0.317,0.317-1.133,0.355-1.576,0.737
						c-0.392,0.341-0.713,1.191-1.222,1.809c-0.467,0.57-0.891,1.099-1.297,1.693c-0.826,1.198-2,2.276-2.621,3.392
						c-0.396,0.73-0.464,1.672-0.839,2.334c-0.321,0.59-0.962,0.894-1.382,1.491c-0.751,0.955-1.344,2.709-2.713,2.436
						c-0.607-0.119-1.355-1.512-1.413-2.225c-0.099-1.478,1.143-3.429,0.467-4.456c0.826-1.044,2.198-1.474,2.522-3.085
						c1.358-0.106,1.43-1.15,2.153-2.218c0.321-0.481,0.856-0.85,1.116-1.28c0.529-0.942,0.553-1.928,1.112-2.433
						c0.86-0.785,1.901-0.73,1.969-2.119c0.034-0.983-0.874-1.747-0.293-2.662c1.29,0.246,2.215,0.437,3.184-0.423
						c0.703-0.621,1.116-1.6,1.955-2.648c0.747-0.969,1.73-1.645,2.126-2.552c0.379-0.775,0.287-1.699,0.764-2.225
						c0.365-0.413,0.918-0.379,1.3-0.642c0.819-0.556,1.01-1.365,1.59-2.01c0.058-3.644,3.15-3.839,4.474-6.047
						c0.167-0.973,0.304-1.839,1.129-2.225c0.348-0.167,0.781,0,1.116-0.215c0.488-0.304,0.56-1.099,1.123-1.802
						c0.229-0.3,0.747-0.485,0.928-0.85c0.389-0.833,0.297-1.962,0.553-2.969c-0.314-0.618-0.72-1.631-0.461-2.546
						c1.877-0.481,3.358-0.795,4.47-2.334c0.13-0.171,0.154-0.553,0.28-0.737c0.372-0.594,1.031-1.112,1.495-1.706
						c0.529-0.669,1.205-1.273,1.491-1.805c0.304-0.57,0.351-1.293,0.655-1.901c0.519-1.089,1.675-2.01,2.604-2.662
						c0.727-0.495,1.6-0.737,2.242-1.379c1.31-1.331,1.563-3.835,2.153-5.726c2.238-0.01,3.262-1.443,4.194-2.958
						c2.392-0.119,2.389-2.754,3.822-4.562c0.72-0.932,1.959-1.573,2.604-2.341c0.491-0.573,1.058-1.583,1.689-2.433
						c0.488-0.689,1.058-2.17,1.675-2.436c2.146-0.955,2.109,1.682,2.996,2.648c0.396,0.471,1.078,0.549,1.484,0.959
						C82.76,6.49,82.76,7.22,83.429,7.439c0.355,0.208,1.017,0.051,1.307,0.324c0.645,0.628,0.505,2.6,1.198,3.388
						c0.403,0.433,1.6,0.822,2.16,0.324c0.491-0.461,0.672-3.873,0.365-4.77c-0.276-0.802-1.112-0.798-1.768-1.273
						c-0.758-0.57-0.798-1.498-1.399-2.443c-0.235-0.396-0.795-0.949-1.208-1.481c-0.44-0.549-0.863-1.167-1.307-1.382
						c-0.519-0.242-1.211-0.109-1.689-0.525c-0.222-0.215-0.556-0.88-0.822-1.273c-0.751-1.085-1.907-2.996-3.259-3.078
						c-0.007,0-0.014,0-0.02,0C76.263-4.75,74.823-2.921,74.485-1.884"/>
				</defs>
				<clipPath id="SVGID_2_">
					<use xlink:href="#SVGID_1_"  overflow="visible"/>
				</clipPath>
				
					<linearGradient id="SVGID_3_" gradientUnits="userSpaceOnUse" x1="-332.1015" y1="555.4677" x2="-327.9238" y2="555.4677" gradientTransform="matrix(-29.7993 0 0 29.7993 -9759.7881 -16504.3848)">
					<stop  offset="0" style="stop-color:#B51A1D"/>
					<stop  offset="0.1616" style="stop-color:#B61E1D"/>
					<stop  offset="0.3295" style="stop-color:#BB2B1D"/>
					<stop  offset="0.5003" style="stop-color:#C13F1D"/>
					<stop  offset="0.672" style="stop-color:#CB5C1C"/>
					<stop  offset="0.773" style="stop-color:#D2711C"/>
					<stop  offset="1" style="stop-color:#D2711C"/>
				</linearGradient>
				<rect x="2.451" y="-4.75" clip-path="url(#SVGID_2_)" fill="url(#SVGID_3_)" width="138.714" height="105.826"/>
			</g>
		</g>
	</g>
</g>
</svg>
