<?xml version="1.0" encoding="utf-8"?>
<!-- Generator: Adobe Illustrator 17.0.0, SVG Export Plug-In . SVG Version: 6.00 Build 0)  -->
<!DOCTYPE svg PUBLIC "-//W3C//DTD SVG 1.1//EN" "http://www.w3.org/Graphics/SVG/1.1/DTD/svg11.dtd">
<svg version="1.1" id="Capa_1" xmlns="http://www.w3.org/2000/svg" xmlns:xlink="http://www.w3.org/1999/xlink" x="0px" y="0px"
	 width="32px" height="32px" viewBox="56 34 32 32" enable-background="new 56 34 32 32" xml:space="preserve">
<g id="isotipo">
	<g>
		<g>
			<g>
				<defs>
					<path id="SVGID_1_" d="M57.236,56.523c0.087,0.129,0.187,0.359,0.386,0.365c0.055,0.001,0.157-0.079,0.239-0.079
						c0.077,0.001,0.113,0.062,0.165,0.047c0.233-0.058,0.336-0.399,0.118-0.616c-0.098-0.016-0.177-0.062-0.254-0.106
						C57.519,56.179,57.282,56.106,57.236,56.523 M56.822,55.911c-0.191,0.307,0.088,0.767,0.382,0.449
						c0.064-0.118,0.023-0.32-0.001-0.511c-0.031-0.033-0.072-0.047-0.118-0.047C56.99,55.802,56.881,55.858,56.822,55.911
						 M57.897,54.164c-0.016,0.024-0.075,0.018-0.055,0.077c0.271,0.228,0.523,0.487,0.768,0.753
						c0.07-0.003,0.142,0.001,0.211,0.006c0.22,0.013,0.413,0.028,0.44-0.211c0.032-0.265-0.192-0.287-0.283-0.401
						c-0.089-0.112-0.096-0.288-0.185-0.391c-0.064-0.084-0.229-0.121-0.306-0.215c-0.053-0.064-0.056-0.152-0.101-0.194
						c-0.033-0.031-0.114-0.018-0.148-0.047c-0.048-0.047-0.059-0.186-0.124-0.194C57.746,53.349,57.681,53.949,57.897,54.164
						 M85.537,53.101c-0.281,0.094-0.145,0.498,0.059,0.506c0.166,0.006,0.243-0.126,0.24-0.26
						c-0.001-0.131-0.077-0.262-0.214-0.262C85.596,53.086,85.568,53.091,85.537,53.101 M57.601,51.375
						c-0.024,0.425,0.344,0.441,0.552,0.634c0.146,0.134,0.191,0.294,0.314,0.287c0.197-0.096,0.404-0.173,0.629-0.174
						c-0.033,0.063-0.015,0.16-0.025,0.239c0.146,0.123,0.064,0.362,0.145,0.648c0.07,0.119,0.279,0.014,0.348,0.139
						c-0.028,0.375,0.413,0.407,0.64,0.289c0.001,0.102,0.055,0.12,0.089,0.17c0.122-0.143,0.181-0.331,0.247-0.517
						c-0.061-0.016-0.137-0.006-0.174-0.061c-0.227-0.37-0.577-0.554-0.884-0.8c0.041-0.065-0.019-0.132-0.032-0.204
						c-0.11-0.118-0.222,0.001-0.348,0.001c-0.248,0.002-0.328-0.199-0.455-0.421c-0.214-0.024-0.347-0.178-0.433-0.401
						c-0.078-0.04-0.185-0.067-0.287-0.067C57.764,51.138,57.612,51.202,57.601,51.375 M85.292,49.93
						c-0.277,0.094-0.158,0.53,0.101,0.504c0.243-0.024,0.272-0.522-0.004-0.522C85.36,49.913,85.327,49.918,85.292,49.93
						 M58.523,48.872c0,0.101,0.122,0.428,0.234,0.582c0.14,0.2,0.389,0.302,0.566,0.493c0.189,0.2,0.356,0.44,0.554,0.634
						c0.211,0.213,0.455,0.377,0.619,0.552c0.326,0.348,0.391,1.043,1.003,0.612c0.268-0.191,0.444-0.625,0.295-1.11
						c-0.092-0.084-0.159-0.216-0.268-0.273c-0.231-0.03-0.467-0.058-0.742-0.013c-0.258-0.316-0.698-0.338-0.965-0.645
						c-0.163-0.192-0.251-0.447-0.415-0.685c-0.22,0.016-0.324-0.367-0.481-0.438c-0.037-0.018-0.078-0.027-0.121-0.027
						C58.658,48.554,58.511,48.659,58.523,48.872 M80.242,47.562c-0.105,0.138-0.155,0.461-0.084,0.713
						c0.019,0.072,0.113,0.179,0.223,0.322c0.176,0.234,0.227,0.444,0.504,0.458c0.186,0.104,0.213,0.404,0.364,0.577
						c0.058,0.063,0.186,0.097,0.264,0.184c0.145,0.163,0.177,0.483,0.342,0.552c0.22,0.084,0.261,0.113,0.407,0.23
						c0.206,0.167,0.421,0.308,0.481,0.596c0.024,0.111-0.021,0.315,0.061,0.482c0.092,0.196,0.306,0.115,0.404,0.231
						c0.106,0.131,0.054,0.41,0.161,0.53c0.112,0.042,0.179,0.129,0.325,0.135c0.206,0.23,0.221,0.485,0.343,0.738
						c0.098,0.2,0.305,0.339,0.484,0.526c0.115,0.121,0.189,0.285,0.282,0.392c0.148,0.163,0.348,0.26,0.465,0.436
						c0.201,0.291,0.353,0.66,0.427,1.079c0.178,0.155,0.364,0.305,0.605,0.391c0.07-0.078,0.18-0.113,0.263-0.184
						c0.123-0.845-0.326-1.039-0.545-1.494c-0.05-0.05-0.126-0.074-0.203-0.092c-0.044-0.101-0.115-0.172-0.161-0.274
						c-0.207-0.178-0.395-0.325-0.465-0.596c-0.038-0.157-0.015-0.319-0.038-0.484c-0.021-0.108-0.153-0.226-0.227-0.347
						c-0.07-0.118-0.129-0.265-0.18-0.343c-0.151-0.237-0.339-0.257-0.607-0.367c-0.134-0.147-0.145-0.321-0.282-0.46
						c-0.081-0.081-0.228-0.087-0.323-0.183c-0.275-0.281-0.265-1.023-0.727-1.126c-0.052-0.01-0.1-0.005-0.144,0.001
						c-0.064,0.009-0.123,0.018-0.18-0.024c-0.274-0.202,0.027-0.848-0.219-1.081c-0.105-0.06-0.206-0.121-0.288-0.207
						c-0.228-0.249-0.404-0.798-0.643-1.01c-0.085-0.075-0.214-0.084-0.286-0.162c-0.112-0.121-0.145-0.396-0.323-0.415
						c-0.005,0-0.011-0.001-0.017-0.001C80.551,47.284,80.306,47.476,80.242,47.562 M61.374,46.774
						c-0.104,0.021-0.101,0.148-0.199,0.218c0.095,0.147,0.186,0.296,0.213,0.546c0.155,0.141,0.375,0.191,0.478,0.412
						c0.399,0.107,0.618,0.577,0.887,0.9c0.064,0.078,0.137,0.092,0.186,0.18c0.064,0.116,0.073,0.275,0.132,0.396
						c0.162,0.172,0.405,0.092,0.674,0.008c0.185-0.285,0.428-0.696,0.194-1.214c-0.376-0.019-0.678-0.336-1.097-0.126
						c-0.251-0.214-0.538-0.392-0.625-0.784c-0.052-0.067-0.291-0.105-0.367-0.171c-0.033-0.024-0.02-0.104-0.057-0.129
						c-0.046-0.03-0.121-0.008-0.171-0.042c-0.126-0.089-0.126-0.197-0.219-0.197C61.394,46.77,61.385,46.77,61.374,46.774
						 M60.602,46.481c-0.197,0.309,0.086,0.767,0.382,0.448c0.064-0.116,0.024-0.318,0-0.509c-0.031-0.034-0.072-0.047-0.118-0.047
						C60.772,46.373,60.662,46.429,60.602,46.481 M84.261,46.345c-0.488,0.162,0.23,0.877,0.304,0.297
						c0.024-0.197-0.07-0.315-0.209-0.315C84.326,46.328,84.294,46.333,84.261,46.345 M80.841,45.085
						c-0.003,0.25,0.226,0.234,0.326,0.367c0.047,0.27,0.218,0.391,0.367,0.529c0.299,0.289,0.552,0.674,0.764,1.034
						c0.19,0.209,0.875,0.417,0.73-0.139c-0.041-0.145-0.226-0.131-0.347-0.23c-0.121-0.1-0.134-0.244-0.239-0.321
						c0.01-0.241-0.14-0.302-0.186-0.482c-0.041-0.035-0.106-0.045-0.141-0.092c-0.104-0.367-0.421-0.486-0.687-0.666
						c-0.07-0.26-0.242-0.413-0.424-0.554c-0.05-0.018-0.095-0.024-0.136-0.024C80.518,44.507,80.487,45.078,80.841,45.085
						 M61.752,43.863c-0.026,0.223,0.041,0.336,0.101,0.457c0.35,0.075,0.356,0.545,0.687,0.645c0.021,0.072,0.033,0.158,0.08,0.207
						c0.052,0.047,0.146,0.048,0.203,0.091c0,0.1-0.008,0.207,0.018,0.277c0.132,0.146,0.235,0.064,0.365,0.113
						c0.256,0.101,0.279,0.472,0.546,0.506c0.193,0.177,0.251,0.512,0.383,0.759c0.323,0.055,0.456-0.11,0.649-0.209
						c0.144-0.234,0.05-0.641-0.143-0.755c-0.031-0.003-0.048,0.01-0.064,0.023c-0.019,0.016-0.038,0.03-0.074,0.021
						c-0.254-0.18-0.505-0.36-0.611-0.711c-0.255-0.114-0.694-0.021-0.829-0.276c0.024-0.146-0.059-0.375-0.059-0.575
						c-0.404-0.026-0.585-0.632-1.011-0.633C61.921,43.804,61.842,43.823,61.752,43.863 M82.381,43.177
						c-0.496,0.17,0.227,0.882,0.299,0.297c0.024-0.18-0.044-0.317-0.194-0.317C82.455,43.157,82.42,43.164,82.381,43.177
						 M63.587,43.146c0.149-0.03,0.192,0.191,0.302,0.275c0.153,0.118,0.423,0.204,0.566,0.103c-0.009,0.029-0.016,0.062-0.02,0.098
						c0.033,0.039,0.132,0.021,0.157,0.069c-0.013,0.057-0.019,0.111,0.003,0.141c0.169,0.136,0.226,0.283,0.376,0.47
						c0.095,0.121,0.227,0.223,0.249,0.339c0.021,0.168-0.081,0.319,0.001,0.512c0.106-0.013,0.211,0.004,0.314,0.021
						c0.101,0.016,0.199,0.034,0.291,0.021c0.179-0.026,0.563-0.482,0.598-0.609c0.043-0.129-0.02-0.284,0.029-0.436
						c-0.12-0.202-0.515-0.163-0.63-0.372c-0.038-0.006-0.081-0.011-0.12-0.018c-0.157-0.202-0.388-0.343-0.525-0.561
						c-0.241-0.011-0.498,0.023-0.637,0.171c0.051-0.268-0.174-0.402-0.167-0.591c-0.112-0.01-0.189-0.248-0.362-0.277
						c-0.028-0.004-0.055-0.007-0.082-0.007C63.593,42.495,63.334,42.861,63.587,43.146 M62.21,41.629
						c0.054,0.306,0.29,0.407,0.407,0.643c0.251,0.018,0.364-0.123,0.424-0.322c-0.184-0.131-0.346-0.412-0.586-0.412
						C62.381,41.538,62.301,41.564,62.21,41.629 M75.39,42.53c0.09,0.074,0.276,0.023,0.364,0.138
						c0.102,0.129,0.05,0.37,0.102,0.551c0.07,0.248,0.282,0.414,0.444,0.598c0.213,0.244,0.319,0.362,0.629,0.412
						c0.128,0.306,0.325,0.44,0.523,0.645c0.315,0.322,0.41,0.834,0.688,1.057c0.14,0.112,0.328,0.149,0.485,0.253
						c0.115,0.349,0.376,0.515,0.586,0.782c0.125,0.163,0.23,0.363,0.363,0.415c0.203,0.077,0.484,0.018,0.728-0.023
						c0.045-0.116,0.108-0.223,0.101-0.37c-0.02-0.441-0.399-0.393-0.666-0.62c-0.134-0.11-0.178-0.422-0.264-0.527
						c-0.084-0.102-0.233-0.111-0.322-0.208c-0.219-0.234-0.294-0.606-0.507-0.895c-0.192-0.268-0.534-0.415-0.79-0.553
						c-0.281-0.399-0.566-0.795-0.847-1.194c-0.089-0.018-0.195-0.021-0.261-0.068c-0.182-0.662-0.448-1.224-1.01-1.448
						C75.429,41.597,75.208,42.061,75.39,42.53 M80.217,41.202c-0.016,0.177,0.112,0.372,0.302,0.414
						c0.123,0.099,0.201,0.373,0.362,0.597c0.108,0.147,0.292,0.282,0.407,0.459c0.082,0.129,0.165,0.376,0.245,0.436
						c0.423,0.333,0.669-0.412,0.26-0.504c0.039-0.861-0.408-1.116-0.767-1.562c-0.093,0.01-0.203-0.013-0.314-0.037
						c-0.092-0.019-0.184-0.039-0.262-0.039C80.322,40.965,80.228,41.017,80.217,41.202 M64.721,40.553
						c-0.03,0.108,0.015,0.216,0.202,0.208c0.098,0.096,0.126,0.271,0.323,0.252c0.026,0.241,0.178,0.26,0.307,0.391
						c0.07,0.076,0.108,0.202,0.177,0.276c0.069,0.069,0.158,0.079,0.226,0.137c0.076,0.073,0.12,0.199,0.18,0.253
						c0.051,0.044,0.151,0.053,0.225,0.116c0.089,0.079,0.121,0.209,0.201,0.25c0.109,0.062,0.243,0.016,0.344,0.094
						c0.027,0.058,0.049,0.091,0.02,0.16c0.311,0.082,0.75,0.006,0.988-0.137c0.004-0.459-0.243-0.821-0.625-0.645
						c-0.322-0.137-0.634-0.289-0.887-0.504c-0.049-0.385-0.43-0.388-0.771-0.438c-0.101,0.063-0.207,0.089-0.284-0.023
						c0.045-0.055,0.073-0.133,0.084-0.229c-0.038-0.121-0.172-0.129-0.323-0.115c0.007-0.079-0.008-0.128-0.021-0.183
						c-0.044-0.052-0.09-0.073-0.138-0.073C64.846,40.344,64.749,40.449,64.721,40.553 M76.638,40.144
						c0.192,0.481,0.558,0.764,0.85,1.128c-0.012,0.096,0.015,0.152,0.019,0.228c0.205,0.229,0.464,0.077,0.648,0.301
						c0.1,0.118,0.1,0.336,0.201,0.459c0.098,0.112,0.241,0.141,0.324,0.276c0.06,0.095,0.064,0.223,0.121,0.319
						c0.053,0.087,0.164,0.155,0.24,0.253c0.086,0.105,0.134,0.246,0.203,0.322c0.114,0.119,0.221,0.17,0.306,0.297
						c0.136,0.212,0.266,0.419,0.484,0.509c0.072,0.006,0.129-0.005,0.182-0.023c0,0.163,0.001,0.234,0.059,0.296
						c0.206,0.236,0.38-0.009,0.405-0.255c0.021-0.216-0.073-0.435-0.365-0.317c-0.008-0.384-0.354-0.47-0.523-0.737
						c-0.197-0.301-0.299-0.632-0.528-0.897c-0.073-0.087-0.185-0.137-0.263-0.226c-0.199-0.236-0.325-0.543-0.646-0.623
						c-0.052,0.125-0.316,0.2-0.444,0.095c0.027-0.066,0.052-0.131,0.041-0.233c-0.106-0.155-0.048-0.402-0.062-0.69
						c-0.055-0.157-0.268-0.136-0.365-0.252c0.028-0.433-0.338-0.549-0.643-0.528c-0.05-0.197-0.135-0.271-0.22-0.271
						C76.442,39.575,76.225,40.066,76.638,40.144 M67.757,39.478c-0.199,0.07-0.199,0.225-0.126,0.351
						c-0.033,0.052-0.048,0.125-0.041,0.226c0.065,0.081,0.16,0.103,0.283,0.068c0.135,0.243,0.294,0.46,0.504,0.619
						c0,0.27,0.072,0.454,0.122,0.669c0.355,0.177,0.87,0.084,1.031-0.275c-0.064-0.223-0.033-0.548-0.183-0.667h-0.182
						c-0.342-0.237-0.666-0.487-1.129-0.589c0.013-0.029,0.02-0.063,0.021-0.102c0.024-0.183-0.044-0.32-0.194-0.32
						C67.831,39.459,67.796,39.465,67.757,39.478 M67.28,39.206c-0.495,0.171,0.23,0.884,0.303,0.299
						c0.024-0.182-0.047-0.319-0.197-0.319C67.354,39.186,67.319,39.192,67.28,39.206 M78.801,38.812
						c-0.174,0.013-0.278,0.211-0.203,0.414c0.041,0.099,0.195,0.133,0.262,0.23c0.089,0.123,0.101,0.341,0.203,0.482
						c0.05,0.068,0.149,0.081,0.222,0.162c0.169,0.183,0.195,0.44,0.387,0.483c0.264,0.65,0.792-0.359,0.384-0.553
						c0.024-0.023,0.057-0.037,0.078-0.068c-0.284-0.306-0.56-0.62-0.81-0.966c-0.087,0.018-0.181-0.035-0.274-0.089
						c-0.081-0.047-0.162-0.095-0.239-0.095C78.809,38.811,78.805,38.812,78.801,38.812 M84.524,59.214
						c-0.223-0.24-0.011-0.467,0.161-0.691c0.117-0.153,0.193-0.372,0.325-0.39c0.437-0.065,0.4,0.863,0.059,1.034
						c-0.093,0.048-0.174,0.062-0.276,0.062C84.719,59.229,84.633,59.221,84.524,59.214 M80.848,58.984
						c-0.035-0.249,0.432-0.531,0.485-0.734c0.326-0.04,0.471-0.336,0.663-0.575c0.088-0.105,0.194-0.184,0.267-0.277
						c0.077-0.106,0.124-0.245,0.199-0.345c0.173-0.217,0.404-0.323,0.486-0.599c0.275-0.055,0.409-0.402,0.728-0.365
						c0.166,0.018,0.367,0.342,0.461,0.46c0.108,0.129,0.363,0.407,0.366,0.551c0.001,0.128-0.122,0.2-0.222,0.321
						c-0.094,0.112-0.133,0.239-0.203,0.323c-0.161,0.182-0.334,0.268-0.505,0.389c-0.302,0.22-0.461,0.528-0.746,0.714
						c-0.193,0.055-0.397,0.027-0.651,0.045c-0.353,0.023-0.637,0.257-0.844,0.299c-0.035,0.007-0.072,0.011-0.108,0.011
						C81.049,59.202,80.863,59.121,80.848,58.984 M77.452,58.961c-0.027-0.223,0.055-0.451,0.16-0.598
						c0.1-0.132,0.339-0.192,0.486-0.367c0.148-0.176,0.182-0.467,0.465-0.484c0.183-0.348,0.506-0.541,0.666-0.918
						c0.253-0.158,0.422-0.464,0.606-0.736c0.073-0.104,0.163-0.17,0.24-0.275c0.114-0.141,0.158-0.325,0.308-0.436
						c0.072-0.055,0.176-0.076,0.242-0.139c0.105-0.096,0.15-0.274,0.262-0.367c0.082-0.066,0.209-0.087,0.302-0.162
						c0.295-0.225,0.452-0.819,0.932-0.438c0.067,0.055,0.098,0.173,0.181,0.278c0.076,0.091,0.209,0.16,0.284,0.251
						c0.069,0.094,0.1,0.197,0.183,0.301c0.121,0.16,0.253,0.26,0.243,0.414c-0.017,0.241-0.217,0.194-0.403,0.299
						c-0.132,0.069-0.194,0.28-0.344,0.459c-0.105,0.123-0.237,0.194-0.308,0.276c-0.072,0.089-0.134,0.216-0.221,0.321
						c-0.082,0.102-0.19,0.178-0.262,0.277c-0.082,0.109-0.116,0.257-0.203,0.344c-0.094,0.098-0.235,0.126-0.324,0.207
						c-0.074,0.07-0.105,0.203-0.18,0.299c-0.094,0.126-0.3,0.242-0.444,0.414c-0.143,0.171-0.246,0.388-0.363,0.504
						c-0.141,0.141-0.455,0.348-0.588,0.37c-0.117,0.016-0.237-0.02-0.365-0.057c-0.115-0.032-0.234-0.066-0.363-0.06
						c-0.272,0.01-0.557,0.099-0.825,0.099C77.691,59.037,77.569,59.018,77.452,58.961 M73.917,59.007
						c-0.023-0.187,0.178-0.299,0.302-0.414c0.221-0.205,0.292-0.39,0.544-0.506c0.4-0.577,0.916-1.014,1.295-1.61
						c0.241-0.152,0.44-0.354,0.565-0.643c0.265-0.021,0.355-0.345,0.504-0.528c0.072-0.087,0.195-0.157,0.286-0.252
						c0.084-0.095,0.154-0.226,0.24-0.301c0.131-0.11,0.311-0.152,0.444-0.276c0.112-0.097,0.157-0.271,0.263-0.389
						c0.081-0.089,0.207-0.142,0.282-0.231c0.072-0.086,0.113-0.218,0.184-0.301c0.138-0.152,0.338-0.224,0.463-0.388
						c0.093-0.12,0.138-0.265,0.223-0.369c0.086-0.102,0.205-0.155,0.283-0.253c0.169-0.213,0.187-0.572,0.647-0.457
						c0.14,0.092,0.209,0.267,0.281,0.436c0.13,0.121,0.326,0.163,0.364,0.345c0.045,0.21-0.101,0.593-0.221,0.736
						c-0.079,0.092-0.217,0.116-0.304,0.205c-0.112,0.116-0.14,0.296-0.222,0.368c-0.089,0.077-0.254,0.126-0.322,0.182
						c-0.154,0.129-0.274,0.352-0.427,0.53c-0.144,0.173-0.24,0.388-0.382,0.553c-0.082,0.095-0.209,0.118-0.302,0.205
						c-0.074,0.072-0.116,0.221-0.205,0.321c-0.089,0.105-0.217,0.162-0.284,0.252c-0.064,0.095-0.085,0.24-0.159,0.325
						c-0.067,0.076-0.185,0.091-0.262,0.158c-0.116,0.105-0.183,0.31-0.3,0.461c-0.114,0.14-0.277,0.226-0.368,0.344
						c-0.167,0.223-0.217,0.527-0.501,0.621c-0.088,0.237-0.305,0.336-0.509,0.506c-0.084,0.071-0.146,0.192-0.218,0.228
						c-0.375,0.199-1.098,0.123-1.558,0.233c-0.094,0.021-0.264,0.084-0.404,0.084C74.025,59.183,73.933,59.143,73.917,59.007
						 M70.221,58.984c0.02-0.146,0.14-0.183,0.339-0.367c0.126-0.113,0.178-0.278,0.265-0.344c0.1-0.084,0.238-0.105,0.342-0.184
						c0.267-0.207,0.574-0.674,0.827-0.989c0.084-0.098,0.189-0.171,0.245-0.252c0.074-0.109,0.098-0.246,0.182-0.346
						c0.074-0.089,0.184-0.129,0.264-0.206c0.087-0.085,0.138-0.218,0.22-0.323c0.074-0.092,0.186-0.163,0.263-0.252
						c0.085-0.101,0.14-0.242,0.223-0.345c0.101-0.132,0.246-0.239,0.383-0.367c0.126-0.118,0.223-0.294,0.342-0.39
						c0.073-0.061,0.174-0.071,0.243-0.139c0.092-0.089,0.124-0.238,0.202-0.343c0.064-0.087,0.182-0.153,0.263-0.254
						c0.082-0.104,0.138-0.24,0.226-0.323c0.164-0.16,0.375-0.253,0.523-0.412c0.081-0.087,0.14-0.228,0.222-0.322
						c0.084-0.098,0.194-0.162,0.263-0.254c0.059-0.076,0.078-0.199,0.14-0.276c0.088-0.103,0.225-0.152,0.305-0.252
						c0.092-0.115,0.134-0.292,0.243-0.388c0.057-0.055,0.166-0.095,0.243-0.163c0.225-0.192,0.328-0.523,0.524-0.622
						c0.06-0.03,0.16-0.005,0.243-0.043c0.106-0.052,0.173-0.211,0.283-0.299c0.177-0.147,0.545-0.423,0.828-0.276
						c0.172,0.089,0.228,0.328,0.362,0.483c0.166,0.092,0.417,0.089,0.507,0.275c-0.092,0.482-0.549,0.703-0.787,1.06
						c-0.078,0.109-0.102,0.244-0.183,0.341c-0.097,0.121-0.243,0.186-0.347,0.301c-0.132,0.16-0.295,0.336-0.422,0.504
						c-0.075,0.096-0.106,0.216-0.18,0.302c-0.142,0.153-0.344,0.23-0.489,0.388c-0.154,0.404-0.541,0.546-0.705,0.941
						c-0.268,0.035-0.326,0.359-0.486,0.529c-0.092,0.099-0.231,0.133-0.322,0.23c-0.226,0.242-0.365,0.596-0.688,0.714
						c-0.064,0.254-0.314,0.341-0.485,0.529c-0.085,0.092-0.132,0.249-0.221,0.344c-0.109,0.112-0.274,0.162-0.404,0.299
						c-0.162,0.168-0.243,0.394-0.404,0.483c-0.073,0.039-0.16,0.032-0.243,0.068c-0.214,0.094-0.413,0.368-0.645,0.506
						c-0.094,0.052-0.187,0.06-0.262,0.115c-0.203,0.143-0.334,0.397-0.527,0.529c-0.257-0.052-0.548,0.082-0.872,0.092
						c-0.094,0.003-0.218,0.013-0.342,0.013C70.453,59.295,70.183,59.25,70.221,58.984 M66.742,58.961
						c0.025-0.182,0.173-0.202,0.322-0.367c0.178-0.196,0.254-0.467,0.546-0.506c0.095-0.234,0.272-0.364,0.424-0.552
						c0.079-0.098,0.106-0.239,0.181-0.345c0.08-0.108,0.226-0.186,0.303-0.299c0.081-0.107,0.112-0.254,0.184-0.343
						c0.106-0.135,0.29-0.189,0.399-0.325c0.077-0.084,0.124-0.234,0.206-0.343c0.087-0.124,0.229-0.209,0.302-0.322
						c0.081-0.123,0.109-0.306,0.203-0.413c0.054-0.062,0.142-0.076,0.202-0.139c0.095-0.1,0.134-0.257,0.226-0.367
						c0.072-0.097,0.199-0.148,0.279-0.252c0.078-0.095,0.109-0.236,0.184-0.322c0.084-0.098,0.209-0.137,0.284-0.231
						c0.073-0.092,0.085-0.225,0.161-0.318c0.078-0.109,0.223-0.152,0.3-0.254c0.06-0.078,0.086-0.197,0.144-0.276
						c0.087-0.129,0.235-0.2,0.324-0.325c0.05-0.073,0.084-0.189,0.14-0.274c0.052-0.084,0.129-0.148,0.182-0.229
						c0.072-0.12,0.096-0.279,0.182-0.391c0.096-0.129,0.265-0.173,0.384-0.299c0.102-0.109,0.16-0.26,0.263-0.367
						c0.11-0.115,0.272-0.168,0.384-0.275c0.122-0.121,0.16-0.299,0.282-0.415c0.249-0.053,0.319-0.255,0.485-0.46
						c0.113-0.14,0.267-0.239,0.363-0.367c0.117-0.158,0.174-0.365,0.303-0.506c0.053-0.057,0.133-0.069,0.203-0.137
						c0.115-0.118,0.187-0.318,0.302-0.415c0.089-0.073,0.2-0.105,0.284-0.184c0.265-0.241,0.407-0.634,0.626-0.78
						c0.339-0.223,0.646,0.519,0.828,0.804c0.129,0.201,0.347,0.436,0.468,0.552c0.097,0.094,0.313,0.143,0.342,0.275
						c0.064,0.294-0.211,0.331-0.384,0.438c-0.176,0.107-0.351,0.331-0.528,0.504c-0.186,0.189-0.281,0.461-0.444,0.598
						c-0.074,0.063-0.186,0.072-0.263,0.136c-0.081,0.071-0.122,0.184-0.197,0.255c-0.118,0.103-0.246,0.145-0.348,0.228
						c-0.146,0.125-0.218,0.289-0.364,0.46c-0.087,0.109-0.221,0.169-0.322,0.277c-0.07,0.071-0.132,0.186-0.203,0.274
						c-0.07,0.087-0.159,0.147-0.223,0.231c-0.065,0.087-0.092,0.226-0.163,0.321c-0.104,0.139-0.278,0.223-0.401,0.365
						c-0.23,0.268-0.433,0.62-0.689,0.875c-0.126,0.128-0.279,0.213-0.402,0.345c-0.076,0.081-0.129,0.2-0.203,0.276
						c-0.089,0.087-0.206,0.12-0.283,0.206c-0.086,0.094-0.118,0.248-0.202,0.347c-0.074,0.086-0.186,0.121-0.262,0.206
						c-0.07,0.076-0.136,0.186-0.202,0.276c-0.138,0.186-0.3,0.328-0.425,0.506c-0.106,0.152-0.159,0.336-0.282,0.46
						c-0.066,0.066-0.158,0.101-0.223,0.16c-0.086,0.075-0.154,0.194-0.245,0.277c-0.089,0.081-0.203,0.123-0.279,0.205
						c-0.085,0.086-0.12,0.231-0.203,0.323c-0.093,0.098-0.234,0.141-0.324,0.229c-0.134,0.123-0.231,0.328-0.364,0.482
						c-0.073,0.086-0.178,0.144-0.245,0.228c-0.12,0.157-0.179,0.375-0.323,0.506c-0.151-0.016-0.279,0.089-0.443,0.118
						c-0.177,0.026-0.365,0.003-0.552-0.018c-0.145-0.018-0.287-0.035-0.421-0.03c-0.14,0.004-0.354,0.079-0.525,0.079
						C66.831,59.339,66.703,59.263,66.742,58.961 M63.428,59.308c-0.256-0.242-0.11-0.457,0.121-0.692
						c0.2-0.201,0.359-0.475,0.586-0.62c0.066-0.289,0.298-0.399,0.464-0.598c0.069-0.082,0.109-0.208,0.185-0.299
						c0.079-0.098,0.215-0.16,0.281-0.252c0.07-0.1,0.085-0.25,0.161-0.346c0.073-0.089,0.231-0.129,0.326-0.229
						c0.087-0.096,0.117-0.268,0.2-0.367c0.129-0.155,0.308-0.25,0.441-0.414c0.373-0.448,0.712-0.977,1.111-1.425
						c0.082-0.089,0.207-0.137,0.284-0.231c0.231-0.27,0.35-0.635,0.565-0.942c0.087-0.116,0.226-0.186,0.324-0.297
						c0.076-0.087,0.108-0.211,0.185-0.301c0.072-0.087,0.189-0.138,0.262-0.226c0.114-0.144,0.205-0.314,0.322-0.462
						c0.121-0.152,0.19-0.339,0.305-0.481c0.125-0.157,0.315-0.234,0.441-0.391c0.144-0.173,0.269-0.419,0.424-0.621
						c0.153-0.194,0.3-0.402,0.424-0.597c0.209-0.33,0.407-0.612,0.65-0.919c0.075-0.1,0.184-0.162,0.24-0.254
						c0.069-0.11,0.092-0.262,0.163-0.367c0.064-0.098,0.193-0.157,0.262-0.253c0.078-0.102,0.109-0.236,0.181-0.32
						c0.068-0.081,0.214-0.139,0.304-0.231c0.073-0.071,0.121-0.22,0.203-0.321c0.08-0.101,0.211-0.157,0.283-0.252
						c0.074-0.095,0.09-0.228,0.161-0.323c0.072-0.097,0.192-0.152,0.282-0.251c0.322-0.36,0.538-0.797,0.83-0.968
						c0.207-0.12,0.221,0.094,0.342,0.301c0.04,0.066,0.133,0.135,0.205,0.228c0.082,0.121,0.129,0.272,0.18,0.322
						c0.106,0.111,0.282,0.148,0.342,0.229c0.047,0.062,0.085,0.214,0.145,0.299c0.121,0.184,0.324,0.271,0.324,0.414
						c-0.005,0.223-0.26,0.175-0.488,0.321c-0.096,0.06-0.12,0.191-0.202,0.299c-0.117,0.157-0.35,0.254-0.444,0.368
						c-0.114,0.138-0.186,0.347-0.305,0.504c-0.108,0.153-0.206,0.322-0.322,0.46c-0.078,0.095-0.202,0.139-0.284,0.231
						c-0.102,0.115-0.146,0.287-0.262,0.388c-0.077,0.07-0.192,0.095-0.262,0.163c-0.086,0.084-0.122,0.223-0.201,0.321
						c-0.089,0.106-0.242,0.183-0.346,0.299c-0.098,0.116-0.162,0.265-0.26,0.37c-0.124,0.123-0.291,0.191-0.386,0.319
						c-0.061,0.087-0.077,0.208-0.14,0.299c-0.074,0.103-0.206,0.167-0.282,0.276c-0.055,0.069-0.072,0.182-0.122,0.252
						c-0.07,0.096-0.194,0.138-0.262,0.231c-0.101,0.131-0.117,0.335-0.223,0.457c-0.069,0.081-0.197,0.106-0.264,0.186
						c-0.087,0.098-0.101,0.272-0.181,0.368c-0.08,0.095-0.226,0.136-0.302,0.228c-0.082,0.09-0.132,0.226-0.203,0.325
						c-0.314,0.404-0.646,0.803-0.97,1.216c-0.106,0.135-0.237,0.236-0.343,0.367c-0.076,0.096-0.121,0.246-0.203,0.347
						c-0.061,0.073-0.163,0.108-0.223,0.181c-0.159,0.192-0.22,0.526-0.506,0.597c-0.055,0.26-0.291,0.384-0.424,0.6
						c-0.073,0.121-0.085,0.283-0.178,0.391c-0.084,0.091-0.229,0.121-0.304,0.228c-0.081,0.118-0.092,0.281-0.181,0.391
						c-0.166,0.123-0.342,0.172-0.488,0.297c-0.394,0.346-0.617,1.01-1.131,1.128c-0.218,0.05-0.438,0.032-0.673,0.016
						c-0.152-0.011-0.311-0.021-0.478-0.016c-0.154,0.005-0.306,0.075-0.481,0.075C63.555,59.336,63.493,59.328,63.428,59.308
						 M60.682,59.1c-0.04-0.167,0.132-0.42,0.221-0.597c0.092-0.181,0.238-0.364,0.305-0.485c0.057-0.108,0.09-0.282,0.141-0.367
						c0.06-0.112,0.18-0.183,0.263-0.297c0.124-0.179,0.233-0.419,0.362-0.621c0.069-0.103,0.115-0.224,0.182-0.322
						c0.066-0.097,0.158-0.16,0.219-0.252c0.156-0.22,0.226-0.526,0.488-0.621c0.05-0.272,0.279-0.382,0.422-0.575
						c0.135-0.177,0.197-0.444,0.445-0.506c0.067-0.136,0.14-0.268,0.203-0.415c0.228-0.094,0.274-0.305,0.424-0.524
						c0.073-0.111,0.201-0.177,0.263-0.279c0.061-0.098,0.076-0.228,0.137-0.321c0.082-0.118,0.234-0.186,0.308-0.297
						c0.094-0.142,0.089-0.375,0.202-0.507c0.077-0.094,0.214-0.12,0.285-0.183c0.126-0.123,0.278-0.297,0.362-0.459
						c0.05-0.106,0.047-0.272,0.122-0.389c0.072-0.118,0.225-0.141,0.324-0.23c0.189-0.182,0.338-0.627,0.545-0.921
						c0.12-0.175,0.292-0.331,0.444-0.53c0.148-0.197,0.342-0.305,0.484-0.482c0.093-0.115,0.145-0.265,0.221-0.367
						c0.084-0.112,0.209-0.177,0.284-0.276c0.149-0.201,0.22-0.458,0.465-0.575c0.031-0.32,0.332-0.365,0.484-0.575
						c0.051-0.072,0.064-0.197,0.121-0.299c0.073-0.129,0.209-0.211,0.264-0.322c0.058-0.108,0.052-0.244,0.124-0.345
						c0.061-0.094,0.186-0.137,0.259-0.231c0.072-0.092,0.092-0.234,0.165-0.345c0.067-0.106,0.191-0.165,0.257-0.275
						c0.066-0.102,0.088-0.233,0.146-0.323c0.081-0.121,0.215-0.168,0.281-0.273c0.073-0.11,0.084-0.273,0.159-0.368
						c0.085-0.097,0.279-0.141,0.386-0.253c0.061-0.062,0.086-0.16,0.144-0.228c0.081-0.103,0.186-0.167,0.262-0.277
						c0.145-0.216,0.265-0.424,0.444-0.622c0.134-0.145,0.394,0.067,0.523,0.209c0.087,0.094,0.123,0.239,0.203,0.319
						c0.092,0.092,0.283,0.137,0.366,0.21c0.11,0.099,0.407,0.494,0.383,0.711c-0.026,0.194-0.2,0.22-0.343,0.345
						c-0.09,0.079-0.129,0.234-0.222,0.345c-0.081,0.098-0.219,0.149-0.285,0.229c-0.073,0.092-0.105,0.228-0.179,0.321
						c-0.088,0.107-0.217,0.171-0.306,0.276c-0.084,0.102-0.165,0.239-0.241,0.345c-0.171,0.233-0.294,0.52-0.467,0.711
						c-0.09,0.106-0.226,0.157-0.325,0.254c-0.129,0.135-0.227,0.307-0.361,0.46c-0.129,0.149-0.198,0.341-0.324,0.482
						c-0.066,0.076-0.176,0.111-0.245,0.184c-0.068,0.078-0.104,0.223-0.181,0.322c-0.076,0.102-0.194,0.155-0.261,0.254
						c-0.073,0.102-0.095,0.239-0.161,0.345c-0.064,0.096-0.177,0.157-0.245,0.254c-0.07,0.097-0.086,0.241-0.158,0.343
						c-0.078,0.111-0.235,0.194-0.325,0.322c-0.062,0.087-0.081,0.203-0.144,0.276c-0.084,0.106-0.227,0.155-0.32,0.253
						c-0.073,0.075-0.128,0.171-0.203,0.252c-0.167,0.179-0.278,0.365-0.444,0.577c-0.081,0.097-0.184,0.17-0.262,0.273
						c-0.104,0.138-0.158,0.33-0.245,0.484c-0.084,0.147-0.193,0.276-0.299,0.414c-0.231,0.291-0.353,0.623-0.548,0.895
						c-0.076,0.107-0.187,0.16-0.262,0.252c-0.112,0.138-0.159,0.322-0.282,0.438c-0.07,0.069-0.177,0.089-0.241,0.16
						c-0.079,0.087-0.121,0.242-0.206,0.347c-0.076,0.097-0.195,0.155-0.279,0.251c-0.06,0.067-0.101,0.178-0.164,0.254
						c-0.105,0.124-0.238,0.201-0.303,0.296c-0.064,0.103-0.084,0.234-0.157,0.322c-0.07,0.077-0.167,0.092-0.245,0.163
						c-0.113,0.1-0.217,0.306-0.324,0.482c-0.101,0.167-0.152,0.396-0.259,0.553c-0.129,0.176-0.348,0.242-0.468,0.389
						c-0.115,0.142-0.161,0.323-0.282,0.438c-0.064,0.058-0.171,0.068-0.241,0.136c-0.082,0.079-0.136,0.226-0.226,0.323
						c-0.086,0.097-0.209,0.157-0.261,0.228c-0.113,0.16-0.14,0.388-0.283,0.506c-0.132,0.066-0.55,0.145-0.915,0.145
						C60.981,59.312,60.717,59.258,60.682,59.1 M72.24,38.945c-0.06,0.182-0.026,0.404-0.082,0.575
						c-0.069,0.22-0.419,0.595-0.584,0.759c-0.076,0.075-0.194,0.121-0.243,0.206c-0.123,0.216-0.072,0.402-0.266,0.436
						c-0.089,0.016-0.112-0.007-0.148-0.031c-0.031-0.018-0.072-0.041-0.173-0.035c-0.113,0.15-0.032,0.36-0.062,0.527
						c-0.035,0.231-0.234,0.496-0.404,0.506c-0.055,0.005-0.112-0.028-0.169-0.06c-0.067-0.037-0.138-0.074-0.214-0.055
						c-0.342,0.084-0.201,0.745-0.121,1.102c-0.245,0.172-0.464,0.38-0.671,0.6c-0.748,0.179-1.204,0.694-1.43,1.469
						c-0.261,0.171-0.467,0.246-0.647,0.436c-0.405,0.43-0.455,1.491-0.972,1.748c-0.11,0.055-0.276,0.027-0.382,0.092
						c-0.094,0.055-0.176,0.234-0.281,0.415c-0.092,0.147-0.228,0.279-0.306,0.412c-0.14,0.241-0.166,0.549-0.263,0.782
						c-0.052,0.123-0.132,0.181-0.16,0.276c-0.122,0.385,0.08,0.811-0.144,1.057c-0.534-0.05-0.79,0.217-1.131,0.391
						c-0.272,0.292-0.428,0.728-0.726,0.941c-0.213,0.15-0.427,0.172-0.545,0.367c-0.085,0.135-0.072,0.367-0.184,0.55
						c-0.062,0.108-0.193,0.133-0.282,0.231c-0.144,0.16-0.152,0.355-0.242,0.552c-0.041,0.071,0.085,0.149,0.041,0.302
						c-0.044,0.037-0.098,0.026-0.152,0.013c-0.031-0.006-0.061-0.015-0.09-0.013c-0.433,0.813-0.877,1.567-1.436,2.411
						c-0.237,0.357-0.472,0.762-0.729,1.195c-0.222,0.379-0.57,0.856-0.606,1.356c-0.017,0.276,0.024,0.621,0.101,0.782
						c0.058,0.115,0.205,0.153,0.262,0.274c0.044,0.089,0.032,0.22,0.061,0.301c0.059,0.157,0.179,0.359,0.307,0.46
						c0.098,0.081,0.251,0.102,0.382,0.183c0.114,0.069,0.189,0.218,0.303,0.252c0.157,0.047,0.369,0.045,0.561,0.044
						c0.05,0,0.098,0,0.146,0c0.104,0.003,0.209-0.011,0.315-0.024c0.129-0.016,0.261-0.032,0.391-0.02
						c0.082,0.008,0.157,0.055,0.245,0.07c0.478,0.064,1.21-0.026,1.474,0.274c0.345-0.016,0.72-0.008,1.098,0.001
						c0.762,0.018,1.527,0.035,2.034-0.16c0.112,0.244,0.271,0.115,0.444,0.092c0.279-0.039,0.677,0,1.068,0
						c0.358,0,0.751-0.041,1.091,0c0.094,0.013,0.192,0.061,0.282,0.068c0.133,0.014,0.264,0.006,0.393-0.001
						c0.142-0.009,0.282-0.018,0.417,0.001c0.2,0.031,0.407,0.113,0.626,0.138c0.403,0.044,0.889,0,1.355,0
						c0.478,0,0.989,0.058,1.354,0c0.13-0.021,0.264-0.121,0.383-0.138c0.472-0.07,1.01,0,1.518,0h3.03c0.521,0,1.07,0.075,1.534,0
						c0.125-0.018,0.336-0.186,0.485-0.137c0.075,0.024,0.065,0.107,0.12,0.16c0.149,0.152,0.831,0.179,1.074,0.094
						c0.158-0.058,0.248-0.277,0.427-0.325c0.299-0.081,0.669,0,0.986,0h0.992c0.093-0.044,0.118-0.171,0.202-0.228
						c0.102,0.038,0.211,0.029,0.326,0.021c0.09-0.007,0.183-0.015,0.279,0.002c0.133,0.024,0.248,0.118,0.361,0.139
						c0.42,0.062,0.997,0.073,1.255-0.07c0.249-0.139,0.332-0.43,0.506-0.643c-0.041-0.41,0.053-0.64,0-0.943
						c-0.044-0.249-0.263-0.407-0.303-0.619c-0.03-0.175,0.041-0.393,0-0.601c-0.035-0.157-0.303-0.448-0.408-0.504
						c-0.178-0.098-0.441-0.075-0.605-0.207c-0.07-0.061-0.112-0.123-0.12-0.299c-0.29-0.043-0.336-0.323-0.484-0.527
						c-0.086-0.118-0.187-0.211-0.243-0.322c-0.044-0.086-0.05-0.211-0.102-0.299c-0.093-0.166-0.298-0.241-0.404-0.391
						c-0.053-0.073-0.07-0.18-0.121-0.252c-0.131-0.172-0.311-0.258-0.465-0.367c-0.1-0.215-0.299-0.325-0.444-0.506
						c-0.064-0.079-0.092-0.197-0.159-0.275c-0.101-0.115-0.253-0.171-0.347-0.299c-0.072-0.105-0.087-0.246-0.157-0.344
						c-0.22-0.302-0.499-0.529-0.771-0.761c-0.108-0.196-0.185-0.418-0.324-0.572c-0.094-0.11-0.242-0.163-0.32-0.278
						c-0.045-0.068-0.051-0.16-0.101-0.23c-0.074-0.098-0.219-0.166-0.324-0.276c-0.089-0.092-0.148-0.231-0.223-0.299
						c-0.086-0.075-0.211-0.089-0.283-0.182c-0.089-0.115-0.096-0.297-0.181-0.413c-0.092-0.123-0.247-0.16-0.343-0.276
						c-0.087-0.105-0.121-0.259-0.206-0.347c-0.106-0.116-0.271-0.131-0.381-0.253c-0.095-0.104-0.116-0.26-0.206-0.367
						c-0.096-0.121-0.282-0.152-0.379-0.275c-0.069-0.081-0.081-0.216-0.141-0.299c-0.089-0.121-0.231-0.176-0.306-0.299
						c-0.062-0.101-0.076-0.231-0.138-0.32c-0.076-0.105-0.234-0.157-0.325-0.276c-0.171-0.22-0.221-0.477-0.506-0.529
						c-0.116-0.299-0.345-0.478-0.527-0.711c-0.076-0.102-0.12-0.244-0.202-0.347c-0.08-0.1-0.215-0.165-0.302-0.275
						c-0.082-0.11-0.121-0.26-0.2-0.367c-0.065-0.086-0.166-0.158-0.243-0.253c-0.065-0.084-0.117-0.213-0.183-0.276
						c-0.08-0.077-0.203-0.095-0.282-0.184c-0.109-0.118-0.12-0.335-0.223-0.459c-0.159-0.192-0.461-0.18-0.626-0.367
						c-0.138-0.308-0.226-0.625-0.445-0.895c-0.064-0.081-0.172-0.123-0.243-0.21c-0.098-0.116-0.157-0.311-0.261-0.457
						c-0.06-0.081-0.177-0.153-0.245-0.252c-0.093-0.138-0.12-0.248-0.221-0.301c-0.455-0.237-0.728,0.748-0.949,1.034
						c-0.081,0.108-0.223,0.179-0.304,0.299c-0.064,0.092-0.078,0.209-0.14,0.296c-0.092,0.133-0.231,0.192-0.305,0.301
						c-0.054,0.087-0.061,0.212-0.121,0.299c-0.078,0.118-0.218,0.177-0.306,0.297c-0.051,0.079-0.06,0.192-0.118,0.278
						c-0.211,0.308-0.517,0.575-0.711,0.895c-0.039,0.073-0.057,0.177-0.097,0.251c-0.062,0.101-0.171,0.177-0.243,0.276
						c-0.081,0.11-0.121,0.257-0.183,0.345c-0.092,0.123-0.241,0.177-0.322,0.299c-0.081,0.118-0.113,0.33-0.184,0.412
						c-0.1,0.118-0.282,0.137-0.384,0.231c-0.138,0.126-0.248,0.339-0.382,0.506c-0.14,0.169-0.238,0.393-0.365,0.552
						c-0.087,0.105-0.207,0.16-0.282,0.276c-0.056,0.082-0.069,0.187-0.122,0.276c-0.082,0.143-0.228,0.239-0.302,0.367
						c-0.053,0.091-0.052,0.213-0.104,0.299c-0.048,0.078-0.156,0.16-0.222,0.253c-0.079,0.101-0.138,0.225-0.202,0.299
						c-0.089,0.1-0.253,0.157-0.324,0.277c-0.13,0.22-0.156,0.543-0.421,0.572c-0.094,0.299-0.25,0.453-0.427,0.645
						c-0.082,0.091-0.163,0.212-0.24,0.276c-0.088,0.063-0.203,0.077-0.283,0.163c-0.136,0.135-0.288,0.385-0.386,0.572
						c-0.054,0.104-0.064,0.241-0.123,0.345c-0.055,0.106-0.184,0.165-0.26,0.277c-0.081,0.116-0.102,0.288-0.183,0.415
						c-0.065,0.102-0.217,0.192-0.284,0.32c-0.07,0.14-0.081,0.336-0.162,0.414c-0.069,0.069-0.245,0.077-0.342,0.16
						c-0.085,0.074-0.155,0.258-0.265,0.392c-0.101,0.123-0.193,0.238-0.281,0.367c-0.179,0.26-0.433,0.493-0.568,0.735
						c-0.086,0.158-0.101,0.362-0.182,0.506c-0.07,0.128-0.209,0.194-0.299,0.323c-0.163,0.207-0.291,0.587-0.588,0.528
						c-0.132-0.026-0.294-0.328-0.306-0.482c-0.021-0.32,0.248-0.743,0.101-0.966c0.179-0.226,0.476-0.319,0.546-0.668
						c0.294-0.023,0.31-0.249,0.467-0.481c0.07-0.104,0.186-0.184,0.242-0.277c0.115-0.204,0.12-0.418,0.241-0.527
						c0.186-0.17,0.412-0.158,0.427-0.459c0.007-0.213-0.189-0.379-0.064-0.577c0.279,0.053,0.48,0.095,0.69-0.092
						c0.152-0.135,0.242-0.347,0.424-0.574c0.162-0.21,0.375-0.356,0.461-0.553c0.082-0.168,0.062-0.368,0.166-0.482
						c0.079-0.089,0.199-0.082,0.282-0.139c0.177-0.121,0.219-0.296,0.345-0.436c0.013-0.79,0.682-0.832,0.969-1.31
						c0.036-0.211,0.066-0.399,0.245-0.482c0.075-0.036,0.169,0,0.242-0.047c0.106-0.066,0.121-0.238,0.243-0.39
						c0.05-0.065,0.162-0.105,0.201-0.184c0.084-0.18,0.064-0.425,0.12-0.643c-0.068-0.134-0.156-0.353-0.1-0.552
						c0.407-0.104,0.728-0.172,0.969-0.506c0.028-0.037,0.033-0.12,0.061-0.16c0.081-0.129,0.223-0.241,0.324-0.37
						c0.115-0.145,0.261-0.276,0.323-0.391c0.066-0.123,0.076-0.28,0.142-0.412c0.112-0.236,0.363-0.436,0.564-0.577
						c0.157-0.107,0.347-0.16,0.486-0.299c0.284-0.288,0.339-0.831,0.467-1.241c0.485-0.002,0.707-0.313,0.909-0.641
						c0.518-0.026,0.518-0.597,0.828-0.989c0.156-0.202,0.424-0.341,0.564-0.507c0.106-0.124,0.229-0.343,0.366-0.527
						c0.106-0.149,0.229-0.47,0.363-0.528c0.465-0.207,0.457,0.365,0.649,0.574c0.086,0.102,0.234,0.119,0.322,0.208
						c0.117,0.115,0.117,0.273,0.262,0.32c0.077,0.045,0.22,0.011,0.283,0.07c0.14,0.136,0.109,0.563,0.26,0.734
						c0.087,0.094,0.347,0.178,0.468,0.07c0.106-0.1,0.146-0.839,0.079-1.034c-0.06-0.174-0.241-0.173-0.383-0.276
						c-0.164-0.123-0.173-0.325-0.303-0.529c-0.051-0.086-0.172-0.206-0.262-0.321c-0.095-0.119-0.187-0.253-0.283-0.299
						c-0.112-0.052-0.262-0.024-0.366-0.114c-0.048-0.047-0.121-0.191-0.178-0.276c-0.163-0.235-0.413-0.649-0.706-0.667
						c-0.001,0-0.003,0-0.004,0C72.625,38.324,72.313,38.72,72.24,38.945"/>
				</defs>
				<clipPath id="SVGID_2_">
					<use xlink:href="#SVGID_1_"  overflow="visible"/>
				</clipPath>
				
					<linearGradient id="SVGID_3_" gradientUnits="userSpaceOnUse" x1="-330.3933" y1="555.5223" x2="-329.488" y2="555.5223" gradientTransform="matrix(-29.7993 0 0 29.7993 -9759.7881 -16504.3848)">
					<stop  offset="0" style="stop-color:#B51A1D"/>
					<stop  offset="0.1616" style="stop-color:#B61E1D"/>
					<stop  offset="0.3295" style="stop-color:#BB2B1D"/>
					<stop  offset="0.5003" style="stop-color:#C13F1D"/>
					<stop  offset="0.672" style="stop-color:#CB5C1C"/>
					<stop  offset="0.773" style="stop-color:#D2711C"/>
					<stop  offset="1" style="stop-color:#D2711C"/>
				</linearGradient>
				<rect x="56.631" y="38.324" clip-path="url(#SVGID_2_)" fill="url(#SVGID_3_)" width="30.057" height="22.931"/>
			</g>
		</g>
	</g>
</g>
</svg>
