<?xml version="1.0" encoding="utf-8"?>
<!-- Generator: Adobe Illustrator 17.0.0, SVG Export Plug-In . SVG Version: 6.00 Build 0)  -->
<!DOCTYPE svg PUBLIC "-//W3C//DTD SVG 1.1//EN" "http://www.w3.org/Graphics/SVG/1.1/DTD/svg11.dtd">
<svg version="1.1" id="Capa_1" xmlns="http://www.w3.org/2000/svg" xmlns:xlink="http://www.w3.org/1999/xlink" x="0px" y="0px"
	 width="72px" height="72px" viewBox="36 14 72 72" enable-background="new 36 14 72 72" xml:space="preserve">
<g id="isotipo">
	<g>
		<g>
			<g>
				<defs>
					<path id="SVGID_1_" d="M38.453,65.661c0.202,0.3,0.434,0.832,0.895,0.847c0.129,0.002,0.364-0.183,0.554-0.183
						c0.178,0.002,0.262,0.144,0.382,0.108c0.54-0.134,0.779-0.926,0.273-1.428c-0.226-0.036-0.41-0.144-0.588-0.245
						C39.11,64.862,38.559,64.694,38.453,65.661 M37.493,64.241c-0.442,0.712,0.204,1.778,0.887,1.041
						c0.147-0.273,0.053-0.743-0.002-1.185c-0.072-0.077-0.168-0.108-0.274-0.108C37.884,63.989,37.63,64.118,37.493,64.241
						 M39.986,60.189c-0.038,0.057-0.175,0.041-0.129,0.178c0.628,0.528,1.214,1.13,1.782,1.747c0.161-0.007,0.329,0.002,0.49,0.014
						c0.511,0.031,0.957,0.065,1.02-0.489c0.074-0.616-0.446-0.665-0.657-0.931c-0.206-0.261-0.223-0.669-0.429-0.907
						c-0.149-0.194-0.532-0.281-0.71-0.499c-0.123-0.147-0.13-0.353-0.235-0.451c-0.077-0.072-0.264-0.041-0.343-0.11
						c-0.111-0.108-0.137-0.432-0.288-0.449C39.636,58.299,39.485,59.69,39.986,60.189 M104.091,57.725
						c-0.652,0.218-0.336,1.156,0.137,1.175c0.386,0.014,0.562-0.293,0.556-0.604c-0.002-0.304-0.178-0.607-0.496-0.607
						C104.228,57.689,104.163,57.701,104.091,57.725 M39.3,53.722c-0.057,0.986,0.797,1.024,1.279,1.471
						c0.338,0.31,0.442,0.683,0.727,0.665c0.458-0.223,0.936-0.401,1.459-0.403c-0.077,0.146-0.034,0.37-0.058,0.554
						c0.34,0.285,0.149,0.84,0.336,1.502c0.163,0.276,0.646,0.033,0.808,0.322c-0.065,0.869,0.957,0.945,1.485,0.671
						c0.002,0.237,0.129,0.278,0.206,0.394c0.283-0.333,0.42-0.768,0.573-1.199c-0.142-0.038-0.317-0.014-0.405-0.141
						c-0.526-0.857-1.338-1.284-2.051-1.855c0.096-0.151-0.045-0.305-0.074-0.473c-0.256-0.273-0.514,0.002-0.806,0.002
						c-0.574,0.005-0.761-0.461-1.056-0.976c-0.496-0.055-0.804-0.413-1.003-0.931c-0.18-0.093-0.429-0.156-0.665-0.156
						C39.678,53.172,39.324,53.321,39.3,53.722 M103.522,50.37c-0.643,0.218-0.367,1.23,0.235,1.17
						c0.564-0.055,0.631-1.211-0.01-1.211C103.679,50.33,103.604,50.342,103.522,50.37 M41.439,47.916
						c0,0.233,0.283,0.993,0.542,1.35c0.326,0.463,0.902,0.7,1.312,1.144c0.439,0.463,0.827,1.02,1.284,1.471
						c0.489,0.494,1.056,0.875,1.435,1.279c0.756,0.808,0.907,2.418,2.325,1.42c0.621-0.442,1.031-1.449,0.684-2.574
						c-0.214-0.194-0.369-0.501-0.621-0.633c-0.537-0.069-1.084-0.134-1.72-0.029c-0.598-0.732-1.619-0.784-2.238-1.497
						c-0.377-0.444-0.583-1.036-0.962-1.59c-0.511,0.036-0.751-0.851-1.116-1.017c-0.086-0.043-0.182-0.062-0.281-0.062
						C41.751,47.178,41.411,47.422,41.439,47.916 M91.811,44.879c-0.244,0.321-0.358,1.07-0.194,1.653
						c0.045,0.166,0.262,0.415,0.518,0.748c0.408,0.542,0.526,1.029,1.168,1.063c0.432,0.242,0.494,0.938,0.844,1.338
						c0.134,0.146,0.432,0.225,0.612,0.427c0.336,0.377,0.412,1.12,0.794,1.279c0.509,0.195,0.605,0.262,0.945,0.533
						c0.478,0.388,0.976,0.713,1.116,1.382c0.055,0.257-0.05,0.731,0.142,1.118c0.214,0.454,0.71,0.266,0.936,0.535
						c0.247,0.304,0.125,0.95,0.374,1.23c0.259,0.098,0.415,0.3,0.755,0.312c0.478,0.533,0.513,1.125,0.796,1.711
						c0.228,0.463,0.708,0.785,1.123,1.221c0.266,0.281,0.439,0.662,0.653,0.909c0.343,0.377,0.806,0.604,1.079,1.012
						c0.466,0.674,0.818,1.53,0.989,2.502c0.413,0.358,0.844,0.707,1.403,0.907c0.163-0.182,0.418-0.262,0.61-0.427
						c0.285-1.96-0.756-2.409-1.264-3.464c-0.115-0.117-0.292-0.171-0.47-0.214c-0.103-0.233-0.266-0.4-0.374-0.634
						c-0.48-0.413-0.916-0.753-1.079-1.382c-0.087-0.365-0.034-0.741-0.087-1.122c-0.05-0.25-0.355-0.525-0.526-0.804
						c-0.163-0.273-0.298-0.616-0.418-0.796c-0.35-0.549-0.785-0.595-1.408-0.852c-0.31-0.341-0.336-0.744-0.653-1.067
						c-0.189-0.187-0.53-0.201-0.749-0.425c-0.638-0.652-0.614-2.372-1.686-2.612c-0.122-0.024-0.232-0.012-0.334,0.002
						c-0.149,0.021-0.286,0.043-0.418-0.055c-0.634-0.468,0.063-1.967-0.508-2.507c-0.244-0.139-0.478-0.281-0.667-0.48
						c-0.53-0.578-0.938-1.85-1.49-2.342c-0.197-0.175-0.497-0.195-0.664-0.376c-0.259-0.281-0.336-0.919-0.749-0.962
						c-0.012,0-0.026-0.002-0.039-0.002C92.528,44.234,91.958,44.678,91.811,44.879 M48.049,43.051
						c-0.24,0.048-0.233,0.343-0.461,0.506c0.221,0.341,0.43,0.688,0.494,1.266c0.358,0.328,0.869,0.442,1.108,0.955
						c0.926,0.249,1.434,1.339,2.058,2.087c0.147,0.182,0.317,0.214,0.432,0.418c0.147,0.269,0.17,0.638,0.307,0.919
						c0.376,0.4,0.94,0.213,1.562,0.019c0.429-0.662,0.993-1.614,0.451-2.816c-0.873-0.045-1.573-0.779-2.545-0.293
						c-0.581-0.497-1.247-0.909-1.449-1.818c-0.12-0.156-0.676-0.244-0.851-0.396c-0.077-0.057-0.046-0.242-0.132-0.3
						c-0.106-0.069-0.28-0.019-0.396-0.098c-0.293-0.206-0.292-0.458-0.508-0.458C48.097,43.041,48.075,43.042,48.049,43.051
						 M46.261,42.37c-0.456,0.717,0.199,1.778,0.887,1.039c0.147-0.269,0.055-0.737,0-1.18c-0.072-0.079-0.168-0.11-0.274-0.11
						C46.654,42.12,46.4,42.25,46.261,42.37 M101.131,42.056c-1.132,0.376,0.533,2.034,0.705,0.689
						c0.057-0.456-0.163-0.731-0.485-0.731C101.282,42.017,101.208,42.029,101.131,42.056 M93.2,39.134
						c-0.007,0.58,0.523,0.542,0.756,0.851c0.11,0.626,0.506,0.907,0.851,1.228c0.693,0.671,1.279,1.564,1.771,2.397
						c0.441,0.485,2.029,0.967,1.693-0.322c-0.094-0.336-0.523-0.304-0.804-0.533c-0.28-0.232-0.31-0.566-0.554-0.744
						c0.022-0.559-0.326-0.7-0.43-1.118c-0.094-0.081-0.245-0.105-0.328-0.213c-0.24-0.852-0.976-1.127-1.593-1.545
						c-0.163-0.604-0.561-0.957-0.983-1.284c-0.115-0.041-0.221-0.057-0.316-0.057C92.45,37.793,92.378,39.117,93.2,39.134
						 M48.927,36.299c-0.06,0.518,0.096,0.779,0.235,1.06c0.813,0.175,0.827,1.264,1.593,1.497c0.048,0.166,0.075,0.367,0.185,0.48
						c0.12,0.11,0.338,0.111,0.472,0.211c0,0.232-0.019,0.48,0.041,0.643c0.307,0.34,0.545,0.147,0.845,0.262
						c0.593,0.233,0.646,1.096,1.267,1.175c0.448,0.41,0.583,1.188,0.888,1.759c0.749,0.129,1.058-0.256,1.506-0.485
						c0.334-0.544,0.115-1.487-0.331-1.751c-0.072-0.007-0.111,0.024-0.149,0.053c-0.045,0.036-0.087,0.069-0.171,0.048
						c-0.59-0.418-1.171-0.835-1.416-1.65c-0.592-0.264-1.61-0.05-1.922-0.64c0.057-0.34-0.137-0.869-0.137-1.332
						c-0.938-0.06-1.356-1.466-2.344-1.468C49.32,36.162,49.135,36.205,48.927,36.299 M96.77,34.708
						c-1.151,0.394,0.526,2.046,0.695,0.689c0.057-0.418-0.103-0.736-0.449-0.736C96.942,34.662,96.861,34.677,96.77,34.708
						 M53.184,34.636c0.346-0.069,0.446,0.442,0.701,0.638c0.355,0.274,0.981,0.473,1.312,0.238
						c-0.021,0.067-0.036,0.144-0.046,0.226c0.077,0.091,0.307,0.05,0.364,0.159c-0.029,0.132-0.045,0.257,0.007,0.328
						c0.393,0.316,0.525,0.657,0.871,1.091c0.221,0.28,0.526,0.516,0.578,0.785c0.05,0.389-0.187,0.741,0.002,1.187
						c0.245-0.031,0.49,0.01,0.729,0.05c0.235,0.038,0.461,0.079,0.676,0.05c0.415-0.06,1.305-1.118,1.387-1.413
						c0.099-0.298-0.046-0.659,0.067-1.01c-0.278-0.468-1.195-0.377-1.461-0.863c-0.087-0.014-0.187-0.026-0.278-0.043
						c-0.365-0.468-0.9-0.796-1.218-1.302c-0.559-0.026-1.154,0.053-1.478,0.396c0.118-0.621-0.403-0.933-0.388-1.37
						c-0.259-0.022-0.437-0.576-0.84-0.643c-0.065-0.01-0.129-0.017-0.19-0.017C53.196,33.127,52.597,33.974,53.184,34.636
						 M49.989,31.119c0.125,0.71,0.672,0.943,0.943,1.49c0.583,0.041,0.844-0.286,0.983-0.748c-0.427-0.304-0.803-0.955-1.358-0.955
						C50.385,30.906,50.2,30.968,49.989,31.119 M80.556,33.208c0.209,0.171,0.64,0.053,0.844,0.321
						c0.237,0.3,0.115,0.859,0.237,1.278c0.163,0.576,0.655,0.96,1.029,1.387c0.494,0.566,0.741,0.84,1.459,0.955
						c0.297,0.71,0.753,1.02,1.214,1.495c0.731,0.748,0.952,1.934,1.595,2.451c0.326,0.261,0.76,0.346,1.125,0.586
						c0.266,0.809,0.873,1.194,1.358,1.813c0.29,0.377,0.533,0.842,0.842,0.962c0.47,0.178,1.123,0.041,1.687-0.053
						c0.105-0.269,0.25-0.518,0.235-0.859c-0.046-1.024-0.924-0.912-1.545-1.437c-0.31-0.256-0.413-0.979-0.612-1.223
						c-0.194-0.237-0.54-0.257-0.748-0.482c-0.508-0.544-0.683-1.406-1.176-2.075c-0.446-0.621-1.238-0.962-1.831-1.283
						c-0.652-0.924-1.312-1.843-1.965-2.769c-0.208-0.043-0.453-0.05-0.605-0.158c-0.422-1.535-1.039-2.84-2.342-3.359
						C80.647,31.043,80.136,32.119,80.556,33.208 M91.753,30.128c-0.036,0.41,0.259,0.863,0.701,0.96
						c0.286,0.23,0.466,0.866,0.84,1.386c0.25,0.341,0.677,0.653,0.943,1.065c0.19,0.3,0.382,0.871,0.569,1.01
						c0.981,0.772,1.552-0.955,0.602-1.17c0.091-1.998-0.947-2.588-1.78-3.622c-0.216,0.024-0.472-0.031-0.729-0.086
						c-0.214-0.045-0.427-0.091-0.609-0.091C91.996,29.579,91.778,29.699,91.753,30.128 M55.813,28.622
						c-0.069,0.25,0.034,0.501,0.468,0.482c0.228,0.223,0.293,0.628,0.749,0.585c0.06,0.559,0.413,0.604,0.712,0.907
						c0.161,0.177,0.25,0.468,0.412,0.64c0.159,0.159,0.367,0.183,0.525,0.317c0.177,0.17,0.278,0.461,0.418,0.586
						c0.118,0.103,0.35,0.123,0.521,0.269c0.208,0.183,0.28,0.485,0.466,0.58c0.254,0.144,0.564,0.038,0.797,0.218
						c0.063,0.135,0.113,0.211,0.046,0.37c0.722,0.19,1.741,0.014,2.291-0.317c0.009-1.065-0.564-1.905-1.449-1.497
						c-0.746-0.317-1.471-0.671-2.056-1.168c-0.113-0.893-0.996-0.9-1.789-1.015c-0.233,0.146-0.48,0.206-0.659-0.053
						c0.105-0.129,0.17-0.309,0.194-0.532c-0.087-0.28-0.4-0.3-0.749-0.266c0.015-0.183-0.019-0.297-0.05-0.425
						c-0.101-0.12-0.209-0.17-0.319-0.17C56.102,28.137,55.878,28.38,55.813,28.622 M83.451,27.674
						c0.446,1.115,1.293,1.771,1.972,2.615c-0.027,0.223,0.034,0.353,0.045,0.53c0.475,0.532,1.077,0.178,1.504,0.698
						c0.232,0.274,0.232,0.779,0.466,1.065c0.228,0.261,0.559,0.328,0.751,0.64c0.139,0.22,0.149,0.518,0.281,0.741
						c0.123,0.202,0.381,0.36,0.556,0.586c0.199,0.244,0.31,0.571,0.472,0.748c0.264,0.276,0.513,0.394,0.71,0.688
						c0.316,0.492,0.617,0.972,1.123,1.18c0.168,0.014,0.3-0.012,0.422-0.053c0,0.379,0.003,0.544,0.137,0.688
						c0.478,0.547,0.881-0.021,0.94-0.592c0.05-0.501-0.17-1.008-0.845-0.736c-0.019-0.89-0.821-1.091-1.214-1.71
						c-0.456-0.698-0.695-1.466-1.224-2.08c-0.17-0.202-0.429-0.317-0.61-0.525c-0.461-0.547-0.755-1.259-1.499-1.444
						c-0.122,0.29-0.734,0.463-1.029,0.22c0.062-0.153,0.12-0.304,0.094-0.54c-0.245-0.358-0.111-0.933-0.144-1.6
						c-0.129-0.364-0.621-0.316-0.845-0.585c0.065-1.005-0.784-1.272-1.492-1.224c-0.115-0.458-0.312-0.628-0.509-0.628
						C82.998,26.353,82.494,27.494,83.451,27.674 M62.854,26.129c-0.461,0.163-0.461,0.521-0.293,0.815
						c-0.077,0.12-0.111,0.29-0.094,0.525c0.151,0.187,0.372,0.238,0.657,0.158c0.312,0.564,0.683,1.067,1.168,1.435
						c0,0.626,0.166,1.053,0.283,1.552c0.823,0.41,2.017,0.195,2.391-0.638c-0.149-0.518-0.077-1.271-0.424-1.547h-0.422
						c-0.792-0.549-1.545-1.13-2.619-1.365c0.029-0.067,0.046-0.146,0.05-0.237c0.057-0.425-0.103-0.743-0.449-0.743
						C63.027,26.084,62.945,26.098,62.854,26.129 M61.748,25.499c-1.149,0.396,0.533,2.049,0.703,0.695
						c0.055-0.422-0.11-0.741-0.456-0.741C61.919,25.453,61.839,25.467,61.748,25.499 M88.469,24.584
						c-0.405,0.029-0.645,0.489-0.47,0.96c0.094,0.23,0.453,0.309,0.609,0.533c0.208,0.286,0.233,0.791,0.472,1.118
						c0.115,0.158,0.345,0.187,0.514,0.376c0.393,0.425,0.453,1.02,0.897,1.12c0.612,1.507,1.837-0.833,0.892-1.283
						c0.055-0.053,0.132-0.086,0.18-0.158c-0.659-0.71-1.3-1.437-1.879-2.241c-0.202,0.043-0.42-0.081-0.634-0.206
						c-0.189-0.11-0.376-0.219-0.554-0.219C88.487,24.582,88.477,24.584,88.469,24.584 M101.742,71.902
						c-0.518-0.556-0.026-1.082,0.374-1.602c0.271-0.355,0.448-0.863,0.753-0.905c1.013-0.151,0.928,2.001,0.137,2.397
						c-0.216,0.111-0.405,0.144-0.64,0.144C102.193,71.936,101.994,71.919,101.742,71.902 M93.215,71.368
						c-0.082-0.578,1.001-1.231,1.125-1.703c0.756-0.093,1.092-0.779,1.538-1.332c0.204-0.244,0.449-0.427,0.619-0.643
						c0.178-0.245,0.288-0.568,0.461-0.799c0.401-0.504,0.936-0.749,1.127-1.389c0.638-0.127,0.948-0.933,1.687-0.847
						c0.386,0.043,0.851,0.792,1.07,1.067c0.25,0.298,0.842,0.945,0.849,1.278c0.002,0.297-0.283,0.463-0.514,0.744
						c-0.218,0.261-0.309,0.554-0.47,0.749c-0.374,0.422-0.775,0.622-1.171,0.902c-0.701,0.509-1.07,1.224-1.73,1.655
						c-0.448,0.129-0.921,0.062-1.509,0.105c-0.818,0.053-1.478,0.595-1.958,0.693c-0.081,0.017-0.166,0.026-0.25,0.026
						C93.682,71.874,93.251,71.687,93.215,71.368 M85.339,71.315c-0.062-0.516,0.129-1.046,0.372-1.387
						c0.232-0.305,0.787-0.446,1.127-0.851c0.343-0.408,0.422-1.082,1.079-1.122c0.424-0.808,1.173-1.255,1.545-2.13
						c0.586-0.367,0.979-1.075,1.404-1.708c0.17-0.242,0.377-0.394,0.556-0.638c0.264-0.328,0.367-0.753,0.713-1.012
						c0.168-0.127,0.408-0.177,0.561-0.322c0.244-0.223,0.348-0.634,0.607-0.852c0.19-0.153,0.484-0.202,0.701-0.376
						c0.684-0.521,1.048-1.898,2.161-1.015c0.156,0.129,0.226,0.401,0.42,0.645c0.177,0.211,0.485,0.37,0.659,0.583
						c0.159,0.218,0.232,0.456,0.424,0.698c0.281,0.372,0.586,0.602,0.562,0.96c-0.039,0.559-0.504,0.451-0.935,0.693
						c-0.307,0.159-0.449,0.65-0.797,1.065c-0.244,0.285-0.549,0.451-0.713,0.64c-0.166,0.206-0.31,0.501-0.513,0.744
						c-0.19,0.237-0.441,0.413-0.607,0.643c-0.19,0.254-0.269,0.597-0.472,0.797c-0.218,0.226-0.545,0.293-0.751,0.48
						c-0.171,0.163-0.244,0.47-0.418,0.693c-0.218,0.292-0.696,0.561-1.031,0.96c-0.331,0.396-0.571,0.9-0.842,1.17
						c-0.328,0.328-1.056,0.808-1.363,0.859c-0.271,0.038-0.55-0.046-0.845-0.132c-0.266-0.074-0.544-0.153-0.842-0.139
						c-0.631,0.022-1.291,0.23-1.914,0.23C85.895,71.492,85.61,71.447,85.339,71.315 M77.14,71.423
						c-0.053-0.434,0.413-0.695,0.701-0.96c0.513-0.475,0.677-0.905,1.262-1.173c0.928-1.338,2.125-2.351,3.004-3.735
						c0.559-0.353,1.02-0.821,1.31-1.49c0.616-0.048,0.823-0.799,1.17-1.224c0.168-0.202,0.453-0.365,0.664-0.585
						c0.195-0.22,0.357-0.525,0.556-0.698c0.304-0.256,0.72-0.352,1.031-0.64c0.261-0.225,0.364-0.628,0.61-0.902
						c0.187-0.206,0.48-0.329,0.653-0.535c0.168-0.199,0.262-0.506,0.427-0.698c0.321-0.353,0.784-0.52,1.074-0.9
						c0.216-0.278,0.321-0.614,0.518-0.856c0.199-0.237,0.475-0.358,0.657-0.586c0.393-0.494,0.434-1.326,1.5-1.06
						c0.326,0.214,0.485,0.619,0.652,1.01c0.302,0.28,0.756,0.377,0.844,0.799c0.105,0.487-0.235,1.375-0.513,1.708
						c-0.183,0.214-0.502,0.269-0.705,0.475c-0.259,0.269-0.324,0.686-0.514,0.854c-0.206,0.178-0.588,0.292-0.748,0.422
						c-0.357,0.3-0.636,0.816-0.989,1.23c-0.334,0.401-0.556,0.9-0.887,1.283c-0.19,0.221-0.485,0.273-0.701,0.475
						c-0.171,0.166-0.269,0.513-0.475,0.744c-0.206,0.244-0.502,0.376-0.659,0.585c-0.147,0.219-0.197,0.556-0.369,0.753
						c-0.156,0.177-0.429,0.211-0.609,0.367c-0.269,0.244-0.424,0.719-0.696,1.07c-0.264,0.324-0.643,0.525-0.854,0.797
						c-0.388,0.518-0.502,1.223-1.161,1.44c-0.204,0.549-0.708,0.779-1.182,1.173c-0.194,0.165-0.338,0.446-0.506,0.53
						c-0.869,0.461-2.547,0.286-3.613,0.54c-0.218,0.05-0.612,0.194-0.936,0.194C77.392,71.831,77.178,71.737,77.14,71.423
						 M68.569,71.368c0.046-0.34,0.324-0.425,0.787-0.852c0.292-0.262,0.413-0.645,0.616-0.797c0.232-0.194,0.552-0.244,0.794-0.427
						c0.619-0.48,1.331-1.562,1.917-2.293c0.195-0.226,0.437-0.396,0.569-0.585c0.171-0.254,0.228-0.571,0.422-0.803
						c0.171-0.206,0.427-0.3,0.612-0.477c0.202-0.197,0.319-0.506,0.511-0.749c0.171-0.214,0.43-0.377,0.61-0.585
						c0.197-0.233,0.326-0.561,0.516-0.799c0.235-0.305,0.571-0.554,0.888-0.852c0.293-0.274,0.518-0.683,0.794-0.905
						c0.17-0.141,0.405-0.165,0.562-0.322c0.213-0.206,0.288-0.552,0.468-0.796c0.147-0.201,0.422-0.355,0.61-0.59
						c0.19-0.242,0.319-0.556,0.523-0.749c0.381-0.372,0.869-0.586,1.214-0.955c0.187-0.201,0.324-0.53,0.514-0.748
						c0.195-0.226,0.449-0.376,0.61-0.588c0.137-0.177,0.182-0.461,0.324-0.64c0.204-0.238,0.521-0.352,0.708-0.585
						c0.214-0.268,0.31-0.677,0.562-0.9c0.132-0.129,0.384-0.221,0.564-0.377c0.521-0.446,0.761-1.212,1.216-1.442
						c0.139-0.069,0.372-0.012,0.562-0.099c0.245-0.122,0.401-0.489,0.657-0.695c0.41-0.341,1.264-0.981,1.921-0.64
						c0.4,0.206,0.528,0.76,0.84,1.12c0.386,0.214,0.967,0.207,1.176,0.638c-0.213,1.118-1.274,1.631-1.826,2.457
						c-0.18,0.254-0.237,0.566-0.424,0.791c-0.225,0.28-0.562,0.43-0.804,0.698c-0.305,0.372-0.684,0.78-0.979,1.17
						c-0.175,0.223-0.247,0.501-0.418,0.701c-0.329,0.355-0.797,0.533-1.134,0.9c-0.357,0.936-1.255,1.267-1.636,2.183
						c-0.621,0.081-0.756,0.833-1.127,1.228c-0.214,0.23-0.535,0.309-0.746,0.533c-0.525,0.561-0.845,1.382-1.595,1.655
						c-0.147,0.59-0.727,0.791-1.125,1.228c-0.197,0.213-0.305,0.578-0.513,0.797c-0.254,0.261-0.634,0.376-0.938,0.695
						c-0.376,0.389-0.562,0.914-0.938,1.12c-0.17,0.091-0.372,0.074-0.562,0.158c-0.496,0.218-0.957,0.854-1.497,1.173
						c-0.218,0.122-0.434,0.139-0.609,0.266c-0.47,0.333-0.775,0.921-1.223,1.228c-0.597-0.12-1.271,0.19-2.022,0.214
						c-0.218,0.007-0.506,0.029-0.794,0.029C69.106,72.09,68.482,71.986,68.569,71.368 M60.501,71.315
						c0.058-0.422,0.401-0.468,0.748-0.852c0.413-0.454,0.59-1.082,1.267-1.173c0.221-0.544,0.631-0.844,0.984-1.279
						c0.183-0.226,0.245-0.554,0.42-0.799c0.185-0.25,0.523-0.43,0.703-0.695c0.187-0.249,0.261-0.59,0.427-0.796
						c0.245-0.312,0.672-0.439,0.926-0.753c0.178-0.194,0.288-0.542,0.478-0.796c0.202-0.288,0.532-0.485,0.7-0.748
						c0.187-0.286,0.252-0.71,0.47-0.957c0.125-0.144,0.329-0.177,0.468-0.322c0.221-0.232,0.31-0.597,0.523-0.852
						c0.166-0.225,0.461-0.343,0.646-0.585c0.18-0.22,0.252-0.547,0.427-0.748c0.194-0.226,0.485-0.317,0.659-0.535
						c0.17-0.213,0.197-0.521,0.374-0.737c0.18-0.254,0.518-0.352,0.696-0.59c0.139-0.182,0.199-0.456,0.334-0.64
						c0.202-0.298,0.545-0.463,0.751-0.753c0.115-0.17,0.194-0.439,0.326-0.634c0.122-0.195,0.3-0.343,0.422-0.532
						c0.166-0.278,0.223-0.647,0.422-0.907c0.223-0.3,0.616-0.401,0.89-0.693c0.237-0.254,0.372-0.604,0.61-0.852
						c0.256-0.268,0.631-0.389,0.89-0.638c0.283-0.28,0.372-0.693,0.653-0.962c0.578-0.123,0.741-0.592,1.125-1.067
						c0.262-0.324,0.619-0.554,0.842-0.851c0.271-0.367,0.405-0.847,0.703-1.175c0.123-0.132,0.309-0.159,0.47-0.317
						c0.266-0.274,0.434-0.737,0.7-0.962c0.206-0.17,0.465-0.244,0.659-0.427c0.616-0.559,0.945-1.471,1.451-1.809
						c0.785-0.518,1.497,1.204,1.921,1.864c0.298,0.466,0.804,1.012,1.086,1.279c0.225,0.218,0.727,0.333,0.794,0.638
						c0.147,0.681-0.49,0.768-0.89,1.017c-0.408,0.249-0.815,0.767-1.224,1.17c-0.43,0.439-0.652,1.07-1.031,1.387
						c-0.171,0.146-0.43,0.166-0.61,0.316c-0.187,0.165-0.283,0.427-0.458,0.592c-0.274,0.238-0.571,0.336-0.806,0.53
						c-0.338,0.29-0.506,0.671-0.844,1.067c-0.202,0.254-0.513,0.391-0.746,0.643c-0.161,0.165-0.305,0.432-0.47,0.634
						c-0.163,0.202-0.369,0.341-0.516,0.535c-0.151,0.201-0.213,0.523-0.377,0.744c-0.24,0.322-0.645,0.516-0.929,0.847
						c-0.533,0.622-1.005,1.437-1.598,2.03c-0.293,0.297-0.648,0.494-0.933,0.799c-0.177,0.187-0.3,0.465-0.47,0.64
						c-0.206,0.202-0.478,0.278-0.657,0.477c-0.199,0.218-0.273,0.576-0.468,0.804c-0.171,0.199-0.432,0.28-0.609,0.477
						c-0.163,0.177-0.316,0.432-0.468,0.64c-0.321,0.432-0.696,0.761-0.986,1.173c-0.247,0.353-0.369,0.779-0.653,1.067
						c-0.153,0.153-0.367,0.233-0.518,0.372c-0.199,0.175-0.357,0.451-0.568,0.643c-0.206,0.189-0.47,0.285-0.646,0.475
						c-0.197,0.199-0.278,0.535-0.47,0.749c-0.216,0.226-0.542,0.328-0.751,0.532c-0.31,0.286-0.537,0.761-0.844,1.118
						c-0.17,0.199-0.413,0.334-0.568,0.53c-0.278,0.365-0.415,0.869-0.749,1.175c-0.35-0.038-0.646,0.207-1.027,0.273
						c-0.41,0.06-0.845,0.007-1.279-0.041c-0.336-0.041-0.665-0.081-0.976-0.069c-0.326,0.01-0.821,0.183-1.218,0.183
						C60.707,72.193,60.41,72.015,60.501,71.315 M52.815,72.119c-0.593-0.561-0.256-1.06,0.281-1.605
						c0.465-0.466,0.833-1.103,1.36-1.437c0.153-0.671,0.691-0.924,1.077-1.387c0.159-0.19,0.254-0.482,0.429-0.693
						c0.183-0.226,0.499-0.372,0.652-0.585c0.163-0.232,0.197-0.58,0.374-0.803c0.17-0.206,0.535-0.3,0.756-0.532
						c0.202-0.223,0.271-0.621,0.465-0.852c0.298-0.358,0.715-0.58,1.024-0.96c0.864-1.039,1.651-2.265,2.577-3.305
						c0.19-0.207,0.48-0.317,0.659-0.535c0.537-0.626,0.813-1.473,1.31-2.185c0.202-0.269,0.525-0.43,0.751-0.689
						c0.177-0.202,0.25-0.489,0.429-0.698c0.168-0.202,0.439-0.321,0.609-0.525c0.264-0.334,0.475-0.729,0.746-1.072
						c0.28-0.352,0.441-0.787,0.708-1.115c0.29-0.364,0.731-0.542,1.024-0.907c0.334-0.401,0.624-0.972,0.983-1.44
						c0.355-0.449,0.696-0.933,0.984-1.386c0.485-0.765,0.945-1.42,1.507-2.132c0.175-0.232,0.427-0.376,0.556-0.59
						c0.159-0.256,0.214-0.609,0.377-0.851c0.147-0.226,0.448-0.364,0.607-0.586c0.18-0.237,0.252-0.547,0.42-0.743
						c0.158-0.187,0.497-0.322,0.705-0.537c0.17-0.165,0.281-0.509,0.47-0.744c0.185-0.233,0.489-0.365,0.657-0.585
						c0.171-0.22,0.209-0.53,0.374-0.749c0.166-0.225,0.446-0.352,0.655-0.583c0.748-0.835,1.248-1.849,1.926-2.245
						c0.48-0.278,0.513,0.218,0.792,0.698c0.093,0.153,0.309,0.312,0.475,0.53c0.19,0.281,0.3,0.631,0.418,0.748
						c0.247,0.257,0.653,0.343,0.794,0.532c0.11,0.144,0.197,0.497,0.336,0.695c0.28,0.427,0.751,0.628,0.751,0.96
						c-0.012,0.518-0.602,0.406-1.132,0.744c-0.223,0.139-0.278,0.442-0.468,0.693c-0.271,0.364-0.811,0.588-1.031,0.854
						c-0.264,0.321-0.432,0.804-0.708,1.17c-0.25,0.355-0.478,0.748-0.746,1.067c-0.18,0.22-0.468,0.322-0.659,0.537
						c-0.237,0.268-0.338,0.665-0.609,0.9c-0.178,0.163-0.446,0.22-0.607,0.377c-0.199,0.195-0.283,0.516-0.466,0.744
						c-0.206,0.245-0.561,0.425-0.803,0.693c-0.228,0.269-0.376,0.616-0.602,0.857c-0.288,0.286-0.674,0.442-0.895,0.741
						c-0.142,0.201-0.178,0.482-0.326,0.695c-0.171,0.238-0.477,0.388-0.653,0.64c-0.129,0.159-0.168,0.422-0.283,0.585
						c-0.163,0.223-0.449,0.321-0.609,0.535c-0.233,0.304-0.271,0.777-0.516,1.06c-0.159,0.187-0.456,0.245-0.612,0.432
						c-0.202,0.226-0.233,0.631-0.42,0.854c-0.185,0.22-0.523,0.316-0.7,0.528c-0.19,0.209-0.307,0.523-0.47,0.755
						c-0.729,0.938-1.499,1.862-2.25,2.819c-0.247,0.312-0.549,0.547-0.796,0.851c-0.177,0.223-0.28,0.571-0.47,0.804
						c-0.142,0.17-0.377,0.25-0.518,0.42c-0.369,0.446-0.509,1.219-1.173,1.386c-0.129,0.602-0.676,0.89-0.984,1.392
						c-0.17,0.28-0.197,0.657-0.413,0.907c-0.194,0.211-0.532,0.28-0.705,0.53c-0.187,0.273-0.213,0.652-0.42,0.907
						c-0.386,0.286-0.794,0.4-1.132,0.689c-0.914,0.803-1.432,2.342-2.624,2.615c-0.506,0.115-1.017,0.074-1.561,0.036
						c-0.353-0.026-0.72-0.05-1.108-0.036c-0.357,0.012-0.71,0.175-1.116,0.175C53.108,72.185,52.966,72.167,52.815,72.119
						 M46.446,71.637c-0.093-0.388,0.305-0.974,0.513-1.384c0.214-0.42,0.552-0.844,0.708-1.125c0.132-0.25,0.209-0.653,0.328-0.852
						c0.139-0.261,0.418-0.425,0.61-0.689c0.288-0.415,0.54-0.972,0.84-1.44c0.159-0.238,0.266-0.52,0.422-0.748
						c0.153-0.225,0.367-0.372,0.508-0.585c0.362-0.511,0.523-1.219,1.132-1.44c0.115-0.631,0.648-0.887,0.979-1.334
						c0.312-0.41,0.458-1.029,1.032-1.173c0.156-0.316,0.324-0.621,0.47-0.962c0.53-0.218,0.634-0.707,0.984-1.216
						c0.17-0.257,0.466-0.41,0.61-0.646c0.142-0.226,0.177-0.528,0.317-0.744c0.19-0.273,0.544-0.43,0.713-0.689
						c0.218-0.329,0.206-0.869,0.468-1.176c0.178-0.218,0.497-0.278,0.662-0.425c0.292-0.286,0.645-0.689,0.84-1.065
						c0.115-0.245,0.11-0.631,0.283-0.902c0.166-0.273,0.521-0.328,0.751-0.533c0.437-0.422,0.784-1.454,1.264-2.135
						c0.278-0.406,0.677-0.767,1.031-1.23c0.343-0.458,0.792-0.707,1.123-1.118c0.216-0.268,0.336-0.616,0.513-0.852
						c0.194-0.261,0.485-0.41,0.659-0.64c0.345-0.466,0.509-1.063,1.079-1.332c0.072-0.743,0.77-0.847,1.122-1.332
						c0.118-0.166,0.149-0.458,0.28-0.693c0.17-0.3,0.484-0.489,0.612-0.748c0.134-0.25,0.122-0.566,0.288-0.799
						c0.141-0.218,0.43-0.317,0.6-0.535c0.168-0.213,0.213-0.544,0.382-0.799c0.156-0.245,0.442-0.382,0.597-0.638
						c0.153-0.237,0.204-0.54,0.338-0.749c0.189-0.28,0.499-0.389,0.652-0.633c0.17-0.256,0.194-0.633,0.369-0.854
						c0.197-0.225,0.648-0.328,0.895-0.586c0.142-0.144,0.199-0.37,0.334-0.53c0.189-0.238,0.432-0.388,0.609-0.643
						c0.336-0.501,0.616-0.984,1.031-1.442c0.31-0.336,0.914,0.156,1.214,0.485c0.202,0.218,0.285,0.554,0.47,0.741
						c0.213,0.214,0.657,0.317,0.849,0.487c0.256,0.23,0.943,1.146,0.888,1.648c-0.06,0.451-0.465,0.511-0.796,0.799
						c-0.209,0.183-0.3,0.544-0.514,0.799c-0.189,0.226-0.508,0.346-0.662,0.532c-0.17,0.213-0.244,0.528-0.415,0.744
						c-0.204,0.249-0.502,0.396-0.71,0.64c-0.194,0.237-0.382,0.554-0.559,0.799c-0.396,0.54-0.681,1.206-1.082,1.65
						c-0.209,0.245-0.525,0.364-0.753,0.59c-0.298,0.312-0.526,0.712-0.837,1.067c-0.298,0.345-0.46,0.791-0.751,1.118
						c-0.153,0.177-0.408,0.257-0.568,0.427c-0.158,0.182-0.242,0.518-0.42,0.748c-0.177,0.237-0.449,0.358-0.605,0.588
						c-0.17,0.237-0.221,0.554-0.374,0.799c-0.149,0.223-0.41,0.365-0.568,0.588c-0.161,0.225-0.199,0.559-0.367,0.796
						c-0.18,0.257-0.545,0.451-0.755,0.748c-0.144,0.201-0.189,0.47-0.334,0.64c-0.194,0.245-0.526,0.358-0.743,0.586
						c-0.17,0.175-0.297,0.396-0.472,0.585c-0.388,0.415-0.645,0.847-1.029,1.338c-0.187,0.225-0.427,0.394-0.607,0.633
						c-0.242,0.321-0.367,0.765-0.569,1.122c-0.194,0.341-0.448,0.64-0.695,0.96c-0.535,0.674-0.818,1.444-1.271,2.077
						c-0.177,0.249-0.434,0.37-0.609,0.585c-0.259,0.321-0.369,0.748-0.655,1.015c-0.161,0.159-0.41,0.207-0.559,0.37
						c-0.183,0.201-0.28,0.561-0.478,0.804c-0.177,0.225-0.453,0.358-0.648,0.583c-0.139,0.156-0.235,0.413-0.381,0.59
						c-0.244,0.288-0.552,0.466-0.703,0.688c-0.149,0.238-0.194,0.542-0.365,0.748c-0.161,0.178-0.388,0.214-0.569,0.377
						c-0.262,0.232-0.504,0.71-0.751,1.118c-0.235,0.388-0.353,0.919-0.6,1.283c-0.3,0.408-0.806,0.561-1.086,0.902
						c-0.266,0.329-0.374,0.749-0.655,1.015c-0.147,0.135-0.396,0.158-0.559,0.316c-0.19,0.183-0.316,0.525-0.523,0.749
						c-0.199,0.225-0.485,0.364-0.605,0.53c-0.262,0.372-0.326,0.9-0.657,1.173c-0.305,0.153-1.276,0.336-2.123,0.336
						C47.139,72.13,46.527,72.004,46.446,71.637 M73.251,24.892c-0.139,0.422-0.06,0.938-0.19,1.332
						c-0.159,0.509-0.972,1.38-1.355,1.759c-0.177,0.175-0.451,0.281-0.564,0.477c-0.286,0.501-0.168,0.933-0.617,1.012
						c-0.206,0.038-0.259-0.017-0.343-0.072c-0.072-0.043-0.168-0.094-0.401-0.082c-0.262,0.348-0.074,0.835-0.144,1.223
						c-0.081,0.537-0.544,1.151-0.936,1.173c-0.129,0.012-0.259-0.065-0.393-0.139c-0.156-0.086-0.319-0.171-0.496-0.129
						c-0.792,0.194-0.466,1.727-0.28,2.557c-0.569,0.4-1.077,0.881-1.555,1.392c-1.734,0.415-2.793,1.609-3.317,3.407
						c-0.605,0.396-1.082,0.571-1.5,1.01c-0.94,0.998-1.055,3.457-2.253,4.054c-0.256,0.127-0.64,0.062-0.887,0.213
						c-0.218,0.129-0.408,0.542-0.652,0.962c-0.213,0.341-0.528,0.646-0.71,0.955c-0.326,0.559-0.384,1.274-0.61,1.814
						c-0.12,0.285-0.307,0.42-0.372,0.64c-0.283,0.893,0.185,1.881-0.334,2.452c-1.238-0.117-1.833,0.504-2.622,0.907
						c-0.631,0.677-0.993,1.687-1.684,2.183c-0.494,0.348-0.989,0.4-1.264,0.852c-0.197,0.312-0.166,0.852-0.427,1.276
						c-0.144,0.25-0.448,0.309-0.655,0.535c-0.334,0.372-0.353,0.823-0.561,1.279c-0.096,0.165,0.197,0.346,0.096,0.7
						c-0.101,0.086-0.228,0.06-0.353,0.029c-0.072-0.014-0.142-0.034-0.209-0.029c-1.003,1.886-2.034,3.634-3.33,5.592
						c-0.55,0.828-1.096,1.766-1.691,2.771c-0.514,0.878-1.322,1.986-1.404,3.145c-0.039,0.64,0.055,1.44,0.235,1.814
						c0.134,0.268,0.475,0.355,0.607,0.634c0.103,0.207,0.074,0.511,0.141,0.698c0.137,0.365,0.415,0.832,0.712,1.067
						c0.226,0.187,0.583,0.237,0.887,0.425c0.264,0.159,0.437,0.506,0.703,0.585c0.365,0.108,0.856,0.105,1.302,0.103
						c0.115,0,0.228,0,0.338,0c0.242,0.007,0.485-0.026,0.731-0.057c0.3-0.036,0.605-0.074,0.907-0.046
						c0.19,0.019,0.365,0.129,0.569,0.163c1.108,0.147,2.807-0.06,3.418,0.634c0.799-0.038,1.67-0.019,2.547,0.002
						c1.768,0.041,3.541,0.081,4.718-0.372c0.259,0.566,0.629,0.268,1.031,0.213c0.646-0.091,1.571,0,2.478,0
						c0.83,0,1.742-0.096,2.529,0c0.218,0.029,0.446,0.141,0.655,0.158c0.309,0.033,0.612,0.014,0.911-0.002
						c0.329-0.021,0.653-0.043,0.967,0.002c0.465,0.072,0.945,0.262,1.452,0.321c0.935,0.103,2.063,0,3.143,0
						c1.108,0,2.293,0.135,3.14,0c0.302-0.048,0.612-0.28,0.888-0.321c1.094-0.163,2.342,0,3.521,0h7.027
						c1.207,0,2.481,0.175,3.558,0c0.29-0.043,0.779-0.43,1.125-0.317c0.175,0.055,0.151,0.249,0.278,0.372
						c0.346,0.353,1.927,0.415,2.49,0.218c0.367-0.135,0.574-0.643,0.989-0.753c0.695-0.189,1.552,0,2.286,0h2.301
						c0.216-0.103,0.274-0.396,0.468-0.53c0.237,0.087,0.49,0.067,0.756,0.048c0.209-0.017,0.424-0.034,0.648,0.005
						c0.309,0.055,0.574,0.274,0.837,0.322c0.974,0.144,2.312,0.17,2.912-0.163c0.578-0.322,0.77-0.996,1.173-1.492
						c-0.094-0.95,0.123-1.483,0-2.186c-0.103-0.578-0.61-0.943-0.703-1.435c-0.069-0.406,0.096-0.912,0-1.394
						c-0.082-0.365-0.703-1.039-0.947-1.168c-0.413-0.226-1.022-0.175-1.403-0.48c-0.163-0.141-0.261-0.286-0.278-0.695
						c-0.672-0.099-0.779-0.749-1.123-1.223c-0.199-0.273-0.434-0.489-0.562-0.748c-0.101-0.199-0.115-0.489-0.237-0.695
						c-0.216-0.384-0.691-0.559-0.936-0.907c-0.123-0.17-0.161-0.418-0.281-0.585c-0.304-0.4-0.722-0.598-1.079-0.851
						c-0.232-0.499-0.693-0.753-1.031-1.173c-0.147-0.183-0.214-0.456-0.369-0.638c-0.233-0.268-0.586-0.396-0.804-0.695
						c-0.168-0.244-0.202-0.571-0.365-0.797c-0.509-0.7-1.158-1.228-1.789-1.765c-0.25-0.454-0.429-0.969-0.751-1.326
						c-0.218-0.256-0.561-0.377-0.743-0.645c-0.105-0.158-0.118-0.372-0.233-0.533c-0.171-0.226-0.508-0.384-0.751-0.64
						c-0.207-0.214-0.343-0.537-0.516-0.695c-0.199-0.175-0.489-0.207-0.657-0.422c-0.208-0.266-0.223-0.689-0.42-0.957
						c-0.213-0.285-0.573-0.372-0.796-0.64c-0.202-0.244-0.28-0.6-0.478-0.804c-0.245-0.269-0.629-0.304-0.883-0.586
						c-0.221-0.242-0.269-0.604-0.477-0.852c-0.223-0.281-0.655-0.352-0.88-0.638c-0.159-0.189-0.189-0.501-0.328-0.695
						c-0.206-0.28-0.535-0.408-0.71-0.693c-0.144-0.233-0.177-0.535-0.321-0.743c-0.177-0.244-0.544-0.365-0.753-0.64
						c-0.396-0.509-0.513-1.106-1.173-1.228c-0.269-0.695-0.799-1.11-1.223-1.65c-0.177-0.237-0.278-0.566-0.468-0.804
						c-0.185-0.232-0.499-0.382-0.701-0.638c-0.19-0.256-0.28-0.602-0.465-0.852c-0.151-0.199-0.386-0.367-0.562-0.586
						c-0.151-0.195-0.271-0.494-0.424-0.64c-0.185-0.178-0.472-0.22-0.655-0.427c-0.252-0.273-0.278-0.777-0.516-1.065
						c-0.369-0.446-1.068-0.418-1.451-0.851c-0.321-0.713-0.523-1.449-1.032-2.077c-0.147-0.189-0.4-0.286-0.562-0.487
						c-0.228-0.269-0.364-0.72-0.605-1.06c-0.139-0.187-0.412-0.355-0.569-0.585c-0.216-0.321-0.278-0.576-0.513-0.698
						c-1.056-0.549-1.687,1.734-2.2,2.399c-0.187,0.25-0.518,0.415-0.705,0.695c-0.149,0.214-0.182,0.485-0.326,0.688
						c-0.213,0.309-0.537,0.444-0.708,0.698c-0.125,0.201-0.142,0.492-0.28,0.693c-0.182,0.274-0.506,0.41-0.71,0.689
						c-0.118,0.183-0.139,0.444-0.273,0.645c-0.489,0.713-1.199,1.332-1.648,2.077c-0.091,0.17-0.132,0.41-0.225,0.583
						c-0.144,0.233-0.396,0.41-0.564,0.64c-0.187,0.256-0.28,0.597-0.424,0.799c-0.213,0.285-0.559,0.41-0.746,0.695
						c-0.187,0.274-0.262,0.765-0.427,0.955c-0.232,0.274-0.653,0.317-0.89,0.537c-0.319,0.293-0.574,0.787-0.887,1.173
						c-0.326,0.391-0.552,0.912-0.845,1.279c-0.202,0.244-0.48,0.372-0.655,0.64c-0.13,0.19-0.159,0.434-0.283,0.64
						c-0.19,0.333-0.528,0.554-0.7,0.851c-0.123,0.211-0.12,0.494-0.24,0.695c-0.111,0.182-0.362,0.372-0.514,0.586
						c-0.183,0.233-0.319,0.521-0.468,0.693c-0.206,0.232-0.586,0.365-0.751,0.643c-0.302,0.509-0.362,1.26-0.977,1.327
						c-0.218,0.693-0.58,1.051-0.989,1.495c-0.19,0.211-0.377,0.492-0.556,0.64c-0.204,0.146-0.47,0.178-0.657,0.377
						c-0.316,0.312-0.667,0.893-0.895,1.326c-0.125,0.242-0.147,0.559-0.286,0.799c-0.129,0.245-0.427,0.382-0.602,0.643
						c-0.189,0.269-0.237,0.669-0.424,0.962c-0.151,0.237-0.502,0.444-0.659,0.743c-0.161,0.324-0.187,0.779-0.376,0.96
						c-0.159,0.159-0.569,0.178-0.792,0.37c-0.197,0.171-0.358,0.598-0.614,0.909c-0.235,0.286-0.448,0.552-0.652,0.851
						c-0.415,0.602-1.005,1.144-1.317,1.705c-0.199,0.367-0.233,0.84-0.422,1.173c-0.161,0.297-0.484,0.449-0.695,0.749
						c-0.377,0.48-0.676,1.362-1.363,1.224c-0.305-0.06-0.681-0.76-0.71-1.118c-0.05-0.743,0.574-1.723,0.235-2.24
						c0.415-0.525,1.104-0.741,1.267-1.55c0.683-0.053,0.719-0.578,1.082-1.115c0.161-0.242,0.43-0.427,0.561-0.643
						c0.266-0.473,0.278-0.969,0.559-1.223c0.432-0.394,0.955-0.367,0.989-1.065c0.017-0.494-0.439-0.878-0.147-1.338
						c0.648,0.123,1.113,0.22,1.6-0.213c0.353-0.312,0.561-0.804,0.983-1.331c0.376-0.487,0.869-0.827,1.068-1.283
						c0.19-0.389,0.144-0.854,0.384-1.118c0.183-0.207,0.461-0.19,0.653-0.322c0.412-0.28,0.508-0.686,0.799-1.01
						c0.029-1.831,1.583-1.929,2.248-3.039c0.084-0.489,0.153-0.924,0.568-1.118c0.175-0.084,0.393,0,0.561-0.108
						c0.245-0.153,0.281-0.552,0.564-0.905c0.115-0.151,0.376-0.244,0.466-0.427c0.195-0.418,0.149-0.986,0.278-1.492
						c-0.158-0.31-0.362-0.82-0.232-1.279c0.943-0.242,1.687-0.4,2.246-1.173c0.065-0.086,0.077-0.278,0.141-0.37
						c0.187-0.298,0.518-0.559,0.751-0.857c0.266-0.336,0.605-0.64,0.749-0.907c0.153-0.286,0.177-0.65,0.329-0.955
						c0.261-0.547,0.842-1.01,1.308-1.338c0.365-0.249,0.804-0.37,1.127-0.693c0.659-0.669,0.785-1.927,1.082-2.878
						c1.125-0.005,1.639-0.725,2.108-1.487c1.202-0.06,1.2-1.384,1.921-2.293c0.362-0.468,0.984-0.791,1.308-1.176
						c0.247-0.288,0.532-0.796,0.849-1.223c0.245-0.346,0.532-1.091,0.842-1.224c1.079-0.48,1.06,0.845,1.506,1.331
						c0.199,0.237,0.542,0.276,0.746,0.482c0.271,0.266,0.271,0.633,0.607,0.743c0.178,0.105,0.511,0.026,0.657,0.163
						c0.324,0.316,0.254,1.307,0.602,1.703c0.202,0.218,0.804,0.413,1.086,0.163c0.247-0.232,0.338-1.946,0.183-2.397
						c-0.139-0.403-0.559-0.401-0.888-0.64c-0.381-0.286-0.401-0.753-0.703-1.228c-0.118-0.199-0.4-0.477-0.607-0.744
						c-0.221-0.276-0.434-0.586-0.657-0.695c-0.261-0.122-0.609-0.055-0.849-0.264c-0.111-0.108-0.28-0.442-0.413-0.64
						c-0.377-0.545-0.959-1.506-1.638-1.547c-0.003,0-0.007,0-0.01,0C74.144,23.452,73.421,24.371,73.251,24.892"/>
				</defs>
				<clipPath id="SVGID_2_">
					<use xlink:href="#SVGID_1_"  overflow="visible"/>
				</clipPath>
				
					<linearGradient id="SVGID_3_" gradientUnits="userSpaceOnUse" x1="-331.0231" y1="555.5308" x2="-328.9236" y2="555.5308" gradientTransform="matrix(-29.7993 0 0 29.7993 -9759.7881 -16504.3848)">
					<stop  offset="0" style="stop-color:#B51A1D"/>
					<stop  offset="0.1616" style="stop-color:#B61E1D"/>
					<stop  offset="0.3295" style="stop-color:#BB2B1D"/>
					<stop  offset="0.5003" style="stop-color:#C13F1D"/>
					<stop  offset="0.672" style="stop-color:#CB5C1C"/>
					<stop  offset="0.773" style="stop-color:#D2711C"/>
					<stop  offset="1" style="stop-color:#D2711C"/>
				</linearGradient>
				<rect x="37.05" y="23.452" clip-path="url(#SVGID_2_)" fill="url(#SVGID_3_)" width="69.711" height="53.183"/>
			</g>
		</g>
	</g>
</g>
</svg>
